<svg width="364" height="30" viewBox="0 0 364 30" fill="none" xmlns="http://www.w3.org/2000/svg">
<path d="M10.7086 26.44C11.8553 26.44 12.8286 26.2533 13.6286 25.88C14.4553 25.48 15.1219 24.96 15.6286 24.32C16.1619 23.6533 16.5486 22.9067 16.7886 22.08C17.0553 21.2267 17.1886 20.3333 17.1886 19.4V18.92H20.5486V19.4C20.5486 20.8133 20.3353 22.1467 19.9086 23.4C19.4819 24.6267 18.8553 25.7067 18.0286 26.64C17.2019 27.5467 16.1753 28.2667 14.9486 28.8C13.7219 29.3067 12.3086 29.56 10.7086 29.56C7.61526 29.56 5.20193 28.5867 3.46859 26.64C1.73526 24.6933 0.868594 21.8533 0.868594 18.12V11.88C0.868594 8.25333 1.73526 5.44 3.46859 3.44C5.20193 1.44 7.61526 0.439998 10.7086 0.439998C12.3086 0.439998 13.7219 0.706665 14.9486 1.24C16.1753 1.74667 17.2019 2.46667 18.0286 3.4C18.8553 4.30667 19.4819 5.38667 19.9086 6.64C20.3353 7.86667 20.5486 9.18667 20.5486 10.6V11.08H17.1886V10.6C17.1619 9.69333 17.0153 8.81333 16.7486 7.96C16.5086 7.10667 16.1219 6.36 15.5886 5.72C15.0819 5.05333 14.4286 4.53333 13.6286 4.16C12.8286 3.76 11.8553 3.56 10.7086 3.56C8.54859 3.56 6.92193 4.34667 5.82859 5.92C4.76193 7.49333 4.22859 9.56 4.22859 12.12V17.88C4.22859 20.6267 4.76193 22.7467 5.82859 24.24C6.92193 25.7067 8.54859 26.44 10.7086 26.44ZM45.0008 19.32C45.0008 20.9733 44.7208 22.44 44.1608 23.72C43.6274 24.9733 42.9074 26.04 42.0008 26.92C41.0941 27.7733 40.0274 28.4267 38.8008 28.88C37.6008 29.3333 36.3474 29.56 35.0408 29.56C33.7074 29.56 32.4408 29.3333 31.2408 28.88C30.0408 28.4267 28.9874 27.7733 28.0808 26.92C27.1741 26.04 26.4408 24.9733 25.8808 23.72C25.3474 22.44 25.0808 20.9733 25.0808 19.32V18.84C25.0808 17.2133 25.3474 15.7733 25.8808 14.52C26.4408 13.24 27.1741 12.16 28.0808 11.28C29.0141 10.4 30.0808 9.73333 31.2808 9.28C32.4808 8.82666 33.7341 8.6 35.0408 8.6C36.3474 8.6 37.6008 8.82666 38.8008 9.28C40.0008 9.73333 41.0541 10.4 41.9608 11.28C42.8941 12.16 43.6274 13.24 44.1608 14.52C44.7208 15.7733 45.0008 17.2133 45.0008 18.84V19.32ZM35.0408 26.6C36.0008 26.6 36.8808 26.44 37.6808 26.12C38.5074 25.7733 39.2274 25.28 39.8408 24.64C40.4541 24 40.9341 23.24 41.2808 22.36C41.6274 21.4533 41.8008 20.44 41.8008 19.32V18.84C41.8008 17.7733 41.6274 16.8 41.2808 15.92C40.9341 15.0133 40.4541 14.24 39.8408 13.6C39.2274 12.96 38.5074 12.4667 37.6808 12.12C36.8541 11.7467 35.9741 11.56 35.0408 11.56C34.1074 11.56 33.2274 11.7467 32.4008 12.12C31.5741 12.4667 30.8541 12.96 30.2408 13.6C29.6274 14.24 29.1474 15.0133 28.8008 15.92C28.4541 16.8 28.2808 17.7733 28.2808 18.84V19.32C28.2808 20.44 28.4541 21.4533 28.8008 22.36C29.1474 23.24 29.6274 24 30.2408 24.64C30.8541 25.28 31.5608 25.7733 32.3608 26.12C33.1874 26.44 34.0808 26.6 35.0408 26.6ZM53.893 29H50.773V9.16H53.893V12.52H54.373C55.5996 9.90666 57.733 8.6 60.773 8.6C63.0663 8.6 64.893 9.32 66.253 10.76C67.613 12.1733 68.293 14.3067 68.293 17.16V29H65.173V17.8C65.173 15.72 64.7063 14.16 63.773 13.12C62.8396 12.08 61.573 11.56 59.973 11.56C58.0796 11.56 56.5863 12.2133 55.493 13.52C54.4263 14.8 53.893 16.52 53.893 18.68V29ZM87.1452 3.24C87.1452 2.46666 87.4118 1.81333 87.9452 1.28C88.5052 0.719999 89.1718 0.439998 89.9452 0.439998C90.7185 0.439998 91.3718 0.719999 91.9052 1.28C92.4652 1.81333 92.7452 2.46666 92.7452 3.24C92.7452 4.01333 92.4652 4.68 91.9052 5.24C91.3718 5.77333 90.7185 6.04 89.9452 6.04C89.1718 6.04 88.5052 5.77333 87.9452 5.24C87.4118 4.68 87.1452 4.01333 87.1452 3.24ZM88.4252 29V12.04H81.5052V29H78.3852V12.04H73.7052V9.16H78.3852V4.92C78.3852 4.01333 78.6652 3.26666 79.2252 2.68C79.8118 2.09333 80.5585 1.8 81.4652 1.8H85.7052V4.68H82.5852C81.8652 4.68 81.5052 5.08 81.5052 5.88V9.16H91.5452V29H88.4252ZM98.6373 9.16H105.837V11.8H106.317C106.824 10.7067 107.544 9.90667 108.477 9.4C109.411 8.86667 110.477 8.6 111.677 8.6C113.677 8.6 115.291 9.25333 116.517 10.56C117.744 11.8667 118.397 13.7733 118.477 16.28L115.197 16.76C115.197 14.92 114.757 13.6 113.877 12.8C112.997 11.9733 111.917 11.56 110.637 11.56C109.811 11.56 109.091 11.72 108.477 12.04C107.891 12.36 107.397 12.8 106.997 13.36C106.597 13.92 106.304 14.5733 106.117 15.32C105.931 16.0667 105.837 16.8667 105.837 17.72V26.12H110.877V29H98.1573V26.12H102.717V12.04H98.6373V9.16ZM143.33 29H140.21V14.76C140.21 13.8267 139.996 13.0667 139.57 12.48C139.143 11.8667 138.463 11.56 137.53 11.56C136.65 11.56 135.93 11.8933 135.37 12.56C134.836 13.2 134.57 14.2 134.57 15.56V29H131.45V14.6C131.45 13.72 131.21 13 130.73 12.44C130.25 11.8533 129.61 11.56 128.81 11.56C127.85 11.56 127.103 11.9067 126.57 12.6C126.063 13.2933 125.81 14.2 125.81 15.32V29H122.69V9.16H125.81V11.32H126.29C126.636 10.3867 127.143 9.70667 127.81 9.28C128.476 8.82666 129.263 8.6 130.17 8.6C131.13 8.6 131.916 8.85333 132.53 9.36C133.17 9.86667 133.61 10.52 133.85 11.32H134.33C135.236 9.50666 136.676 8.6 138.65 8.6C140.143 8.6 141.29 9.08 142.09 10.04C142.916 10.9733 143.33 12.2 143.33 13.72V29ZM176.514 17.48V29H173.154V0.999998H183.154C184.594 0.999998 185.847 1.21333 186.914 1.64C187.981 2.04 188.861 2.58667 189.554 3.28C190.274 3.97333 190.807 4.78667 191.154 5.72C191.527 6.62667 191.714 7.58666 191.714 8.6V9.8C191.714 10.8133 191.527 11.7867 191.154 12.72C190.807 13.6533 190.274 14.48 189.554 15.2C188.834 15.8933 187.941 16.4533 186.874 16.88C185.807 17.28 184.567 17.48 183.154 17.48H176.514ZM176.514 14.36H182.754C186.487 14.36 188.354 12.76 188.354 9.56V8.84C188.354 7.42667 187.887 6.29333 186.954 5.44C186.047 4.56 184.647 4.12 182.754 4.12H176.514V14.36ZM212.126 25.64H211.646C211.006 26.9733 210.113 27.96 208.966 28.6C207.846 29.24 206.659 29.56 205.406 29.56C204.099 29.56 202.886 29.3467 201.766 28.92C200.646 28.4667 199.659 27.8133 198.806 26.96C197.979 26.08 197.326 25.0133 196.846 23.76C196.366 22.5067 196.126 21.0533 196.126 19.4V18.76C196.126 17.1333 196.366 15.6933 196.846 14.44C197.326 13.1867 197.979 12.1333 198.806 11.28C199.659 10.4 200.646 9.73333 201.766 9.28C202.886 8.82666 204.073 8.6 205.326 8.6C206.686 8.6 207.913 8.90667 209.006 9.52C210.126 10.1067 211.006 11.0267 211.646 12.28H212.126V9.16H215.246V24.92C215.246 25.72 215.606 26.12 216.326 26.12H217.326V29H215.206C214.299 29 213.553 28.7067 212.966 28.12C212.406 27.5333 212.126 26.7867 212.126 25.88V25.64ZM205.726 26.6C206.659 26.6 207.513 26.4267 208.286 26.08C209.086 25.7333 209.766 25.24 210.326 24.6C210.886 23.96 211.326 23.2 211.646 22.32C211.966 21.4133 212.126 20.4133 212.126 19.32V18.84C212.126 17.7733 211.966 16.8 211.646 15.92C211.326 15.0133 210.873 14.24 210.286 13.6C209.726 12.96 209.046 12.4667 208.246 12.12C207.473 11.7467 206.633 11.56 205.726 11.56C204.793 11.56 203.939 11.7333 203.166 12.08C202.393 12.4267 201.713 12.92 201.126 13.56C200.566 14.1733 200.126 14.9333 199.806 15.84C199.486 16.72 199.326 17.6933 199.326 18.76V19.4C199.326 21.6667 199.913 23.44 201.086 24.72C202.286 25.9733 203.833 26.6 205.726 26.6ZM226.338 14.28C226.338 15.24 226.738 15.9733 227.538 16.48C228.365 16.9867 229.858 17.32 232.018 17.48C234.338 17.6667 236.098 18.2267 237.298 19.16C238.525 20.0667 239.138 21.4 239.138 23.16V23.4C239.138 24.36 238.938 25.2267 238.538 26C238.165 26.7467 237.632 27.3867 236.938 27.92C236.272 28.4533 235.445 28.8533 234.458 29.12C233.498 29.4133 232.445 29.56 231.298 29.56C229.752 29.56 228.418 29.36 227.298 28.96C226.205 28.5333 225.285 27.9867 224.538 27.32C223.818 26.6267 223.272 25.8533 222.898 25C222.525 24.12 222.312 23.24 222.258 22.36L225.218 21.64C225.352 23.16 225.938 24.3867 226.978 25.32C228.018 26.2267 229.405 26.68 231.138 26.68C232.605 26.68 233.778 26.4 234.658 25.84C235.565 25.2533 236.018 24.44 236.018 23.4C236.018 22.28 235.578 21.48 234.698 21C233.818 20.52 232.392 20.2133 230.418 20.08C228.125 19.92 226.365 19.3867 225.138 18.48C223.912 17.5733 223.298 16.2533 223.298 14.52V14.28C223.298 13.3467 223.498 12.5333 223.898 11.84C224.298 11.12 224.832 10.52 225.498 10.04C226.192 9.56 226.965 9.2 227.818 8.96C228.672 8.72 229.565 8.6 230.498 8.6C231.805 8.6 232.952 8.78667 233.938 9.16C234.925 9.50667 235.752 9.97333 236.418 10.56C237.085 11.12 237.592 11.7733 237.938 12.52C238.312 13.2667 238.552 14.0133 238.658 14.76L235.698 15.48C235.565 14.2 235.045 13.2 234.138 12.48C233.258 11.76 232.098 11.4 230.658 11.4C230.098 11.4 229.552 11.4667 229.018 11.6C228.512 11.7067 228.058 11.88 227.658 12.12C227.258 12.36 226.938 12.6667 226.698 13.04C226.458 13.3867 226.338 13.8 226.338 14.28ZM250.83 14.28C250.83 15.24 251.23 15.9733 252.03 16.48C252.857 16.9867 254.35 17.32 256.51 17.48C258.83 17.6667 260.59 18.2267 261.79 19.16C263.017 20.0667 263.63 21.4 263.63 23.16V23.4C263.63 24.36 263.43 25.2267 263.03 26C262.657 26.7467 262.124 27.3867 261.43 27.92C260.764 28.4533 259.937 28.8533 258.95 29.12C257.99 29.4133 256.937 29.56 255.79 29.56C254.244 29.56 252.91 29.36 251.79 28.96C250.697 28.5333 249.777 27.9867 249.03 27.32C248.31 26.6267 247.764 25.8533 247.39 25C247.017 24.12 246.804 23.24 246.75 22.36L249.71 21.64C249.844 23.16 250.43 24.3867 251.47 25.32C252.51 26.2267 253.897 26.68 255.63 26.68C257.097 26.68 258.27 26.4 259.15 25.84C260.057 25.2533 260.51 24.44 260.51 23.4C260.51 22.28 260.07 21.48 259.19 21C258.31 20.52 256.884 20.2133 254.91 20.08C252.617 19.92 250.857 19.3867 249.63 18.48C248.404 17.5733 247.79 16.2533 247.79 14.52V14.28C247.79 13.3467 247.99 12.5333 248.39 11.84C248.79 11.12 249.324 10.52 249.99 10.04C250.684 9.56 251.457 9.2 252.31 8.96C253.164 8.72 254.057 8.6 254.99 8.6C256.297 8.6 257.444 8.78667 258.43 9.16C259.417 9.50667 260.244 9.97333 260.91 10.56C261.577 11.12 262.084 11.7733 262.43 12.52C262.804 13.2667 263.044 14.0133 263.15 14.76L260.19 15.48C260.057 14.2 259.537 13.2 258.63 12.48C257.75 11.76 256.59 11.4 255.15 11.4C254.59 11.4 254.044 11.4667 253.51 11.6C253.004 11.7067 252.55 11.88 252.15 12.12C251.75 12.36 251.43 12.6667 251.19 13.04C250.95 13.3867 250.83 13.8 250.83 14.28ZM288.363 29H282.603L280.203 10.6H279.723L277.323 29H271.563L268.443 9.16H271.643L274.283 27.56H274.763L277.083 9.16H282.843L285.163 27.56H285.643L288.283 9.16H291.483L288.363 29ZM314.415 19.32C314.415 20.9733 314.135 22.44 313.575 23.72C313.042 24.9733 312.322 26.04 311.415 26.92C310.508 27.7733 309.442 28.4267 308.215 28.88C307.015 29.3333 305.762 29.56 304.455 29.56C303.122 29.56 301.855 29.3333 300.655 28.88C299.455 28.4267 298.402 27.7733 297.495 26.92C296.588 26.04 295.855 24.9733 295.295 23.72C294.762 22.44 294.495 20.9733 294.495 19.32V18.84C294.495 17.2133 294.762 15.7733 295.295 14.52C295.855 13.24 296.588 12.16 297.495 11.28C298.428 10.4 299.495 9.73333 300.695 9.28C301.895 8.82666 303.148 8.6 304.455 8.6C305.762 8.6 307.015 8.82666 308.215 9.28C309.415 9.73333 310.468 10.4 311.375 11.28C312.308 12.16 313.042 13.24 313.575 14.52C314.135 15.7733 314.415 17.2133 314.415 18.84V19.32ZM304.455 26.6C305.415 26.6 306.295 26.44 307.095 26.12C307.922 25.7733 308.642 25.28 309.255 24.64C309.868 24 310.348 23.24 310.695 22.36C311.042 21.4533 311.215 20.44 311.215 19.32V18.84C311.215 17.7733 311.042 16.8 310.695 15.92C310.348 15.0133 309.868 14.24 309.255 13.6C308.642 12.96 307.922 12.4667 307.095 12.12C306.268 11.7467 305.388 11.56 304.455 11.56C303.522 11.56 302.642 11.7467 301.815 12.12C300.988 12.4667 300.268 12.96 299.655 13.6C299.042 14.24 298.562 15.0133 298.215 15.92C297.868 16.8 297.695 17.7733 297.695 18.84V19.32C297.695 20.44 297.868 21.4533 298.215 22.36C298.562 23.24 299.042 24 299.655 24.64C300.268 25.28 300.975 25.7733 301.775 26.12C302.602 26.44 303.495 26.6 304.455 26.6ZM319.067 9.16H326.267V11.8H326.747C327.254 10.7067 327.974 9.90667 328.907 9.4C329.84 8.86667 330.907 8.6 332.107 8.6C334.107 8.6 335.72 9.25333 336.947 10.56C338.174 11.8667 338.827 13.7733 338.907 16.28L335.627 16.76C335.627 14.92 335.187 13.6 334.307 12.8C333.427 11.9733 332.347 11.56 331.067 11.56C330.24 11.56 329.52 11.72 328.907 12.04C328.32 12.36 327.827 12.8 327.427 13.36C327.027 13.92 326.734 14.5733 326.547 15.32C326.36 16.0667 326.267 16.8667 326.267 17.72V26.12H331.307V29H318.587V26.12H323.147V12.04H319.067V9.16ZM360.039 25.96H359.559C359.239 26.5733 358.826 27.1067 358.319 27.56C357.839 28.0133 357.306 28.3867 356.719 28.68C356.159 28.9733 355.559 29.1867 354.919 29.32C354.279 29.48 353.666 29.56 353.079 29.56C351.746 29.56 350.506 29.3333 349.359 28.88C348.213 28.4267 347.199 27.7733 346.319 26.92C345.466 26.0667 344.786 25.0133 344.279 23.76C343.799 22.48 343.559 21.0267 343.559 19.4V18.76C343.559 17.16 343.813 15.7333 344.319 14.48C344.826 13.2 345.506 12.1333 346.359 11.28C347.213 10.4 348.213 9.73333 349.359 9.28C350.506 8.82666 351.719 8.6 352.999 8.6C354.359 8.6 355.626 8.90667 356.799 9.52C357.999 10.1067 358.919 11.0267 359.559 12.28H360.039V0.999998H363.159V29H360.039V25.96ZM353.399 26.6C354.333 26.6 355.199 26.4267 355.999 26.08C356.799 25.7333 357.493 25.24 358.079 24.6C358.693 23.96 359.173 23.2 359.519 22.32C359.866 21.4133 360.039 20.4133 360.039 19.32V18.84C360.039 17.7733 359.866 16.8 359.519 15.92C359.173 15.0133 358.693 14.24 358.079 13.6C357.493 12.96 356.786 12.4667 355.959 12.12C355.159 11.7467 354.306 11.56 353.399 11.56C352.466 11.56 351.586 11.7333 350.759 12.08C349.959 12.4267 349.253 12.92 348.639 13.56C348.053 14.2 347.586 14.96 347.239 15.84C346.919 16.72 346.759 17.6933 346.759 18.76V19.4C346.759 20.52 346.919 21.52 347.239 22.4C347.586 23.28 348.053 24.04 348.639 24.68C349.253 25.2933 349.959 25.7733 350.759 26.12C351.559 26.44 352.439 26.6 353.399 26.6Z" fill="#314455"/>
</svg>
