<svg width="263" height="30" viewBox="0 0 263 30" fill="none" xmlns="http://www.w3.org/2000/svg">
<path d="M0.0529689 0.999998H17.013V4.12H3.41297V13.4H16.773V16.52H3.41297V25.88H17.253V29H0.0529689V0.999998ZM27.3852 29H24.2652V9.16H27.3852V12.52H27.8652C29.0918 9.90666 31.2252 8.6 34.2652 8.6C36.5585 8.6 38.3852 9.32 39.7452 10.76C41.1052 12.1733 41.7852 14.3067 41.7852 17.16V29H38.6652V17.8C38.6652 15.72 38.1985 14.16 37.2652 13.12C36.3318 12.08 35.0652 11.56 33.4652 11.56C31.5718 11.56 30.0785 12.2133 28.9852 13.52C27.9185 14.8 27.3852 16.52 27.3852 18.68V29ZM48.0773 9.16H54.3173V0.999998H57.4373V9.16H65.1173V12.04H57.4373V24.92C57.4373 25.72 57.7973 26.12 58.5173 26.12H64.1573V29H57.3973C56.4907 29 55.744 28.7067 55.1573 28.12C54.5973 27.5333 54.3173 26.7867 54.3173 25.88V12.04H48.0773V9.16ZM75.5295 20.04C75.6095 22.0133 76.2229 23.6 77.3695 24.8C78.5162 26 80.1162 26.6 82.1695 26.6C83.1029 26.6 83.9162 26.4933 84.6095 26.28C85.3029 26.0667 85.8895 25.7733 86.3695 25.4C86.8762 25.0267 87.2762 24.6 87.5695 24.12C87.8895 23.6133 88.1429 23.08 88.3295 22.52L91.2895 23.32C90.7295 25.16 89.6895 26.6667 88.1695 27.84C86.6762 28.9867 84.6495 29.56 82.0895 29.56C80.6762 29.56 79.3695 29.32 78.1695 28.84C76.9962 28.3333 75.9829 27.6267 75.1295 26.72C74.2762 25.8133 73.6095 24.7333 73.1295 23.48C72.6495 22.2267 72.4095 20.84 72.4095 19.32V18.36C72.4095 16.9733 72.6495 15.68 73.1295 14.48C73.6362 13.28 74.3295 12.2533 75.2095 11.4C76.0895 10.52 77.1162 9.84 78.2895 9.36C79.4895 8.85333 80.7829 8.6 82.1695 8.6C83.7962 8.6 85.1962 8.90667 86.3695 9.52C87.5695 10.1067 88.5429 10.84 89.2895 11.72C90.0629 12.6 90.6229 13.56 90.9695 14.6C91.3429 15.64 91.5295 16.6 91.5295 17.48V20.04H75.5295ZM82.1695 11.56C81.2895 11.56 80.4629 11.7067 79.6895 12C78.9429 12.2667 78.2762 12.6533 77.6895 13.16C77.1295 13.6667 76.6629 14.2667 76.2895 14.96C75.9429 15.6267 75.7162 16.36 75.6095 17.16H88.4095C88.3562 16.3067 88.1429 15.5333 87.7695 14.84C87.4229 14.1467 86.9562 13.56 86.3695 13.08C85.8095 12.6 85.1562 12.2267 84.4095 11.96C83.6895 11.6933 82.9429 11.56 82.1695 11.56ZM96.6217 9.16H103.822V11.8H104.302C104.808 10.7067 105.528 9.90667 106.462 9.4C107.395 8.86667 108.462 8.6 109.662 8.6C111.662 8.6 113.275 9.25333 114.502 10.56C115.728 11.8667 116.382 13.7733 116.462 16.28L113.182 16.76C113.182 14.92 112.742 13.6 111.862 12.8C110.982 11.9733 109.902 11.56 108.622 11.56C107.795 11.56 107.075 11.72 106.462 12.04C105.875 12.36 105.382 12.8 104.982 13.36C104.582 13.92 104.288 14.5733 104.102 15.32C103.915 16.0667 103.822 16.8667 103.822 17.72V26.12H108.862V29H96.1417V26.12H100.702V12.04H96.6217V9.16ZM147.006 0.999998H163.966V4.12H150.366V13.4H163.726V16.52H150.366V25.88H164.206V29H147.006V0.999998ZM190.298 29H187.178V14.76C187.178 13.8267 186.965 13.0667 186.538 12.48C186.112 11.8667 185.432 11.56 184.498 11.56C183.618 11.56 182.898 11.8933 182.338 12.56C181.805 13.2 181.538 14.2 181.538 15.56V29H178.418V14.6C178.418 13.72 178.178 13 177.698 12.44C177.218 11.8533 176.578 11.56 175.778 11.56C174.818 11.56 174.072 11.9067 173.538 12.6C173.032 13.2933 172.778 14.2 172.778 15.32V29H169.658V9.16H172.778V11.32H173.258C173.605 10.3867 174.112 9.70667 174.778 9.28C175.445 8.82666 176.232 8.6 177.138 8.6C178.098 8.6 178.885 8.85333 179.498 9.36C180.138 9.86667 180.578 10.52 180.818 11.32H181.298C182.205 9.50666 183.645 8.6 185.618 8.6C187.112 8.6 188.258 9.08 189.058 10.04C189.885 10.9733 190.298 12.2 190.298 13.72V29ZM210.11 25.64H209.63C208.99 26.9733 208.097 27.96 206.95 28.6C205.83 29.24 204.644 29.56 203.39 29.56C202.084 29.56 200.87 29.3467 199.75 28.92C198.63 28.4667 197.644 27.8133 196.79 26.96C195.964 26.08 195.31 25.0133 194.83 23.76C194.35 22.5067 194.11 21.0533 194.11 19.4V18.76C194.11 17.1333 194.35 15.6933 194.83 14.44C195.31 13.1867 195.964 12.1333 196.79 11.28C197.644 10.4 198.63 9.73333 199.75 9.28C200.87 8.82666 202.057 8.6 203.31 8.6C204.67 8.6 205.897 8.90667 206.99 9.52C208.11 10.1067 208.99 11.0267 209.63 12.28H210.11V9.16H213.23V24.92C213.23 25.72 213.59 26.12 214.31 26.12H215.31V29H213.19C212.284 29 211.537 28.7067 210.95 28.12C210.39 27.5333 210.11 26.7867 210.11 25.88V25.64ZM203.71 26.6C204.644 26.6 205.497 26.4267 206.27 26.08C207.07 25.7333 207.75 25.24 208.31 24.6C208.87 23.96 209.31 23.2 209.63 22.32C209.95 21.4133 210.11 20.4133 210.11 19.32V18.84C210.11 17.7733 209.95 16.8 209.63 15.92C209.31 15.0133 208.857 14.24 208.27 13.6C207.71 12.96 207.03 12.4667 206.23 12.12C205.457 11.7467 204.617 11.56 203.71 11.56C202.777 11.56 201.924 11.7333 201.15 12.08C200.377 12.4267 199.697 12.92 199.11 13.56C198.55 14.1733 198.11 14.9333 197.79 15.84C197.47 16.72 197.31 17.6933 197.31 18.76V19.4C197.31 21.6667 197.897 23.44 199.07 24.72C200.27 25.9733 201.817 26.6 203.71 26.6ZM226.363 3.24C226.363 2.46666 226.629 1.81333 227.163 1.28C227.723 0.719999 228.389 0.439998 229.163 0.439998C229.936 0.439998 230.589 0.719999 231.123 1.28C231.683 1.81333 231.963 2.46666 231.963 3.24C231.963 4.01333 231.683 4.68 231.123 5.24C230.589 5.77333 229.936 6.04 229.163 6.04C228.389 6.04 227.723 5.77333 227.163 5.24C226.629 4.68 226.363 4.01333 226.363 3.24ZM220.683 26.12H227.643V12.04H221.403V9.16H230.763V26.12H237.243V29H220.683V26.12ZM244.695 26.12H251.895V3.88H244.935V0.999998H255.015V26.12H262.215V29H244.695V26.12Z" fill="#314455"/>
</svg>
