<svg width="464" height="40" viewBox="0 0 464 40" fill="none" xmlns="http://www.w3.org/2000/svg">
<path d="M0.432696 0.499997H23.7527V4.79H5.0527V17.55H23.4227V21.84H5.0527V34.71H24.0827V39H0.432696V0.499997ZM38.0145 39H33.7245V11.72H38.0145V16.34H38.6745C40.3611 12.7467 43.2945 10.95 47.4745 10.95C50.6278 10.95 53.1395 11.94 55.0095 13.92C56.8795 15.8633 57.8145 18.7967 57.8145 22.72V39H53.5245V23.6C53.5245 20.74 52.8828 18.595 51.5995 17.165C50.3161 15.735 48.5745 15.02 46.3745 15.02C43.7711 15.02 41.7178 15.9183 40.2145 17.715C38.7478 19.475 38.0145 21.84 38.0145 24.81V39ZM66.4662 11.72H75.0462V0.499997H79.3362V11.72H89.8962V15.68H79.3362V33.39C79.3362 34.49 79.8312 35.04 80.8212 35.04H88.5762V39H79.2812C78.0345 39 77.0079 38.5967 76.2012 37.79C75.4312 36.9833 75.0462 35.9567 75.0462 34.71V15.68H66.4662V11.72ZM104.213 26.68C104.323 29.3933 105.166 31.575 106.743 33.225C108.32 34.875 110.52 35.7 113.343 35.7C114.626 35.7 115.745 35.5533 116.698 35.26C117.651 34.9667 118.458 34.5633 119.118 34.05C119.815 33.5367 120.365 32.95 120.768 32.29C121.208 31.5933 121.556 30.86 121.813 30.09L125.883 31.19C125.113 33.72 123.683 35.7917 121.593 37.405C119.54 38.9817 116.753 39.77 113.233 39.77C111.29 39.77 109.493 39.44 107.843 38.78C106.23 38.0833 104.836 37.1117 103.663 35.865C102.49 34.6183 101.573 33.1333 100.913 31.41C100.253 29.6867 99.923 27.78 99.923 25.69V24.37C99.923 22.4633 100.253 20.685 100.913 19.035C101.61 17.385 102.563 15.9733 103.773 14.8C104.983 13.59 106.395 12.655 108.008 11.995C109.658 11.2983 111.436 10.95 113.343 10.95C115.58 10.95 117.505 11.3717 119.118 12.215C120.768 13.0217 122.106 14.03 123.133 15.24C124.196 16.45 124.966 17.77 125.443 19.2C125.956 20.63 126.213 21.95 126.213 23.16V26.68H104.213ZM113.343 15.02C112.133 15.02 110.996 15.2217 109.933 15.625C108.906 15.9917 107.99 16.5233 107.183 17.22C106.413 17.9167 105.771 18.7417 105.258 19.695C104.781 20.6117 104.47 21.62 104.323 22.72H121.923C121.85 21.5467 121.556 20.4833 121.043 19.53C120.566 18.5767 119.925 17.77 119.118 17.11C118.348 16.45 117.45 15.9367 116.423 15.57C115.433 15.2033 114.406 15.02 113.343 15.02ZM133.215 11.72H143.115V15.35H143.775C144.471 13.8467 145.461 12.7467 146.745 12.05C148.028 11.3167 149.495 10.95 151.145 10.95C153.895 10.95 156.113 11.8483 157.8 13.645C159.486 15.4417 160.385 18.0633 160.495 21.51L155.985 22.17C155.985 19.64 155.38 17.825 154.17 16.725C152.96 15.5883 151.475 15.02 149.715 15.02C148.578 15.02 147.588 15.24 146.745 15.68C145.938 16.12 145.26 16.725 144.71 17.495C144.16 18.265 143.756 19.1633 143.5 20.19C143.243 21.2167 143.115 22.3167 143.115 23.49V35.04H150.045V39H132.555V35.04H138.825V15.68H133.215V11.72ZM206.618 23.16V39H201.998V0.499997H215.748C217.728 0.499997 219.452 0.793331 220.918 1.38C222.385 1.93 223.595 2.68167 224.548 3.635C225.538 4.58833 226.272 5.70666 226.748 6.99C227.262 8.23666 227.518 9.55666 227.518 10.95V12.6C227.518 13.9933 227.262 15.3317 226.748 16.615C226.272 17.8983 225.538 19.035 224.548 20.025C223.558 20.9783 222.33 21.7483 220.863 22.335C219.397 22.885 217.692 23.16 215.748 23.16H206.618ZM206.618 18.87H215.198C220.332 18.87 222.898 16.67 222.898 12.27V11.28C222.898 9.33667 222.257 7.77833 220.973 6.605C219.727 5.395 217.802 4.79 215.198 4.79H206.618V18.87ZM255.585 34.38H254.925C254.045 36.2133 252.817 37.57 251.24 38.45C249.7 39.33 248.068 39.77 246.345 39.77C244.548 39.77 242.88 39.4767 241.34 38.89C239.8 38.2667 238.443 37.3683 237.27 36.195C236.133 34.985 235.235 33.5183 234.575 31.795C233.915 30.0717 233.585 28.0733 233.585 25.8V24.92C233.585 22.6833 233.915 20.7033 234.575 18.98C235.235 17.2567 236.133 15.8083 237.27 14.635C238.443 13.425 239.8 12.5083 241.34 11.885C242.88 11.2617 244.512 10.95 246.235 10.95C248.105 10.95 249.792 11.3717 251.295 12.215C252.835 13.0217 254.045 14.2867 254.925 16.01H255.585V11.72H259.875V33.39C259.875 34.49 260.37 35.04 261.36 35.04H262.735V39H259.82C258.573 39 257.547 38.5967 256.74 37.79C255.97 36.9833 255.585 35.9567 255.585 34.71V34.38ZM246.785 35.7C248.068 35.7 249.242 35.4617 250.305 34.985C251.405 34.5083 252.34 33.83 253.11 32.95C253.88 32.07 254.485 31.025 254.925 29.815C255.365 28.5683 255.585 27.1933 255.585 25.69V25.03C255.585 23.5633 255.365 22.225 254.925 21.015C254.485 19.7683 253.862 18.705 253.055 17.825C252.285 16.945 251.35 16.2667 250.25 15.79C249.187 15.2767 248.032 15.02 246.785 15.02C245.502 15.02 244.328 15.2583 243.265 15.735C242.202 16.2117 241.267 16.89 240.46 17.77C239.69 18.6133 239.085 19.6583 238.645 20.905C238.205 22.115 237.985 23.4533 237.985 24.92V25.8C237.985 28.9167 238.792 31.355 240.405 33.115C242.055 34.8383 244.182 35.7 246.785 35.7ZM275.127 18.76C275.127 20.08 275.677 21.0883 276.777 21.785C277.913 22.4817 279.967 22.94 282.937 23.16C286.127 23.4167 288.547 24.1867 290.197 25.47C291.883 26.7167 292.727 28.55 292.727 30.97V31.3C292.727 32.62 292.452 33.8117 291.902 34.875C291.388 35.9017 290.655 36.7817 289.702 37.515C288.785 38.2483 287.648 38.7983 286.292 39.165C284.972 39.5683 283.523 39.77 281.947 39.77C279.82 39.77 277.987 39.495 276.447 38.945C274.943 38.3583 273.678 37.6067 272.652 36.69C271.662 35.7367 270.91 34.6733 270.397 33.5C269.883 32.29 269.59 31.08 269.517 29.87L273.587 28.88C273.77 30.97 274.577 32.6567 276.007 33.94C277.437 35.1867 279.343 35.81 281.727 35.81C283.743 35.81 285.357 35.425 286.567 34.655C287.813 33.8483 288.437 32.73 288.437 31.3C288.437 29.76 287.832 28.66 286.622 28C285.412 27.34 283.45 26.9183 280.737 26.735C277.583 26.515 275.163 25.7817 273.477 24.535C271.79 23.2883 270.947 21.4733 270.947 19.09V18.76C270.947 17.4767 271.222 16.3583 271.772 15.405C272.322 14.415 273.055 13.59 273.972 12.93C274.925 12.27 275.988 11.775 277.162 11.445C278.335 11.115 279.563 10.95 280.847 10.95C282.643 10.95 284.22 11.2067 285.577 11.72C286.933 12.1967 288.07 12.8383 288.987 13.645C289.903 14.415 290.6 15.3133 291.077 16.34C291.59 17.3667 291.92 18.3933 292.067 19.42L287.997 20.41C287.813 18.65 287.098 17.275 285.852 16.285C284.642 15.295 283.047 14.8 281.067 14.8C280.297 14.8 279.545 14.8917 278.812 15.075C278.115 15.2217 277.492 15.46 276.942 15.79C276.392 16.12 275.952 16.5417 275.622 17.055C275.292 17.5317 275.127 18.1 275.127 18.76ZM308.804 18.76C308.804 20.08 309.354 21.0883 310.454 21.785C311.59 22.4817 313.644 22.94 316.614 23.16C319.804 23.4167 322.224 24.1867 323.874 25.47C325.56 26.7167 326.404 28.55 326.404 30.97V31.3C326.404 32.62 326.129 33.8117 325.579 34.875C325.065 35.9017 324.332 36.7817 323.379 37.515C322.462 38.2483 321.325 38.7983 319.969 39.165C318.649 39.5683 317.2 39.77 315.624 39.77C313.497 39.77 311.664 39.495 310.124 38.945C308.62 38.3583 307.355 37.6067 306.329 36.69C305.339 35.7367 304.587 34.6733 304.074 33.5C303.56 32.29 303.267 31.08 303.194 29.87L307.264 28.88C307.447 30.97 308.254 32.6567 309.684 33.94C311.114 35.1867 313.02 35.81 315.404 35.81C317.42 35.81 319.034 35.425 320.244 34.655C321.49 33.8483 322.114 32.73 322.114 31.3C322.114 29.76 321.509 28.66 320.299 28C319.089 27.34 317.127 26.9183 314.414 26.735C311.26 26.515 308.84 25.7817 307.154 24.535C305.467 23.2883 304.624 21.4733 304.624 19.09V18.76C304.624 17.4767 304.899 16.3583 305.449 15.405C305.999 14.415 306.732 13.59 307.649 12.93C308.602 12.27 309.665 11.775 310.839 11.445C312.012 11.115 313.24 10.95 314.524 10.95C316.32 10.95 317.897 11.2067 319.254 11.72C320.61 12.1967 321.747 12.8383 322.664 13.645C323.58 14.415 324.277 15.3133 324.754 16.34C325.267 17.3667 325.597 18.3933 325.744 19.42L321.674 20.41C321.49 18.65 320.775 17.275 319.529 16.285C318.319 15.295 316.724 14.8 314.744 14.8C313.974 14.8 313.222 14.8917 312.489 15.075C311.792 15.2217 311.169 15.46 310.619 15.79C310.069 16.12 309.629 16.5417 309.299 17.055C308.969 17.5317 308.804 18.1 308.804 18.76ZM360.41 39H352.49L349.19 13.7H348.53L345.23 39H337.31L333.02 11.72H337.42L341.05 37.02H341.71L344.9 11.72H352.82L356.01 37.02H356.67L360.3 11.72H364.7L360.41 39ZM396.232 25.69C396.232 27.9633 395.847 29.98 395.077 31.74C394.344 33.4633 393.354 34.93 392.107 36.14C390.86 37.3133 389.394 38.2117 387.707 38.835C386.057 39.4583 384.334 39.77 382.537 39.77C380.704 39.77 378.962 39.4583 377.312 38.835C375.662 38.2117 374.214 37.3133 372.967 36.14C371.72 34.93 370.712 33.4633 369.942 31.74C369.209 29.98 368.842 27.9633 368.842 25.69V25.03C368.842 22.7933 369.209 20.8133 369.942 19.09C370.712 17.33 371.72 15.845 372.967 14.635C374.25 13.425 375.717 12.5083 377.367 11.885C379.017 11.2617 380.74 10.95 382.537 10.95C384.334 10.95 386.057 11.2617 387.707 11.885C389.357 12.5083 390.805 13.425 392.052 14.635C393.335 15.845 394.344 17.33 395.077 19.09C395.847 20.8133 396.232 22.7933 396.232 25.03V25.69ZM382.537 35.7C383.857 35.7 385.067 35.48 386.167 35.04C387.304 34.5633 388.294 33.885 389.137 33.005C389.98 32.125 390.64 31.08 391.117 29.87C391.594 28.6233 391.832 27.23 391.832 25.69V25.03C391.832 23.5633 391.594 22.225 391.117 21.015C390.64 19.7683 389.98 18.705 389.137 17.825C388.294 16.945 387.304 16.2667 386.167 15.79C385.03 15.2767 383.82 15.02 382.537 15.02C381.254 15.02 380.044 15.2767 378.907 15.79C377.77 16.2667 376.78 16.945 375.937 17.825C375.094 18.705 374.434 19.7683 373.957 21.015C373.48 22.225 373.242 23.5633 373.242 25.03V25.69C373.242 27.23 373.48 28.6233 373.957 29.87C374.434 31.08 375.094 32.125 375.937 33.005C376.78 33.885 377.752 34.5633 378.852 35.04C379.989 35.48 381.217 35.7 382.537 35.7ZM402.629 11.72H412.529V15.35H413.189C413.885 13.8467 414.875 12.7467 416.159 12.05C417.442 11.3167 418.909 10.95 420.559 10.95C423.309 10.95 425.527 11.8483 427.214 13.645C428.9 15.4417 429.799 18.0633 429.909 21.51L425.399 22.17C425.399 19.64 424.794 17.825 423.584 16.725C422.374 15.5883 420.889 15.02 419.129 15.02C417.992 15.02 417.002 15.24 416.159 15.68C415.352 16.12 414.674 16.725 414.124 17.495C413.574 18.265 413.17 19.1633 412.914 20.19C412.657 21.2167 412.529 22.3167 412.529 23.49V35.04H419.459V39H401.969V35.04H408.239V15.68H402.629V11.72ZM458.966 34.82H458.306C457.866 35.6633 457.297 36.3967 456.601 37.02C455.941 37.6433 455.207 38.1567 454.401 38.56C453.631 38.9633 452.806 39.2567 451.926 39.44C451.046 39.66 450.202 39.77 449.396 39.77C447.562 39.77 445.857 39.4583 444.281 38.835C442.704 38.2117 441.311 37.3133 440.101 36.14C438.927 34.9667 437.992 33.5183 437.296 31.795C436.636 30.035 436.306 28.0367 436.306 25.8V24.92C436.306 22.72 436.654 20.7583 437.351 19.035C438.047 17.275 438.982 15.8083 440.156 14.635C441.329 13.425 442.704 12.5083 444.281 11.885C445.857 11.2617 447.526 10.95 449.286 10.95C451.156 10.95 452.897 11.3717 454.511 12.215C456.161 13.0217 457.426 14.2867 458.306 16.01H458.966V0.499997H463.256V39H458.966V34.82ZM449.836 35.7C451.119 35.7 452.311 35.4617 453.411 34.985C454.511 34.5083 455.464 33.83 456.271 32.95C457.114 32.07 457.774 31.025 458.251 29.815C458.727 28.5683 458.966 27.1933 458.966 25.69V25.03C458.966 23.5633 458.727 22.225 458.251 21.015C457.774 19.7683 457.114 18.705 456.271 17.825C455.464 16.945 454.492 16.2667 453.356 15.79C452.256 15.2767 451.082 15.02 449.836 15.02C448.552 15.02 447.342 15.2583 446.206 15.735C445.106 16.2117 444.134 16.89 443.291 17.77C442.484 18.65 441.842 19.695 441.366 20.905C440.926 22.115 440.706 23.4533 440.706 24.92V25.8C440.706 27.34 440.926 28.715 441.366 29.925C441.842 31.135 442.484 32.18 443.291 33.06C444.134 33.9033 445.106 34.5633 446.206 35.04C447.306 35.48 448.516 35.7 449.836 35.7Z" fill="#314455"/>
</svg>
