<svg width="868" height="41" viewBox="0 0 868 41" fill="none" xmlns="http://www.w3.org/2000/svg">
<path d="M5.12215 27.68C5.23215 30.3933 6.07548 32.575 7.65215 34.225C9.22882 35.875 11.4288 36.7 14.2521 36.7C15.5355 36.7 16.6538 36.5533 17.6071 36.26C18.5605 35.9667 19.3671 35.5633 20.0271 35.05C20.7238 34.5367 21.2738 33.95 21.6771 33.29C22.1171 32.5933 22.4655 31.86 22.7221 31.09L26.7922 32.19C26.0222 34.72 24.5921 36.7917 22.5021 38.405C20.4488 39.9817 17.6621 40.77 14.1421 40.77C12.1988 40.77 10.4021 40.44 8.75215 39.78C7.13882 39.0833 5.74548 38.1117 4.57215 36.865C3.39882 35.6183 2.48215 34.1333 1.82215 32.41C1.16215 30.6867 0.832148 28.78 0.832148 26.69V25.37C0.832148 23.4633 1.16215 21.685 1.82215 20.035C2.51882 18.385 3.47215 16.9733 4.68215 15.8C5.89215 14.59 7.30382 13.655 8.91715 12.995C10.5671 12.2983 12.3455 11.95 14.2521 11.95C16.4888 11.95 18.4138 12.3717 20.0271 13.215C21.6771 14.0217 23.0155 15.03 24.0422 16.24C25.1055 17.45 25.8755 18.77 26.3522 20.2C26.8655 21.63 27.1222 22.95 27.1222 24.16V27.68H5.12215ZM14.2521 16.02C13.0421 16.02 11.9055 16.2217 10.8421 16.625C9.81548 16.9917 8.89882 17.5233 8.09215 18.22C7.32215 18.9167 6.68048 19.7417 6.16715 20.695C5.69048 21.6117 5.37882 22.62 5.23215 23.72H22.8321C22.7588 22.5467 22.4655 21.4833 21.9521 20.53C21.4755 19.5767 20.8338 18.77 20.0271 18.11C19.2571 17.45 18.3588 16.9367 17.3321 16.57C16.3421 16.2033 15.3155 16.02 14.2521 16.02ZM39.9539 40H35.6639V12.72H39.9539V17.34H40.6139C42.3006 13.7467 45.2339 11.95 49.4139 11.95C52.5672 11.95 55.0789 12.94 56.9489 14.92C58.8189 16.8633 59.7539 19.7967 59.7539 23.72V40H55.4639V24.6C55.4639 21.74 54.8222 19.595 53.5389 18.165C52.2556 16.735 50.5139 16.02 48.3139 16.02C45.7106 16.02 43.6572 16.9183 42.1539 18.715C40.6872 20.475 39.9539 22.84 39.9539 25.81V40ZM68.4057 12.72H76.9857V1.5H81.2757V12.72H91.8357V16.68H81.2757V34.39C81.2757 35.49 81.7707 36.04 82.7607 36.04H90.5157V40H81.2207C79.974 40 78.9473 39.5967 78.1407 38.79C77.3707 37.9833 76.9857 36.9567 76.9857 35.71V16.68H68.4057V12.72ZM106.152 27.68C106.262 30.3933 107.106 32.575 108.682 34.225C110.259 35.875 112.459 36.7 115.282 36.7C116.566 36.7 117.684 36.5533 118.637 36.26C119.591 35.9667 120.397 35.5633 121.057 35.05C121.754 34.5367 122.304 33.95 122.707 33.29C123.147 32.5933 123.496 31.86 123.752 31.09L127.822 32.19C127.052 34.72 125.622 36.7917 123.532 38.405C121.479 39.9817 118.692 40.77 115.172 40.77C113.229 40.77 111.432 40.44 109.782 39.78C108.169 39.0833 106.776 38.1117 105.602 36.865C104.429 35.6183 103.512 34.1333 102.852 32.41C102.192 30.6867 101.862 28.78 101.862 26.69V25.37C101.862 23.4633 102.192 21.685 102.852 20.035C103.549 18.385 104.502 16.9733 105.712 15.8C106.922 14.59 108.334 13.655 109.947 12.995C111.597 12.2983 113.376 11.95 115.282 11.95C117.519 11.95 119.444 12.3717 121.057 13.215C122.707 14.0217 124.046 15.03 125.072 16.24C126.136 17.45 126.906 18.77 127.382 20.2C127.896 21.63 128.152 22.95 128.152 24.16V27.68H106.152ZM115.282 16.02C114.072 16.02 112.936 16.2217 111.872 16.625C110.846 16.9917 109.929 17.5233 109.122 18.22C108.352 18.9167 107.711 19.7417 107.197 20.695C106.721 21.6117 106.409 22.62 106.262 23.72H123.862C123.789 22.5467 123.496 21.4833 122.982 20.53C122.506 19.5767 121.864 18.77 121.057 18.11C120.287 17.45 119.389 16.9367 118.362 16.57C117.372 16.2033 116.346 16.02 115.282 16.02ZM135.154 12.72H145.054V16.35H145.714C146.411 14.8467 147.401 13.7467 148.684 13.05C149.968 12.3167 151.434 11.95 153.084 11.95C155.834 11.95 158.053 12.8483 159.739 14.645C161.426 16.4417 162.324 19.0633 162.434 22.51L157.924 23.17C157.924 20.64 157.319 18.825 156.109 17.725C154.899 16.5883 153.414 16.02 151.654 16.02C150.518 16.02 149.528 16.24 148.684 16.68C147.878 17.12 147.199 17.725 146.649 18.495C146.099 19.265 145.696 20.1633 145.439 21.19C145.183 22.2167 145.054 23.3167 145.054 24.49V36.04H151.984V40H134.494V36.04H140.764V16.68H135.154V12.72ZM203.113 12.72H211.693V1.5H215.983V12.72H226.543V16.68H215.983V34.39C215.983 35.49 216.478 36.04 217.468 36.04H225.223V40H215.928C214.681 40 213.654 39.5967 212.848 38.79C212.078 37.9833 211.693 36.9567 211.693 35.71V16.68H203.113V12.72ZM246.194 4.58C246.194 3.51666 246.561 2.61833 247.294 1.885C248.064 1.115 248.981 0.729997 250.044 0.729997C251.108 0.729997 252.006 1.115 252.739 1.885C253.509 2.61833 253.894 3.51666 253.894 4.58C253.894 5.64333 253.509 6.56 252.739 7.33C252.006 8.06333 251.108 8.43 250.044 8.43C248.981 8.43 248.064 8.06333 247.294 7.33C246.561 6.56 246.194 5.64333 246.194 4.58ZM238.384 36.04H247.954V16.68H239.374V12.72H252.244V36.04H261.154V40H238.384V36.04ZM297.636 40H293.346V20.42C293.346 19.1367 293.053 18.0917 292.466 17.285C291.88 16.4417 290.945 16.02 289.661 16.02C288.451 16.02 287.461 16.4783 286.691 17.395C285.958 18.275 285.591 19.65 285.591 21.52V40H281.301V20.2C281.301 18.99 280.971 18 280.311 17.23C279.651 16.4233 278.771 16.02 277.671 16.02C276.351 16.02 275.325 16.4967 274.591 17.45C273.895 18.4033 273.546 19.65 273.546 21.19V40H269.256V12.72H273.546V15.69H274.206C274.683 14.4067 275.38 13.4717 276.296 12.885C277.213 12.2617 278.295 11.95 279.541 11.95C280.861 11.95 281.943 12.2983 282.786 12.995C283.666 13.6917 284.271 14.59 284.601 15.69H285.261C286.508 13.1967 288.488 11.95 291.201 11.95C293.255 11.95 294.831 12.61 295.931 13.93C297.068 15.2133 297.636 16.9 297.636 18.99V40ZM308.213 27.68C308.323 30.3933 309.166 32.575 310.743 34.225C312.32 35.875 314.52 36.7 317.343 36.7C318.626 36.7 319.745 36.5533 320.698 36.26C321.651 35.9667 322.458 35.5633 323.118 35.05C323.815 34.5367 324.365 33.95 324.768 33.29C325.208 32.5933 325.556 31.86 325.813 31.09L329.883 32.19C329.113 34.72 327.683 36.7917 325.593 38.405C323.54 39.9817 320.753 40.77 317.233 40.77C315.29 40.77 313.493 40.44 311.843 39.78C310.23 39.0833 308.836 38.1117 307.663 36.865C306.49 35.6183 305.573 34.1333 304.913 32.41C304.253 30.6867 303.923 28.78 303.923 26.69V25.37C303.923 23.4633 304.253 21.685 304.913 20.035C305.61 18.385 306.563 16.9733 307.773 15.8C308.983 14.59 310.395 13.655 312.008 12.995C313.658 12.2983 315.436 11.95 317.343 11.95C319.58 11.95 321.505 12.3717 323.118 13.215C324.768 14.0217 326.106 15.03 327.133 16.24C328.196 17.45 328.966 18.77 329.443 20.2C329.956 21.63 330.213 22.95 330.213 24.16V27.68H308.213ZM317.343 16.02C316.133 16.02 314.996 16.2217 313.933 16.625C312.906 16.9917 311.99 17.5233 311.183 18.22C310.413 18.9167 309.771 19.7417 309.258 20.695C308.781 21.6117 308.47 22.62 308.323 23.72H325.923C325.85 22.5467 325.556 21.4833 325.043 20.53C324.566 19.5767 323.925 18.77 323.118 18.11C322.348 17.45 321.45 16.9367 320.423 16.57C319.433 16.2033 318.406 16.02 317.343 16.02ZM338.48 12.72H346.895V5.79C346.895 4.54333 347.28 3.51667 348.05 2.71C348.856 1.90333 349.883 1.5 351.13 1.5H361.91V5.46H352.67C351.68 5.46 351.185 6.01 351.185 7.11V12.72H362.57V16.68H351.185V40H346.895V16.68H338.48V12.72ZM370.891 12.72H380.791V16.35H381.451C382.148 14.8467 383.138 13.7467 384.421 13.05C385.705 12.3167 387.171 11.95 388.821 11.95C391.571 11.95 393.79 12.8483 395.476 14.645C397.163 16.4417 398.061 19.0633 398.171 22.51L393.661 23.17C393.661 20.64 393.056 18.825 391.846 17.725C390.636 16.5883 389.151 16.02 387.391 16.02C386.255 16.02 385.265 16.24 384.421 16.68C383.615 17.12 382.936 17.725 382.386 18.495C381.836 19.265 381.433 20.1633 381.176 21.19C380.92 22.2167 380.791 23.3167 380.791 24.49V36.04H387.721V40H370.231V36.04H376.501V16.68H370.891V12.72ZM425.908 35.38H425.248C424.368 37.2133 423.14 38.57 421.563 39.45C420.023 40.33 418.392 40.77 416.668 40.77C414.872 40.77 413.203 40.4767 411.663 39.89C410.123 39.2667 408.767 38.3683 407.593 37.195C406.457 35.985 405.558 34.5183 404.898 32.795C404.238 31.0717 403.908 29.0733 403.908 26.8V25.92C403.908 23.6833 404.238 21.7033 404.898 19.98C405.558 18.2567 406.457 16.8083 407.593 15.635C408.767 14.425 410.123 13.5083 411.663 12.885C413.203 12.2617 414.835 11.95 416.558 11.95C418.428 11.95 420.115 12.3717 421.618 13.215C423.158 14.0217 424.368 15.2867 425.248 17.01H425.908V12.72H430.198V34.39C430.198 35.49 430.693 36.04 431.683 36.04H433.058V40H430.143C428.897 40 427.87 39.5967 427.063 38.79C426.293 37.9833 425.908 36.9567 425.908 35.71V35.38ZM417.108 36.7C418.392 36.7 419.565 36.4617 420.628 35.985C421.728 35.5083 422.663 34.83 423.433 33.95C424.203 33.07 424.808 32.025 425.248 30.815C425.688 29.5683 425.908 28.1933 425.908 26.69V26.03C425.908 24.5633 425.688 23.225 425.248 22.015C424.808 20.7683 424.185 19.705 423.378 18.825C422.608 17.945 421.673 17.2667 420.573 16.79C419.51 16.2767 418.355 16.02 417.108 16.02C415.825 16.02 414.652 16.2583 413.588 16.735C412.525 17.2117 411.59 17.89 410.783 18.77C410.013 19.6133 409.408 20.6583 408.968 21.905C408.528 23.115 408.308 24.4533 408.308 25.92V26.8C408.308 29.9167 409.115 32.355 410.728 34.115C412.378 35.8383 414.505 36.7 417.108 36.7ZM466.02 40H461.73V20.42C461.73 19.1367 461.437 18.0917 460.85 17.285C460.263 16.4417 459.328 16.02 458.045 16.02C456.835 16.02 455.845 16.4783 455.075 17.395C454.342 18.275 453.975 19.65 453.975 21.52V40H449.685V20.2C449.685 18.99 449.355 18 448.695 17.23C448.035 16.4233 447.155 16.02 446.055 16.02C444.735 16.02 443.708 16.4967 442.975 17.45C442.278 18.4033 441.93 19.65 441.93 21.19V40H437.64V12.72H441.93V15.69H442.59C443.067 14.4067 443.763 13.4717 444.68 12.885C445.597 12.2617 446.678 11.95 447.925 11.95C449.245 11.95 450.327 12.2983 451.17 12.995C452.05 13.6917 452.655 14.59 452.985 15.69H453.645C454.892 13.1967 456.872 11.95 459.585 11.95C461.638 11.95 463.215 12.61 464.315 13.93C465.452 15.2133 466.02 16.9 466.02 18.99V40ZM476.597 27.68C476.707 30.3933 477.55 32.575 479.127 34.225C480.703 35.875 482.903 36.7 485.727 36.7C487.01 36.7 488.128 36.5533 489.082 36.26C490.035 35.9667 490.842 35.5633 491.502 35.05C492.198 34.5367 492.748 33.95 493.152 33.29C493.592 32.5933 493.94 31.86 494.197 31.09L498.267 32.19C497.497 34.72 496.067 36.7917 493.977 38.405C491.923 39.9817 489.137 40.77 485.617 40.77C483.673 40.77 481.877 40.44 480.227 39.78C478.613 39.0833 477.22 38.1117 476.047 36.865C474.873 35.6183 473.957 34.1333 473.297 32.41C472.637 30.6867 472.307 28.78 472.307 26.69V25.37C472.307 23.4633 472.637 21.685 473.297 20.035C473.993 18.385 474.947 16.9733 476.157 15.8C477.367 14.59 478.778 13.655 480.392 12.995C482.042 12.2983 483.82 11.95 485.727 11.95C487.963 11.95 489.888 12.3717 491.502 13.215C493.152 14.0217 494.49 15.03 495.517 16.24C496.58 17.45 497.35 18.77 497.827 20.2C498.34 21.63 498.597 22.95 498.597 24.16V27.68H476.597ZM485.727 16.02C484.517 16.02 483.38 16.2217 482.317 16.625C481.29 16.9917 480.373 17.5233 479.567 18.22C478.797 18.9167 478.155 19.7417 477.642 20.695C477.165 21.6117 476.853 22.62 476.707 23.72H494.307C494.233 22.5467 493.94 21.4833 493.427 20.53C492.95 19.5767 492.308 18.77 491.502 18.11C490.732 17.45 489.833 16.9367 488.807 16.57C487.817 16.2033 486.79 16.02 485.727 16.02ZM549.285 4.58C549.285 3.51666 549.652 2.61833 550.385 1.885C551.155 1.115 552.072 0.729997 553.135 0.729997C554.199 0.729997 555.097 1.115 555.83 1.885C556.6 2.61833 556.985 3.51666 556.985 4.58C556.985 5.64333 556.6 6.56 555.83 7.33C555.097 8.06333 554.199 8.43 553.135 8.43C552.072 8.43 551.155 8.06333 550.385 7.33C549.652 6.56 549.285 5.64333 549.285 4.58ZM541.475 36.04H551.045V16.68H542.465V12.72H555.335V36.04H564.245V40H541.475V36.04ZM578.782 40H574.492V12.72H578.782V17.34H579.442C581.129 13.7467 584.062 11.95 588.242 11.95C591.395 11.95 593.907 12.94 595.777 14.92C597.647 16.8633 598.582 19.7967 598.582 23.72V40H594.292V24.6C594.292 21.74 593.65 19.595 592.367 18.165C591.084 16.735 589.342 16.02 587.142 16.02C584.539 16.02 582.485 16.9183 580.982 18.715C579.515 20.475 578.782 22.84 578.782 25.81V40ZM668.081 40H663.791V20.42C663.791 19.1367 663.497 18.0917 662.911 17.285C662.324 16.4417 661.389 16.02 660.106 16.02C658.896 16.02 657.906 16.4783 657.136 17.395C656.402 18.275 656.036 19.65 656.036 21.52V40H651.746V20.2C651.746 18.99 651.416 18 650.756 17.23C650.096 16.4233 649.216 16.02 648.116 16.02C646.796 16.02 645.769 16.4967 645.036 17.45C644.339 18.4033 643.991 19.65 643.991 21.19V40H639.701V12.72H643.991V15.69H644.651C645.127 14.4067 645.824 13.4717 646.741 12.885C647.657 12.2617 648.739 11.95 649.986 11.95C651.306 11.95 652.387 12.2983 653.231 12.995C654.111 13.6917 654.716 14.59 655.046 15.69H655.706C656.952 13.1967 658.932 11.95 661.646 11.95C663.699 11.95 665.276 12.61 666.376 13.93C667.512 15.2133 668.081 16.9 668.081 18.99V40ZM683.992 4.58C683.992 3.51666 684.359 2.61833 685.092 1.885C685.862 1.115 686.779 0.729997 687.842 0.729997C688.906 0.729997 689.804 1.115 690.537 1.885C691.307 2.61833 691.692 3.51666 691.692 4.58C691.692 5.64333 691.307 6.56 690.537 7.33C689.804 8.06333 688.906 8.43 687.842 8.43C686.779 8.43 685.862 8.06333 685.092 7.33C684.359 6.56 683.992 5.64333 683.992 4.58ZM676.182 36.04H685.752V16.68H677.172V12.72H690.042V36.04H698.952V40H676.182V36.04ZM713.489 40H709.199V12.72H713.489V17.34H714.149C715.836 13.7467 718.769 11.95 722.949 11.95C726.102 11.95 728.614 12.94 730.484 14.92C732.354 16.8633 733.289 19.7967 733.289 23.72V40H728.999V24.6C728.999 21.74 728.357 19.595 727.074 18.165C725.791 16.735 724.049 16.02 721.849 16.02C719.246 16.02 717.192 16.9183 715.689 18.715C714.222 20.475 713.489 22.84 713.489 25.81V40ZM762.346 12.72H766.636V40H762.346V35.05H761.686C760.806 36.81 759.651 38.2033 758.221 39.23C756.791 40.2567 754.976 40.77 752.776 40.77C751.272 40.77 749.879 40.5133 748.596 40C747.349 39.5233 746.267 38.79 745.351 37.8C744.471 36.81 743.774 35.5817 743.261 34.115C742.784 32.6483 742.546 30.9433 742.546 29V12.72H746.836V28.45C746.836 31.31 747.422 33.4 748.596 34.72C749.769 36.04 751.566 36.7 753.986 36.7C756.589 36.7 758.624 35.82 760.091 34.06C761.594 32.2633 762.346 29.88 762.346 26.91V12.72ZM775.618 12.72H784.198V1.5H788.488V12.72H799.048V16.68H788.488V34.39C788.488 35.49 788.983 36.04 789.973 36.04H797.728V40H788.433C787.186 40 786.159 39.5967 785.353 38.79C784.583 37.9833 784.198 36.9567 784.198 35.71V16.68H775.618V12.72ZM813.364 27.68C813.474 30.3933 814.318 32.575 815.894 34.225C817.471 35.875 819.671 36.7 822.494 36.7C823.778 36.7 824.896 36.5533 825.849 36.26C826.803 35.9667 827.609 35.5633 828.269 35.05C828.966 34.5367 829.516 33.95 829.919 33.29C830.359 32.5933 830.708 31.86 830.964 31.09L835.034 32.19C834.264 34.72 832.834 36.7917 830.744 38.405C828.691 39.9817 825.904 40.77 822.384 40.77C820.441 40.77 818.644 40.44 816.994 39.78C815.381 39.0833 813.988 38.1117 812.814 36.865C811.641 35.6183 810.724 34.1333 810.064 32.41C809.404 30.6867 809.074 28.78 809.074 26.69V25.37C809.074 23.4633 809.404 21.685 810.064 20.035C810.761 18.385 811.714 16.9733 812.924 15.8C814.134 14.59 815.546 13.655 817.159 12.995C818.809 12.2983 820.588 11.95 822.494 11.95C824.731 11.95 826.656 12.3717 828.269 13.215C829.919 14.0217 831.258 15.03 832.284 16.24C833.348 17.45 834.118 18.77 834.594 20.2C835.108 21.63 835.364 22.95 835.364 24.16V27.68H813.364ZM822.494 16.02C821.284 16.02 820.148 16.2217 819.084 16.625C818.058 16.9917 817.141 17.5233 816.334 18.22C815.564 18.9167 814.923 19.7417 814.409 20.695C813.933 21.6117 813.621 22.62 813.474 23.72H831.074C831.001 22.5467 830.708 21.4833 830.194 20.53C829.718 19.5767 829.076 18.77 828.269 18.11C827.499 17.45 826.601 16.9367 825.574 16.57C824.584 16.2033 823.558 16.02 822.494 16.02ZM849.571 19.76C849.571 21.08 850.121 22.0883 851.221 22.785C852.358 23.4817 854.411 23.94 857.381 24.16C860.571 24.4167 862.991 25.1867 864.641 26.47C866.328 27.7167 867.171 29.55 867.171 31.97V32.3C867.171 33.62 866.896 34.8117 866.346 35.875C865.833 36.9017 865.099 37.7817 864.146 38.515C863.229 39.2483 862.093 39.7983 860.736 40.165C859.416 40.5683 857.968 40.77 856.391 40.77C854.264 40.77 852.431 40.495 850.891 39.945C849.388 39.3583 848.123 38.6067 847.096 37.69C846.106 36.7367 845.354 35.6733 844.841 34.5C844.328 33.29 844.034 32.08 843.961 30.87L848.031 29.88C848.214 31.97 849.021 33.6567 850.451 34.94C851.881 36.1867 853.788 36.81 856.171 36.81C858.188 36.81 859.801 36.425 861.011 35.655C862.258 34.8483 862.881 33.73 862.881 32.3C862.881 30.76 862.276 29.66 861.066 29C859.856 28.34 857.894 27.9183 855.181 27.735C852.028 27.515 849.608 26.7817 847.921 25.535C846.234 24.2883 845.391 22.4733 845.391 20.09V19.76C845.391 18.4767 845.666 17.3583 846.216 16.405C846.766 15.415 847.499 14.59 848.416 13.93C849.369 13.27 850.433 12.775 851.606 12.445C852.779 12.115 854.008 11.95 855.291 11.95C857.088 11.95 858.664 12.2067 860.021 12.72C861.378 13.1967 862.514 13.8383 863.431 14.645C864.348 15.415 865.044 16.3133 865.521 17.34C866.034 18.3667 866.364 19.3933 866.511 20.42L862.441 21.41C862.258 19.65 861.543 18.275 860.296 17.285C859.086 16.295 857.491 15.8 855.511 15.8C854.741 15.8 853.989 15.8917 853.256 16.075C852.559 16.2217 851.936 16.46 851.386 16.79C850.836 17.12 850.396 17.5417 850.066 18.055C849.736 18.5317 849.571 19.1 849.571 19.76Z" fill="#314455"/>
</svg>
