<svg width="463" height="40" viewBox="0 0 463 40" fill="none" xmlns="http://www.w3.org/2000/svg">
<path d="M0.432696 0.499997H23.7527V4.79H5.0527V17.55H23.4227V21.84H5.0527V34.71H24.0827V39H0.432696V0.499997ZM38.0145 39H33.7245V11.72H38.0145V16.34H38.6745C40.3611 12.7467 43.2945 10.95 47.4745 10.95C50.6278 10.95 53.1395 11.94 55.0095 13.92C56.8795 15.8633 57.8145 18.7967 57.8145 22.72V39H53.5245V23.6C53.5245 20.74 52.8828 18.595 51.5995 17.165C50.3161 15.735 48.5745 15.02 46.3745 15.02C43.7711 15.02 41.7178 15.9183 40.2145 17.715C38.7478 19.475 38.0145 21.84 38.0145 24.81V39ZM66.4662 11.72H75.0462V0.499997H79.3362V11.72H89.8962V15.68H79.3362V33.39C79.3362 34.49 79.8312 35.04 80.8212 35.04H88.5762V39H79.2812C78.0345 39 77.0079 38.5967 76.2012 37.79C75.4312 36.9833 75.0462 35.9567 75.0462 34.71V15.68H66.4662V11.72ZM104.213 26.68C104.323 29.3933 105.166 31.575 106.743 33.225C108.32 34.875 110.52 35.7 113.343 35.7C114.626 35.7 115.745 35.5533 116.698 35.26C117.651 34.9667 118.458 34.5633 119.118 34.05C119.815 33.5367 120.365 32.95 120.768 32.29C121.208 31.5933 121.556 30.86 121.813 30.09L125.883 31.19C125.113 33.72 123.683 35.7917 121.593 37.405C119.54 38.9817 116.753 39.77 113.233 39.77C111.29 39.77 109.493 39.44 107.843 38.78C106.23 38.0833 104.836 37.1117 103.663 35.865C102.49 34.6183 101.573 33.1333 100.913 31.41C100.253 29.6867 99.923 27.78 99.923 25.69V24.37C99.923 22.4633 100.253 20.685 100.913 19.035C101.61 17.385 102.563 15.9733 103.773 14.8C104.983 13.59 106.395 12.655 108.008 11.995C109.658 11.2983 111.436 10.95 113.343 10.95C115.58 10.95 117.505 11.3717 119.118 12.215C120.768 13.0217 122.106 14.03 123.133 15.24C124.196 16.45 124.966 17.77 125.443 19.2C125.956 20.63 126.213 21.95 126.213 23.16V26.68H104.213ZM113.343 15.02C112.133 15.02 110.996 15.2217 109.933 15.625C108.906 15.9917 107.99 16.5233 107.183 17.22C106.413 17.9167 105.771 18.7417 105.258 19.695C104.781 20.6117 104.47 21.62 104.323 22.72H121.923C121.85 21.5467 121.556 20.4833 121.043 19.53C120.566 18.5767 119.925 17.77 119.118 17.11C118.348 16.45 117.45 15.9367 116.423 15.57C115.433 15.2033 114.406 15.02 113.343 15.02ZM133.215 11.72H143.115V15.35H143.775C144.471 13.8467 145.461 12.7467 146.745 12.05C148.028 11.3167 149.495 10.95 151.145 10.95C153.895 10.95 156.113 11.8483 157.8 13.645C159.486 15.4417 160.385 18.0633 160.495 21.51L155.985 22.17C155.985 19.64 155.38 17.825 154.17 16.725C152.96 15.5883 151.475 15.02 149.715 15.02C148.578 15.02 147.588 15.24 146.745 15.68C145.938 16.12 145.26 16.725 144.71 17.495C144.16 18.265 143.756 19.1633 143.5 20.19C143.243 21.2167 143.115 22.3167 143.115 23.49V35.04H150.045V39H132.555V35.04H138.825V15.68H133.215V11.72ZM205.573 0.499997V26.02C205.573 29.1367 206.288 31.5017 207.718 33.115C209.185 34.6917 211.33 35.48 214.153 35.48C216.977 35.48 219.103 34.6917 220.533 33.115C222 31.5017 222.733 29.1367 222.733 26.02V0.499997H227.353V26.02C227.353 30.4933 226.18 33.9033 223.833 36.25C221.487 38.5967 218.26 39.77 214.153 39.77C210.047 39.77 206.82 38.5967 204.473 36.25C202.127 33.9033 200.953 30.4933 200.953 26.02V0.499997H205.573ZM241.45 18.76C241.45 20.08 242 21.0883 243.1 21.785C244.237 22.4817 246.29 22.94 249.26 23.16C252.45 23.4167 254.87 24.1867 256.52 25.47C258.207 26.7167 259.05 28.55 259.05 30.97V31.3C259.05 32.62 258.775 33.8117 258.225 34.875C257.712 35.9017 256.978 36.7817 256.025 37.515C255.108 38.2483 253.972 38.7983 252.615 39.165C251.295 39.5683 249.847 39.77 248.27 39.77C246.143 39.77 244.31 39.495 242.77 38.945C241.267 38.3583 240.002 37.6067 238.975 36.69C237.985 35.7367 237.233 34.6733 236.72 33.5C236.207 32.29 235.913 31.08 235.84 29.87L239.91 28.88C240.093 30.97 240.9 32.6567 242.33 33.94C243.76 35.1867 245.667 35.81 248.05 35.81C250.067 35.81 251.68 35.425 252.89 34.655C254.137 33.8483 254.76 32.73 254.76 31.3C254.76 29.76 254.155 28.66 252.945 28C251.735 27.34 249.773 26.9183 247.06 26.735C243.907 26.515 241.487 25.7817 239.8 24.535C238.113 23.2883 237.27 21.4733 237.27 19.09V18.76C237.27 17.4767 237.545 16.3583 238.095 15.405C238.645 14.415 239.378 13.59 240.295 12.93C241.248 12.27 242.312 11.775 243.485 11.445C244.658 11.115 245.887 10.95 247.17 10.95C248.967 10.95 250.543 11.2067 251.9 11.72C253.257 12.1967 254.393 12.8383 255.31 13.645C256.227 14.415 256.923 15.3133 257.4 16.34C257.913 17.3667 258.243 18.3933 258.39 19.42L254.32 20.41C254.137 18.65 253.422 17.275 252.175 16.285C250.965 15.295 249.37 14.8 247.39 14.8C246.62 14.8 245.868 14.8917 245.135 15.075C244.438 15.2217 243.815 15.46 243.265 15.79C242.715 16.12 242.275 16.5417 241.945 17.055C241.615 17.5317 241.45 18.1 241.45 18.76ZM272.597 26.68C272.707 29.3933 273.55 31.575 275.127 33.225C276.703 34.875 278.903 35.7 281.727 35.7C283.01 35.7 284.128 35.5533 285.082 35.26C286.035 34.9667 286.842 34.5633 287.502 34.05C288.198 33.5367 288.748 32.95 289.152 32.29C289.592 31.5933 289.94 30.86 290.197 30.09L294.267 31.19C293.497 33.72 292.067 35.7917 289.977 37.405C287.923 38.9817 285.137 39.77 281.617 39.77C279.673 39.77 277.877 39.44 276.227 38.78C274.613 38.0833 273.22 37.1117 272.047 35.865C270.873 34.6183 269.957 33.1333 269.297 31.41C268.637 29.6867 268.307 27.78 268.307 25.69V24.37C268.307 22.4633 268.637 20.685 269.297 19.035C269.993 17.385 270.947 15.9733 272.157 14.8C273.367 13.59 274.778 12.655 276.392 11.995C278.042 11.2983 279.82 10.95 281.727 10.95C283.963 10.95 285.888 11.3717 287.502 12.215C289.152 13.0217 290.49 14.03 291.517 15.24C292.58 16.45 293.35 17.77 293.827 19.2C294.34 20.63 294.597 21.95 294.597 23.16V26.68H272.597ZM281.727 15.02C280.517 15.02 279.38 15.2217 278.317 15.625C277.29 15.9917 276.373 16.5233 275.567 17.22C274.797 17.9167 274.155 18.7417 273.642 19.695C273.165 20.6117 272.853 21.62 272.707 22.72H290.307C290.233 21.5467 289.94 20.4833 289.427 19.53C288.95 18.5767 288.308 17.77 287.502 17.11C286.732 16.45 285.833 15.9367 284.807 15.57C283.817 15.2033 282.79 15.02 281.727 15.02ZM301.599 11.72H311.499V15.35H312.159C312.855 13.8467 313.845 12.7467 315.129 12.05C316.412 11.3167 317.879 10.95 319.529 10.95C322.279 10.95 324.497 11.8483 326.184 13.645C327.87 15.4417 328.769 18.0633 328.879 21.51L324.369 22.17C324.369 19.64 323.764 17.825 322.554 16.725C321.344 15.5883 319.859 15.02 318.099 15.02C316.962 15.02 315.972 15.24 315.129 15.68C314.322 16.12 313.644 16.725 313.094 17.495C312.544 18.265 312.14 19.1633 311.884 20.19C311.627 21.2167 311.499 22.3167 311.499 23.49V35.04H318.429V39H300.939V35.04H307.209V15.68H301.599V11.72ZM341.105 39H336.815V11.72H341.105V16.34H341.765C343.452 12.7467 346.385 10.95 350.565 10.95C353.719 10.95 356.23 11.94 358.1 13.92C359.97 15.8633 360.905 18.7967 360.905 22.72V39H356.615V23.6C356.615 20.74 355.974 18.595 354.69 17.165C353.407 15.735 351.665 15.02 349.465 15.02C346.862 15.02 344.809 15.9183 343.305 17.715C341.839 19.475 341.105 21.84 341.105 24.81V39ZM390.292 34.38H389.632C388.752 36.2133 387.524 37.57 385.947 38.45C384.407 39.33 382.775 39.77 381.052 39.77C379.255 39.77 377.587 39.4767 376.047 38.89C374.507 38.2667 373.15 37.3683 371.977 36.195C370.84 34.985 369.942 33.5183 369.282 31.795C368.622 30.0717 368.292 28.0733 368.292 25.8V24.92C368.292 22.6833 368.622 20.7033 369.282 18.98C369.942 17.2567 370.84 15.8083 371.977 14.635C373.15 13.425 374.507 12.5083 376.047 11.885C377.587 11.2617 379.219 10.95 380.942 10.95C382.812 10.95 384.499 11.3717 386.002 12.215C387.542 13.0217 388.752 14.2867 389.632 16.01H390.292V11.72H394.582V33.39C394.582 34.49 395.077 35.04 396.067 35.04H397.442V39H394.527C393.28 39 392.254 38.5967 391.447 37.79C390.677 36.9833 390.292 35.9567 390.292 34.71V34.38ZM381.492 35.7C382.775 35.7 383.949 35.4617 385.012 34.985C386.112 34.5083 387.047 33.83 387.817 32.95C388.587 32.07 389.192 31.025 389.632 29.815C390.072 28.5683 390.292 27.1933 390.292 25.69V25.03C390.292 23.5633 390.072 22.225 389.632 21.015C389.192 19.7683 388.569 18.705 387.762 17.825C386.992 16.945 386.057 16.2667 384.957 15.79C383.894 15.2767 382.739 15.02 381.492 15.02C380.209 15.02 379.035 15.2583 377.972 15.735C376.909 16.2117 375.974 16.89 375.167 17.77C374.397 18.6133 373.792 19.6583 373.352 20.905C372.912 22.115 372.692 23.4533 372.692 24.92V25.8C372.692 28.9167 373.499 31.355 375.112 33.115C376.762 34.8383 378.889 35.7 381.492 35.7ZM430.404 39H426.114V19.42C426.114 18.1367 425.82 17.0917 425.234 16.285C424.647 15.4417 423.712 15.02 422.429 15.02C421.219 15.02 420.229 15.4783 419.459 16.395C418.725 17.275 418.359 18.65 418.359 20.52V39H414.069V19.2C414.069 17.99 413.739 17 413.079 16.23C412.419 15.4233 411.539 15.02 410.439 15.02C409.119 15.02 408.092 15.4967 407.359 16.45C406.662 17.4033 406.314 18.65 406.314 20.19V39H402.024V11.72H406.314V14.69H406.974C407.45 13.4067 408.147 12.4717 409.064 11.885C409.98 11.2617 411.062 10.95 412.309 10.95C413.629 10.95 414.71 11.2983 415.554 11.995C416.434 12.6917 417.039 13.59 417.369 14.69H418.029C419.275 12.1967 421.255 10.95 423.969 10.95C426.022 10.95 427.599 11.61 428.699 12.93C429.835 14.2133 430.404 15.9 430.404 17.99V39ZM440.981 26.68C441.091 29.3933 441.934 31.575 443.511 33.225C445.087 34.875 447.287 35.7 450.111 35.7C451.394 35.7 452.512 35.5533 453.466 35.26C454.419 34.9667 455.226 34.5633 455.886 34.05C456.582 33.5367 457.132 32.95 457.536 32.29C457.976 31.5933 458.324 30.86 458.581 30.09L462.651 31.19C461.881 33.72 460.451 35.7917 458.361 37.405C456.307 38.9817 453.521 39.77 450.001 39.77C448.057 39.77 446.261 39.44 444.611 38.78C442.997 38.0833 441.604 37.1117 440.431 35.865C439.257 34.6183 438.341 33.1333 437.681 31.41C437.021 29.6867 436.691 27.78 436.691 25.69V24.37C436.691 22.4633 437.021 20.685 437.681 19.035C438.377 17.385 439.331 15.9733 440.541 14.8C441.751 13.59 443.162 12.655 444.776 11.995C446.426 11.2983 448.204 10.95 450.111 10.95C452.347 10.95 454.272 11.3717 455.886 12.215C457.536 13.0217 458.874 14.03 459.901 15.24C460.964 16.45 461.734 17.77 462.211 19.2C462.724 20.63 462.981 21.95 462.981 23.16V26.68H440.981ZM450.111 15.02C448.901 15.02 447.764 15.2217 446.701 15.625C445.674 15.9917 444.757 16.5233 443.951 17.22C443.181 17.9167 442.539 18.7417 442.026 19.695C441.549 20.6117 441.237 21.62 441.091 22.72H458.691C458.617 21.5467 458.324 20.4833 457.811 19.53C457.334 18.5767 456.692 17.77 455.886 17.11C455.116 16.45 454.217 15.9367 453.191 15.57C452.201 15.2033 451.174 15.02 450.111 15.02Z" fill="#314455"/>
</svg>
