<svg width="630" height="150" viewBox="0 0 630 150" fill="none" xmlns="http://www.w3.org/2000/svg">
<rect width="630" height="150" fill="#9E5A63"/>
<path d="M247.828 72.528H264.052V90H259.996V85.632H259.372C258.783 87.1573 257.743 88.388 256.252 89.324C254.762 90.26 253.028 90.728 251.052 90.728C247.135 90.728 244.05 89.4627 241.796 86.932C239.578 84.4013 238.468 80.7093 238.468 75.856V67.744C238.468 63.0293 239.595 59.372 241.848 56.772C244.102 54.172 247.239 52.872 251.26 52.872C253.34 52.872 255.178 53.2187 256.772 53.912C258.367 54.5707 259.702 55.5067 260.776 56.72C261.851 57.8987 262.666 59.3027 263.22 60.932C263.775 62.5267 264.052 64.2427 264.052 66.08V66.704H259.684V66.08C259.684 64.9013 259.511 63.7573 259.164 62.648C258.852 61.5387 258.35 60.568 257.656 59.736C256.998 58.8693 256.131 58.1933 255.056 57.708C254.016 57.188 252.751 56.928 251.26 56.928C248.452 56.928 246.338 57.9507 244.916 59.996C243.53 62.0413 242.836 64.728 242.836 68.056V75.544C242.836 79.1147 243.53 81.8707 244.916 83.812C246.338 85.7187 248.487 86.672 251.364 86.672C253.964 86.672 255.992 85.84 257.448 84.176C258.939 82.512 259.684 80.1893 259.684 77.208V76.584H247.828V72.528ZM290.172 64.208H294.228V90H290.172V85.32H289.548C288.716 86.984 287.624 88.3013 286.272 89.272C284.92 90.2427 283.204 90.728 281.124 90.728C279.703 90.728 278.386 90.4853 277.172 90C275.994 89.5493 274.971 88.856 274.104 87.92C273.272 86.984 272.614 85.8227 272.128 84.436C271.678 83.0493 271.452 81.4373 271.452 79.6V64.208H275.508V79.08C275.508 81.784 276.063 83.76 277.172 85.008C278.282 86.256 279.98 86.88 282.268 86.88C284.73 86.88 286.654 86.048 288.04 84.384C289.462 82.6853 290.172 80.432 290.172 77.624V64.208ZM306.568 78.352C306.672 80.9173 307.469 82.98 308.96 84.54C310.451 86.1 312.531 86.88 315.2 86.88C316.413 86.88 317.471 86.7413 318.372 86.464C319.273 86.1867 320.036 85.8053 320.66 85.32C321.319 84.8347 321.839 84.28 322.22 83.656C322.636 82.9973 322.965 82.304 323.208 81.576L327.056 82.616C326.328 85.008 324.976 86.9667 323 88.492C321.059 89.9827 318.424 90.728 315.096 90.728C313.259 90.728 311.56 90.416 310 89.792C308.475 89.1333 307.157 88.2147 306.048 87.036C304.939 85.8573 304.072 84.4533 303.448 82.824C302.824 81.1947 302.512 79.392 302.512 77.416V76.168C302.512 74.3653 302.824 72.684 303.448 71.124C304.107 69.564 305.008 68.2293 306.152 67.12C307.296 65.976 308.631 65.092 310.156 64.468C311.716 63.8093 313.397 63.48 315.2 63.48C317.315 63.48 319.135 63.8787 320.66 64.676C322.22 65.4387 323.485 66.392 324.456 67.536C325.461 68.68 326.189 69.928 326.64 71.28C327.125 72.632 327.368 73.88 327.368 75.024V78.352H306.568ZM315.2 67.328C314.056 67.328 312.981 67.5187 311.976 67.9C311.005 68.2467 310.139 68.7493 309.376 69.408C308.648 70.0667 308.041 70.8467 307.556 71.748C307.105 72.6147 306.811 73.568 306.672 74.608H323.312C323.243 73.4987 322.965 72.4933 322.48 71.592C322.029 70.6907 321.423 69.928 320.66 69.304C319.932 68.68 319.083 68.1947 318.112 67.848C317.176 67.5013 316.205 67.328 315.2 67.328ZM340.8 70.864C340.8 72.112 341.32 73.0653 342.36 73.724C343.435 74.3827 345.376 74.816 348.184 75.024C351.2 75.2667 353.488 75.9947 355.048 77.208C356.643 78.3867 357.44 80.12 357.44 82.408V82.72C357.44 83.968 357.18 85.0947 356.66 86.1C356.175 87.0707 355.481 87.9027 354.58 88.596C353.713 89.2893 352.639 89.8093 351.356 90.156C350.108 90.5373 348.739 90.728 347.248 90.728C345.237 90.728 343.504 90.468 342.048 89.948C340.627 89.3933 339.431 88.6827 338.46 87.816C337.524 86.9147 336.813 85.9093 336.328 84.8C335.843 83.656 335.565 82.512 335.496 81.368L339.344 80.432C339.517 82.408 340.28 84.0027 341.632 85.216C342.984 86.3947 344.787 86.984 347.04 86.984C348.947 86.984 350.472 86.62 351.616 85.892C352.795 85.1293 353.384 84.072 353.384 82.72C353.384 81.264 352.812 80.224 351.668 79.6C350.524 78.976 348.669 78.5773 346.104 78.404C343.123 78.196 340.835 77.5027 339.24 76.324C337.645 75.1453 336.848 73.4293 336.848 71.176V70.864C336.848 69.6507 337.108 68.5933 337.628 67.692C338.148 66.756 338.841 65.976 339.708 65.352C340.609 64.728 341.615 64.26 342.724 63.948C343.833 63.636 344.995 63.48 346.208 63.48C347.907 63.48 349.397 63.7227 350.68 64.208C351.963 64.6587 353.037 65.2653 353.904 66.028C354.771 66.756 355.429 67.6053 355.88 68.576C356.365 69.5467 356.677 70.5173 356.816 71.488L352.968 72.424C352.795 70.76 352.119 69.46 350.94 68.524C349.796 67.588 348.288 67.12 346.416 67.12C345.688 67.12 344.977 67.2067 344.284 67.38C343.625 67.5187 343.036 67.744 342.516 68.056C341.996 68.368 341.58 68.7667 341.268 69.252C340.956 69.7027 340.8 70.24 340.8 70.864ZM366.4 64.208H374.512V53.6H378.568V64.208H388.552V67.952H378.568V84.696C378.568 85.736 379.036 86.256 379.972 86.256H387.304V90H378.516C377.337 90 376.366 89.6187 375.604 88.856C374.876 88.0933 374.512 87.1227 374.512 85.944V67.952H366.4V64.208Z" fill="white"/>
</svg>
