<svg width="598" height="51" viewBox="0 0 598 51" fill="none" xmlns="http://www.w3.org/2000/svg">
<path d="M4.82918 27.68C4.93918 30.3933 5.78251 32.575 7.35918 34.225C8.93585 35.875 11.1358 36.7 13.9592 36.7C15.2425 36.7 16.3608 36.5533 17.3142 36.26C18.2675 35.9667 19.0742 35.5633 19.7342 35.05C20.4308 34.5367 20.9808 33.95 21.3842 33.29C21.8242 32.5933 22.1725 31.86 22.4292 31.09L26.4992 32.19C25.7292 34.72 24.2992 36.7917 22.2092 38.405C20.1558 39.9817 17.3692 40.77 13.8492 40.77C11.9058 40.77 10.1092 40.44 8.45918 39.78C6.84585 39.0833 5.45251 38.1117 4.27918 36.865C3.10585 35.6183 2.18918 34.1333 1.52918 32.41C0.86918 30.6867 0.53918 28.78 0.53918 26.69V25.37C0.53918 23.4633 0.86918 21.685 1.52918 20.035C2.22585 18.385 3.17918 16.9733 4.38918 15.8C5.59918 14.59 7.01085 13.655 8.62418 12.995C10.2742 12.2983 12.0525 11.95 13.9592 11.95C16.1958 11.95 18.1208 12.3717 19.7342 13.215C21.3842 14.0217 22.7225 15.03 23.7492 16.24C24.8125 17.45 25.5825 18.77 26.0592 20.2C26.5725 21.63 26.8292 22.95 26.8292 24.16V27.68H4.82918ZM13.9592 16.02C12.7492 16.02 11.6125 16.2217 10.5492 16.625C9.52251 16.9917 8.60585 17.5233 7.79918 18.22C7.02918 18.9167 6.38751 19.7417 5.87418 20.695C5.39751 21.6117 5.08585 22.62 4.93918 23.72H22.5392C22.4658 22.5467 22.1725 21.4833 21.6592 20.53C21.1825 19.5767 20.5408 18.77 19.7342 18.11C18.9642 17.45 18.0658 16.9367 17.0392 16.57C16.0492 16.2033 15.0225 16.02 13.9592 16.02ZM39.6609 40H35.3709V12.72H39.6609V17.34H40.3209C42.0076 13.7467 44.9409 11.95 49.1209 11.95C52.2743 11.95 54.7859 12.94 56.6559 14.92C58.5259 16.8633 59.4609 19.7967 59.4609 23.72V40H55.1709V24.6C55.1709 21.74 54.5293 19.595 53.2459 18.165C51.9626 16.735 50.2209 16.02 48.0209 16.02C45.4176 16.02 43.3643 16.9183 41.8609 18.715C40.3943 20.475 39.6609 22.84 39.6609 25.81V40ZM68.1127 12.72H76.6927V1.5H80.9827V12.72H91.5427V16.68H80.9827V34.39C80.9827 35.49 81.4777 36.04 82.4677 36.04H90.2227V40H80.9277C79.681 40 78.6544 39.5967 77.8477 38.79C77.0777 37.9833 76.6927 36.9567 76.6927 35.71V16.68H68.1127V12.72ZM105.859 27.68C105.969 30.3933 106.813 32.575 108.389 34.225C109.966 35.875 112.166 36.7 114.989 36.7C116.273 36.7 117.391 36.5533 118.344 36.26C119.298 35.9667 120.104 35.5633 120.764 35.05C121.461 34.5367 122.011 33.95 122.414 33.29C122.854 32.5933 123.203 31.86 123.459 31.09L127.529 32.19C126.759 34.72 125.329 36.7917 123.239 38.405C121.186 39.9817 118.399 40.77 114.879 40.77C112.936 40.77 111.139 40.44 109.489 39.78C107.876 39.0833 106.483 38.1117 105.309 36.865C104.136 35.6183 103.219 34.1333 102.559 32.41C101.899 30.6867 101.569 28.78 101.569 26.69V25.37C101.569 23.4633 101.899 21.685 102.559 20.035C103.256 18.385 104.209 16.9733 105.419 15.8C106.629 14.59 108.041 13.655 109.654 12.995C111.304 12.2983 113.083 11.95 114.989 11.95C117.226 11.95 119.151 12.3717 120.764 13.215C122.414 14.0217 123.753 15.03 124.779 16.24C125.843 17.45 126.613 18.77 127.089 20.2C127.603 21.63 127.859 22.95 127.859 24.16V27.68H105.859ZM114.989 16.02C113.779 16.02 112.643 16.2217 111.579 16.625C110.553 16.9917 109.636 17.5233 108.829 18.22C108.059 18.9167 107.418 19.7417 106.904 20.695C106.428 21.6117 106.116 22.62 105.969 23.72H123.569C123.496 22.5467 123.203 21.4833 122.689 20.53C122.213 19.5767 121.571 18.77 120.764 18.11C119.994 17.45 119.096 16.9367 118.069 16.57C117.079 16.2033 116.053 16.02 114.989 16.02ZM134.861 12.72H144.761V16.35H145.421C146.118 14.8467 147.108 13.7467 148.391 13.05C149.675 12.3167 151.141 11.95 152.791 11.95C155.541 11.95 157.76 12.8483 159.446 14.645C161.133 16.4417 162.031 19.0633 162.141 22.51L157.631 23.17C157.631 20.64 157.026 18.825 155.816 17.725C154.606 16.5883 153.121 16.02 151.361 16.02C150.225 16.02 149.235 16.24 148.391 16.68C147.585 17.12 146.906 17.725 146.356 18.495C145.806 19.265 145.403 20.1633 145.146 21.19C144.89 22.2167 144.761 23.3167 144.761 24.49V36.04H151.691V40H134.201V36.04H140.471V16.68H134.861V12.72ZM224.49 35.82H223.83C222.95 37.47 221.74 38.7167 220.2 39.56C218.696 40.3667 217.046 40.77 215.25 40.77C213.416 40.77 211.693 40.4583 210.08 39.835C208.466 39.2117 207.036 38.3133 205.79 37.14C204.58 35.9667 203.608 34.5183 202.875 32.795C202.178 31.035 201.83 29.0367 201.83 26.8V25.92C201.83 23.72 202.196 21.7583 202.93 20.035C203.663 18.275 204.635 16.8083 205.845 15.635C207.055 14.425 208.466 13.5083 210.08 12.885C211.693 12.2617 213.38 11.95 215.14 11.95C217.12 11.95 218.843 12.39 220.31 13.27C221.813 14.1133 222.986 15.36 223.83 17.01H224.49V12.72H228.78V46.71C228.78 47.9567 228.376 48.9833 227.57 49.79C226.8 50.5967 225.791 51 224.545 51H206.78V47.04H223.005C223.995 47.04 224.49 46.49 224.49 45.39V35.82ZM215.36 36.7C216.643 36.7 217.835 36.4617 218.935 35.985C220.035 35.5083 220.988 34.83 221.795 33.95C222.638 33.07 223.298 32.025 223.775 30.815C224.251 29.5683 224.49 28.1933 224.49 26.69V26.03C224.49 24.5633 224.251 23.225 223.775 22.015C223.298 20.7683 222.638 19.705 221.795 18.825C220.988 17.945 220.016 17.2667 218.88 16.79C217.78 16.2767 216.606 16.02 215.36 16.02C214.076 16.02 212.866 16.2583 211.73 16.735C210.63 17.2117 209.658 17.89 208.815 18.77C208.008 19.65 207.366 20.695 206.89 21.905C206.45 23.115 206.23 24.4533 206.23 25.92V26.8C206.23 28.34 206.45 29.715 206.89 30.925C207.366 32.135 208.008 33.18 208.815 34.06C209.658 34.9033 210.63 35.5633 211.73 36.04C212.83 36.48 214.04 36.7 215.36 36.7ZM256.901 12.72H261.191V40H256.901V35.05H256.241C255.361 36.81 254.206 38.2033 252.776 39.23C251.346 40.2567 249.531 40.77 247.331 40.77C245.828 40.77 244.435 40.5133 243.151 40C241.905 39.5233 240.823 38.79 239.906 37.8C239.026 36.81 238.33 35.5817 237.816 34.115C237.34 32.6483 237.101 30.9433 237.101 29V12.72H241.391V28.45C241.391 31.31 241.978 33.4 243.151 34.72C244.325 36.04 246.121 36.7 248.541 36.7C251.145 36.7 253.18 35.82 254.646 34.06C256.15 32.2633 256.901 29.88 256.901 26.91V12.72ZM274.243 27.68C274.353 30.3933 275.197 32.575 276.773 34.225C278.35 35.875 280.55 36.7 283.373 36.7C284.657 36.7 285.775 36.5533 286.728 36.26C287.682 35.9667 288.488 35.5633 289.148 35.05C289.845 34.5367 290.395 33.95 290.798 33.29C291.238 32.5933 291.587 31.86 291.843 31.09L295.913 32.19C295.143 34.72 293.713 36.7917 291.623 38.405C289.57 39.9817 286.783 40.77 283.263 40.77C281.32 40.77 279.523 40.44 277.873 39.78C276.26 39.0833 274.867 38.1117 273.693 36.865C272.52 35.6183 271.603 34.1333 270.943 32.41C270.283 30.6867 269.953 28.78 269.953 26.69V25.37C269.953 23.4633 270.283 21.685 270.943 20.035C271.64 18.385 272.593 16.9733 273.803 15.8C275.013 14.59 276.425 13.655 278.038 12.995C279.688 12.2983 281.467 11.95 283.373 11.95C285.61 11.95 287.535 12.3717 289.148 13.215C290.798 14.0217 292.137 15.03 293.163 16.24C294.227 17.45 294.997 18.77 295.473 20.2C295.987 21.63 296.243 22.95 296.243 24.16V27.68H274.243ZM283.373 16.02C282.163 16.02 281.027 16.2217 279.963 16.625C278.937 16.9917 278.02 17.5233 277.213 18.22C276.443 18.9167 275.802 19.7417 275.288 20.695C274.812 21.6117 274.5 22.62 274.353 23.72H291.953C291.88 22.5467 291.587 21.4833 291.073 20.53C290.597 19.5767 289.955 18.77 289.148 18.11C288.378 17.45 287.48 16.9367 286.453 16.57C285.463 16.2033 284.437 16.02 283.373 16.02ZM310.45 19.76C310.45 21.08 311 22.0883 312.1 22.785C313.237 23.4817 315.29 23.94 318.26 24.16C321.45 24.4167 323.87 25.1867 325.52 26.47C327.207 27.7167 328.05 29.55 328.05 31.97V32.3C328.05 33.62 327.775 34.8117 327.225 35.875C326.712 36.9017 325.978 37.7817 325.025 38.515C324.108 39.2483 322.972 39.7983 321.615 40.165C320.295 40.5683 318.847 40.77 317.27 40.77C315.143 40.77 313.31 40.495 311.77 39.945C310.267 39.3583 309.002 38.6067 307.975 37.69C306.985 36.7367 306.233 35.6733 305.72 34.5C305.207 33.29 304.913 32.08 304.84 30.87L308.91 29.88C309.093 31.97 309.9 33.6567 311.33 34.94C312.76 36.1867 314.667 36.81 317.05 36.81C319.067 36.81 320.68 36.425 321.89 35.655C323.137 34.8483 323.76 33.73 323.76 32.3C323.76 30.76 323.155 29.66 321.945 29C320.735 28.34 318.773 27.9183 316.06 27.735C312.907 27.515 310.487 26.7817 308.8 25.535C307.113 24.2883 306.27 22.4733 306.27 20.09V19.76C306.27 18.4767 306.545 17.3583 307.095 16.405C307.645 15.415 308.378 14.59 309.295 13.93C310.248 13.27 311.312 12.775 312.485 12.445C313.658 12.115 314.887 11.95 316.17 11.95C317.967 11.95 319.543 12.2067 320.9 12.72C322.257 13.1967 323.393 13.8383 324.31 14.645C325.227 15.415 325.923 16.3133 326.4 17.34C326.913 18.3667 327.243 19.3933 327.39 20.42L323.32 21.41C323.137 19.65 322.422 18.275 321.175 17.285C319.965 16.295 318.37 15.8 316.39 15.8C315.62 15.8 314.868 15.8917 314.135 16.075C313.438 16.2217 312.815 16.46 312.265 16.79C311.715 17.12 311.275 17.5417 310.945 18.055C310.615 18.5317 310.45 19.1 310.45 19.76ZM337.527 12.72H346.107V1.5H350.397V12.72H360.957V16.68H350.397V34.39C350.397 35.49 350.892 36.04 351.882 36.04H359.637V40H350.342C349.095 40 348.068 39.5967 347.262 38.79C346.492 37.9833 346.107 36.9567 346.107 35.71V16.68H337.527V12.72ZM408.95 27.68C409.06 30.3933 409.904 32.575 411.48 34.225C413.057 35.875 415.257 36.7 418.08 36.7C419.364 36.7 420.482 36.5533 421.435 36.26C422.389 35.9667 423.195 35.5633 423.855 35.05C424.552 34.5367 425.102 33.95 425.505 33.29C425.945 32.5933 426.294 31.86 426.55 31.09L430.62 32.19C429.85 34.72 428.42 36.7917 426.33 38.405C424.277 39.9817 421.49 40.77 417.97 40.77C416.027 40.77 414.23 40.44 412.58 39.78C410.967 39.0833 409.574 38.1117 408.4 36.865C407.227 35.6183 406.31 34.1333 405.65 32.41C404.99 30.6867 404.66 28.78 404.66 26.69V25.37C404.66 23.4633 404.99 21.685 405.65 20.035C406.347 18.385 407.3 16.9733 408.51 15.8C409.72 14.59 411.132 13.655 412.745 12.995C414.395 12.2983 416.174 11.95 418.08 11.95C420.317 11.95 422.242 12.3717 423.855 13.215C425.505 14.0217 426.844 15.03 427.87 16.24C428.934 17.45 429.704 18.77 430.18 20.2C430.694 21.63 430.95 22.95 430.95 24.16V27.68H408.95ZM418.08 16.02C416.87 16.02 415.734 16.2217 414.67 16.625C413.644 16.9917 412.727 17.5233 411.92 18.22C411.15 18.9167 410.509 19.7417 409.995 20.695C409.519 21.6117 409.207 22.62 409.06 23.72H426.66C426.587 22.5467 426.294 21.4833 425.78 20.53C425.304 19.5767 424.662 18.77 423.855 18.11C423.085 17.45 422.187 16.9367 421.16 16.57C420.17 16.2033 419.144 16.02 418.08 16.02ZM465.727 40H461.437V20.42C461.437 19.1367 461.144 18.0917 460.557 17.285C459.97 16.4417 459.035 16.02 457.752 16.02C456.542 16.02 455.552 16.4783 454.782 17.395C454.049 18.275 453.682 19.65 453.682 21.52V40H449.392V20.2C449.392 18.99 449.062 18 448.402 17.23C447.742 16.4233 446.862 16.02 445.762 16.02C444.442 16.02 443.415 16.4967 442.682 17.45C441.985 18.4033 441.637 19.65 441.637 21.19V40H437.347V12.72H441.637V15.69H442.297C442.774 14.4067 443.47 13.4717 444.387 12.885C445.304 12.2617 446.385 11.95 447.632 11.95C448.952 11.95 450.034 12.2983 450.877 12.995C451.757 13.6917 452.362 14.59 452.692 15.69H453.352C454.599 13.1967 456.579 11.95 459.292 11.95C461.345 11.95 462.922 12.61 464.022 13.93C465.159 15.2133 465.727 16.9 465.727 18.99V40ZM492.969 35.38H492.309C491.429 37.2133 490.2 38.57 488.624 39.45C487.084 40.33 485.452 40.77 483.729 40.77C481.932 40.77 480.264 40.4767 478.724 39.89C477.184 39.2667 475.827 38.3683 474.654 37.195C473.517 35.985 472.619 34.5183 471.959 32.795C471.299 31.0717 470.969 29.0733 470.969 26.8V25.92C470.969 23.6833 471.299 21.7033 471.959 19.98C472.619 18.2567 473.517 16.8083 474.654 15.635C475.827 14.425 477.184 13.5083 478.724 12.885C480.264 12.2617 481.895 11.95 483.619 11.95C485.489 11.95 487.175 12.3717 488.679 13.215C490.219 14.0217 491.429 15.2867 492.309 17.01H492.969V12.72H497.259V34.39C497.259 35.49 497.754 36.04 498.744 36.04H500.119V40H497.204C495.957 40 494.93 39.5967 494.124 38.79C493.354 37.9833 492.969 36.9567 492.969 35.71V35.38ZM484.169 36.7C485.452 36.7 486.625 36.4617 487.689 35.985C488.789 35.5083 489.724 34.83 490.494 33.95C491.264 33.07 491.869 32.025 492.309 30.815C492.749 29.5683 492.969 28.1933 492.969 26.69V26.03C492.969 24.5633 492.749 23.225 492.309 22.015C491.869 20.7683 491.245 19.705 490.439 18.825C489.669 17.945 488.734 17.2667 487.634 16.79C486.57 16.2767 485.415 16.02 484.169 16.02C482.885 16.02 481.712 16.2583 480.649 16.735C479.585 17.2117 478.65 17.89 477.844 18.77C477.074 19.6133 476.469 20.6583 476.029 21.905C475.589 23.115 475.369 24.4533 475.369 25.92V26.8C475.369 29.9167 476.175 32.355 477.789 34.115C479.439 35.8383 481.565 36.7 484.169 36.7ZM515.316 4.58C515.316 3.51666 515.682 2.61833 516.416 1.885C517.186 1.115 518.102 0.729997 519.166 0.729997C520.229 0.729997 521.127 1.115 521.861 1.885C522.631 2.61833 523.016 3.51666 523.016 4.58C523.016 5.64333 522.631 6.56 521.861 7.33C521.127 8.06333 520.229 8.43 519.166 8.43C518.102 8.43 517.186 8.06333 516.416 7.33C515.682 6.56 515.316 5.64333 515.316 4.58ZM507.506 36.04H517.076V16.68H508.496V12.72H521.366V36.04H530.276V40H507.506V36.04ZM540.522 36.04H550.422V5.46H540.852V1.5H554.712V36.04H564.612V40H540.522V36.04ZM579.864 19.76C579.864 21.08 580.414 22.0883 581.514 22.785C582.651 23.4817 584.704 23.94 587.674 24.16C590.864 24.4167 593.284 25.1867 594.934 26.47C596.621 27.7167 597.464 29.55 597.464 31.97V32.3C597.464 33.62 597.189 34.8117 596.639 35.875C596.126 36.9017 595.392 37.7817 594.439 38.515C593.522 39.2483 592.386 39.7983 591.029 40.165C589.709 40.5683 588.261 40.77 586.684 40.77C584.557 40.77 582.724 40.495 581.184 39.945C579.681 39.3583 578.416 38.6067 577.389 37.69C576.399 36.7367 575.647 35.6733 575.134 34.5C574.621 33.29 574.327 32.08 574.254 30.87L578.324 29.88C578.507 31.97 579.314 33.6567 580.744 34.94C582.174 36.1867 584.081 36.81 586.464 36.81C588.481 36.81 590.094 36.425 591.304 35.655C592.551 34.8483 593.174 33.73 593.174 32.3C593.174 30.76 592.569 29.66 591.359 29C590.149 28.34 588.187 27.9183 585.474 27.735C582.321 27.515 579.901 26.7817 578.214 25.535C576.527 24.2883 575.684 22.4733 575.684 20.09V19.76C575.684 18.4767 575.959 17.3583 576.509 16.405C577.059 15.415 577.792 14.59 578.709 13.93C579.662 13.27 580.726 12.775 581.899 12.445C583.072 12.115 584.301 11.95 585.584 11.95C587.381 11.95 588.957 12.2067 590.314 12.72C591.671 13.1967 592.807 13.8383 593.724 14.645C594.641 15.415 595.337 16.3133 595.814 17.34C596.327 18.3667 596.657 19.3933 596.804 20.42L592.734 21.41C592.551 19.65 591.836 18.275 590.589 17.285C589.379 16.295 587.784 15.8 585.804 15.8C585.034 15.8 584.282 15.8917 583.549 16.075C582.852 16.2217 582.229 16.46 581.679 16.79C581.129 17.12 580.689 17.5417 580.359 18.055C580.029 18.5317 579.864 19.1 579.864 19.76Z" fill="#314455"/>
</svg>
