<svg width="1313" height="150" viewBox="0 0 1313 150" fill="none" xmlns="http://www.w3.org/2000/svg">
<rect width="630" height="150" fill="#9E5A63"/>
<path d="M224.004 53.6H228.372V85.944H247.404V90H224.004V53.6ZM280.18 77.416C280.18 79.5653 279.816 81.472 279.088 83.136C278.395 84.7653 277.459 86.152 276.28 87.296C275.102 88.4053 273.715 89.2547 272.12 89.844C270.56 90.4333 268.931 90.728 267.232 90.728C265.499 90.728 263.852 90.4333 262.292 89.844C260.732 89.2547 259.363 88.4053 258.184 87.296C257.006 86.152 256.052 84.7653 255.324 83.136C254.631 81.472 254.284 79.5653 254.284 77.416V76.792C254.284 74.6773 254.631 72.8053 255.324 71.176C256.052 69.512 257.006 68.108 258.184 66.964C259.398 65.82 260.784 64.9533 262.344 64.364C263.904 63.7747 265.534 63.48 267.232 63.48C268.931 63.48 270.56 63.7747 272.12 64.364C273.68 64.9533 275.05 65.82 276.228 66.964C277.442 68.108 278.395 69.512 279.088 71.176C279.816 72.8053 280.18 74.6773 280.18 76.792V77.416ZM267.232 86.88C268.48 86.88 269.624 86.672 270.664 86.256C271.739 85.8053 272.675 85.164 273.472 84.332C274.27 83.5 274.894 82.512 275.344 81.368C275.795 80.1893 276.02 78.872 276.02 77.416V76.792C276.02 75.4053 275.795 74.14 275.344 72.996C274.894 71.8173 274.27 70.812 273.472 69.98C272.675 69.148 271.739 68.5067 270.664 68.056C269.59 67.5707 268.446 67.328 267.232 67.328C266.019 67.328 264.875 67.5707 263.8 68.056C262.726 68.5067 261.79 69.148 260.992 69.98C260.195 70.812 259.571 71.8173 259.12 72.996C258.67 74.14 258.444 75.4053 258.444 76.792V77.416C258.444 78.872 258.67 80.1893 259.12 81.368C259.571 82.512 260.195 83.5 260.992 84.332C261.79 85.164 262.708 85.8053 263.748 86.256C264.823 86.672 265.984 86.88 267.232 86.88ZM307.288 86.048H306.664C305.832 87.608 304.688 88.7867 303.232 89.584C301.811 90.3467 300.251 90.728 298.552 90.728C296.819 90.728 295.189 90.4333 293.664 89.844C292.139 89.2547 290.787 88.4053 289.608 87.296C288.464 86.1867 287.545 84.8173 286.852 83.188C286.193 81.524 285.864 79.6347 285.864 77.52V76.688C285.864 74.608 286.211 72.7533 286.904 71.124C287.597 69.46 288.516 68.0733 289.66 66.964C290.804 65.82 292.139 64.9533 293.664 64.364C295.189 63.7747 296.784 63.48 298.448 63.48C300.32 63.48 301.949 63.896 303.336 64.728C304.757 65.5253 305.867 66.704 306.664 68.264H307.288V64.208H311.344V96.344C311.344 97.5227 310.963 98.4933 310.2 99.256C309.472 100.019 308.519 100.4 307.34 100.4H290.544V96.656H305.884C306.82 96.656 307.288 96.136 307.288 95.096V86.048ZM298.656 86.88C299.869 86.88 300.996 86.6547 302.036 86.204C303.076 85.7533 303.977 85.112 304.74 84.28C305.537 83.448 306.161 82.46 306.612 81.316C307.063 80.1373 307.288 78.8373 307.288 77.416V76.792C307.288 75.4053 307.063 74.14 306.612 72.996C306.161 71.8173 305.537 70.812 304.74 69.98C303.977 69.148 303.059 68.5067 301.984 68.056C300.944 67.5707 299.835 67.328 298.656 67.328C297.443 67.328 296.299 67.5533 295.224 68.004C294.184 68.4547 293.265 69.096 292.468 69.928C291.705 70.76 291.099 71.748 290.648 72.892C290.232 74.036 290.024 75.3013 290.024 76.688V77.52C290.024 78.976 290.232 80.276 290.648 81.42C291.099 82.564 291.705 83.552 292.468 84.384C293.265 85.1813 294.184 85.8053 295.224 86.256C296.264 86.672 297.408 86.88 298.656 86.88ZM351.208 53.6H374.296V57.656H364.936V85.944H374.296V90H351.208V85.944H360.568V57.656H351.208V53.6ZM387.26 90H383.204V64.208H387.26V68.576H387.884C389.478 65.1787 392.252 63.48 396.204 63.48C399.185 63.48 401.56 64.416 403.328 66.288C405.096 68.1253 405.98 70.8987 405.98 74.608V90H401.924V75.44C401.924 72.736 401.317 70.708 400.104 69.356C398.89 68.004 397.244 67.328 395.164 67.328C392.702 67.328 390.761 68.1773 389.34 69.876C387.953 71.54 387.26 73.776 387.26 76.584V90Z" fill="white"/>
<rect x="666" width="630" height="150" fill="#9E5A63"/>
<path d="M911.053 64.104C911.053 62.9253 910.81 61.8853 910.325 60.984C909.874 60.0827 909.25 59.3373 908.453 58.748C907.655 58.1587 906.737 57.708 905.697 57.396C904.657 57.084 903.565 56.928 902.421 56.928C901.415 56.928 900.462 57.0667 899.561 57.344C898.659 57.5867 897.845 57.9507 897.117 58.436C896.423 58.9213 895.869 59.528 895.453 60.256C895.037 60.9493 894.829 61.764 894.829 62.7V63.012C894.829 64.0173 895.037 64.884 895.453 65.612C895.869 66.3053 896.475 66.912 897.273 67.432C898.105 67.9173 899.127 68.3333 900.341 68.68C901.554 68.992 902.975 69.2693 904.605 69.512C908.418 70.1013 911.226 71.228 913.029 72.892C914.831 74.5213 915.733 76.7227 915.733 79.496V80.12C915.733 81.68 915.455 83.1187 914.901 84.436C914.381 85.7187 913.583 86.828 912.509 87.764C911.469 88.7 910.169 89.428 908.609 89.948C907.049 90.468 905.246 90.728 903.201 90.728C900.878 90.728 898.815 90.3987 897.013 89.74C895.245 89.0467 893.754 88.1107 892.541 86.932C891.362 85.7187 890.461 84.3147 889.837 82.72C889.213 81.0907 888.901 79.3227 888.901 77.416V75.856H893.269V77.104C893.269 80.2933 894.135 82.6853 895.869 84.28C897.637 85.8747 900.081 86.672 903.201 86.672C905.905 86.672 907.933 86.0827 909.285 84.904C910.671 83.6907 911.365 82.096 911.365 80.12V79.808C911.365 77.9013 910.654 76.4453 909.233 75.44C907.846 74.4347 905.575 73.7067 902.421 73.256C900.583 73.0133 898.919 72.6493 897.429 72.164C895.973 71.644 894.725 70.9853 893.685 70.188C892.645 69.356 891.847 68.368 891.293 67.224C890.738 66.08 890.461 64.728 890.461 63.168V62.544C890.461 61.1227 890.755 59.8227 891.345 58.644C891.934 57.4653 892.749 56.4427 893.789 55.576C894.863 54.7093 896.129 54.0507 897.585 53.6C899.075 53.1147 900.705 52.872 902.473 52.872C904.518 52.872 906.338 53.1667 907.933 53.756C909.562 54.3453 910.931 55.1427 912.041 56.148C913.15 57.1187 913.982 58.28 914.537 59.632C915.126 60.9493 915.421 62.336 915.421 63.792V65.976H911.053V64.104ZM930.932 56.512C930.932 55.5067 931.279 54.6573 931.972 53.964C932.7 53.236 933.567 52.872 934.572 52.872C935.578 52.872 936.427 53.236 937.12 53.964C937.848 54.6573 938.212 55.5067 938.212 56.512C938.212 57.5173 937.848 58.384 937.12 59.112C936.427 59.8053 935.578 60.152 934.572 60.152C933.567 60.152 932.7 59.8053 931.972 59.112C931.279 58.384 930.932 57.5173 930.932 56.512ZM923.548 86.256H932.596V67.952H924.484V64.208H936.652V86.256H945.076V90H923.548V86.256ZM974.368 86.048H973.744C972.912 87.608 971.768 88.7867 970.312 89.584C968.891 90.3467 967.331 90.728 965.632 90.728C963.899 90.728 962.27 90.4333 960.744 89.844C959.219 89.2547 957.867 88.4053 956.688 87.296C955.544 86.1867 954.626 84.8173 953.932 83.188C953.274 81.524 952.944 79.6347 952.944 77.52V76.688C952.944 74.608 953.291 72.7533 953.984 71.124C954.678 69.46 955.596 68.0733 956.74 66.964C957.884 65.82 959.219 64.9533 960.744 64.364C962.27 63.7747 963.864 63.48 965.528 63.48C967.4 63.48 969.03 63.896 970.416 64.728C971.838 65.5253 972.947 66.704 973.744 68.264H974.368V64.208H978.424V96.344C978.424 97.5227 978.043 98.4933 977.28 99.256C976.552 100.019 975.599 100.4 974.42 100.4H957.624V96.656H972.964C973.9 96.656 974.368 96.136 974.368 95.096V86.048ZM965.736 86.88C966.95 86.88 968.076 86.6547 969.116 86.204C970.156 85.7533 971.058 85.112 971.82 84.28C972.618 83.448 973.242 82.46 973.692 81.316C974.143 80.1373 974.368 78.8373 974.368 77.416V76.792C974.368 75.4053 974.143 74.14 973.692 72.996C973.242 71.8173 972.618 70.812 971.82 69.98C971.058 69.148 970.139 68.5067 969.064 68.056C968.024 67.5707 966.915 67.328 965.736 67.328C964.523 67.328 963.379 67.5533 962.304 68.004C961.264 68.4547 960.346 69.096 959.548 69.928C958.786 70.76 958.179 71.748 957.728 72.892C957.312 74.036 957.104 75.3013 957.104 76.688V77.52C957.104 78.976 957.312 80.276 957.728 81.42C958.179 82.564 958.786 83.552 959.548 84.384C960.346 85.1813 961.264 85.8053 962.304 86.256C963.344 86.672 964.488 86.88 965.736 86.88ZM990.66 90H986.604V64.208H990.66V68.576H991.284C992.879 65.1787 995.652 63.48 999.604 63.48C1002.59 63.48 1004.96 64.416 1006.73 66.288C1008.5 68.1253 1009.38 70.8987 1009.38 74.608V90H1005.32V75.44C1005.32 72.736 1004.72 70.708 1003.5 69.356C1002.29 68.004 1000.64 67.328 998.564 67.328C996.103 67.328 994.161 68.1773 992.74 69.876C991.353 71.54 990.66 73.776 990.66 76.584V90ZM1053.56 53.6V77.728C1053.56 80.6747 1054.24 82.9107 1055.59 84.436C1056.97 85.9267 1059 86.672 1061.67 86.672C1064.34 86.672 1066.35 85.9267 1067.7 84.436C1069.09 82.9107 1069.78 80.6747 1069.78 77.728V53.6H1074.15V77.728C1074.15 81.9573 1073.04 85.1813 1070.82 87.4C1068.61 89.6187 1065.55 90.728 1061.67 90.728C1057.79 90.728 1054.74 89.6187 1052.52 87.4C1050.3 85.1813 1049.19 81.9573 1049.19 77.728V53.6H1053.56ZM1085.24 100.4H1081.19V64.208H1085.24V68.264H1085.87C1086.77 66.704 1088.02 65.5253 1089.61 64.728C1091.21 63.896 1092.94 63.48 1094.81 63.48C1096.41 63.48 1097.91 63.7747 1099.34 64.364C1100.76 64.9533 1102 65.8027 1103.08 66.912C1104.19 68.0213 1105.06 69.3907 1105.68 71.02C1106.34 72.6493 1106.67 74.504 1106.67 76.584V77.624C1106.67 79.7387 1106.36 81.6107 1105.73 83.24C1105.11 84.8693 1104.24 86.2387 1103.13 87.348C1102.06 88.4573 1100.79 89.3067 1099.34 89.896C1097.88 90.4507 1096.34 90.728 1094.71 90.728C1093.88 90.728 1093.03 90.624 1092.16 90.416C1091.29 90.2427 1090.46 89.9653 1089.66 89.584C1088.9 89.168 1088.19 88.6827 1087.53 88.128C1086.87 87.5387 1086.32 86.8453 1085.87 86.048H1085.24V100.4ZM1093.88 86.88C1095.12 86.88 1096.27 86.672 1097.31 86.256C1098.35 85.8053 1099.25 85.1813 1100.01 84.384C1100.81 83.5867 1101.42 82.616 1101.83 81.472C1102.28 80.328 1102.51 79.0453 1102.51 77.624V76.584C1102.51 75.1973 1102.28 73.9493 1101.83 72.84C1101.42 71.696 1100.81 70.7253 1100.01 69.928C1099.25 69.096 1098.33 68.4547 1097.26 68.004C1096.22 67.5533 1095.09 67.328 1093.88 67.328C1092.66 67.328 1091.54 67.5707 1090.5 68.056C1089.46 68.5067 1088.54 69.148 1087.74 69.98C1086.98 70.812 1086.37 71.8173 1085.92 72.996C1085.47 74.14 1085.24 75.4053 1085.24 76.792V77.416C1085.24 78.8373 1085.47 80.1373 1085.92 81.316C1086.37 82.46 1086.98 83.448 1087.74 84.28C1088.54 85.112 1089.46 85.7533 1090.5 86.204C1091.54 86.6547 1092.66 86.88 1093.88 86.88Z" fill="white"/>
</svg>
