<svg width="630" height="150" viewBox="0 0 630 150" fill="none" xmlns="http://www.w3.org/2000/svg">
<rect width="630" height="150" fill="#9E5A63"/>
<path d="M224.004 53.6H228.372V85.944H247.404V90H224.004V53.6ZM280.18 77.416C280.18 79.5653 279.816 81.472 279.088 83.136C278.395 84.7653 277.459 86.152 276.28 87.296C275.102 88.4053 273.715 89.2547 272.12 89.844C270.56 90.4333 268.931 90.728 267.232 90.728C265.499 90.728 263.852 90.4333 262.292 89.844C260.732 89.2547 259.363 88.4053 258.184 87.296C257.006 86.152 256.052 84.7653 255.324 83.136C254.631 81.472 254.284 79.5653 254.284 77.416V76.792C254.284 74.6773 254.631 72.8053 255.324 71.176C256.052 69.512 257.006 68.108 258.184 66.964C259.398 65.82 260.784 64.9533 262.344 64.364C263.904 63.7747 265.534 63.48 267.232 63.48C268.931 63.48 270.56 63.7747 272.12 64.364C273.68 64.9533 275.05 65.82 276.228 66.964C277.442 68.108 278.395 69.512 279.088 71.176C279.816 72.8053 280.18 74.6773 280.18 76.792V77.416ZM267.232 86.88C268.48 86.88 269.624 86.672 270.664 86.256C271.739 85.8053 272.675 85.164 273.472 84.332C274.27 83.5 274.894 82.512 275.344 81.368C275.795 80.1893 276.02 78.872 276.02 77.416V76.792C276.02 75.4053 275.795 74.14 275.344 72.996C274.894 71.8173 274.27 70.812 273.472 69.98C272.675 69.148 271.739 68.5067 270.664 68.056C269.59 67.5707 268.446 67.328 267.232 67.328C266.019 67.328 264.875 67.5707 263.8 68.056C262.726 68.5067 261.79 69.148 260.992 69.98C260.195 70.812 259.571 71.8173 259.12 72.996C258.67 74.14 258.444 75.4053 258.444 76.792V77.416C258.444 78.872 258.67 80.1893 259.12 81.368C259.571 82.512 260.195 83.5 260.992 84.332C261.79 85.164 262.708 85.8053 263.748 86.256C264.823 86.672 265.984 86.88 267.232 86.88ZM307.288 86.048H306.664C305.832 87.608 304.688 88.7867 303.232 89.584C301.811 90.3467 300.251 90.728 298.552 90.728C296.819 90.728 295.189 90.4333 293.664 89.844C292.139 89.2547 290.787 88.4053 289.608 87.296C288.464 86.1867 287.545 84.8173 286.852 83.188C286.193 81.524 285.864 79.6347 285.864 77.52V76.688C285.864 74.608 286.211 72.7533 286.904 71.124C287.597 69.46 288.516 68.0733 289.66 66.964C290.804 65.82 292.139 64.9533 293.664 64.364C295.189 63.7747 296.784 63.48 298.448 63.48C300.32 63.48 301.949 63.896 303.336 64.728C304.757 65.5253 305.867 66.704 306.664 68.264H307.288V64.208H311.344V96.344C311.344 97.5227 310.963 98.4933 310.2 99.256C309.472 100.019 308.519 100.4 307.34 100.4H290.544V96.656H305.884C306.82 96.656 307.288 96.136 307.288 95.096V86.048ZM298.656 86.88C299.869 86.88 300.996 86.6547 302.036 86.204C303.076 85.7533 303.977 85.112 304.74 84.28C305.537 83.448 306.161 82.46 306.612 81.316C307.063 80.1373 307.288 78.8373 307.288 77.416V76.792C307.288 75.4053 307.063 74.14 306.612 72.996C306.161 71.8173 305.537 70.812 304.74 69.98C303.977 69.148 303.059 68.5067 301.984 68.056C300.944 67.5707 299.835 67.328 298.656 67.328C297.443 67.328 296.299 67.5533 295.224 68.004C294.184 68.4547 293.265 69.096 292.468 69.928C291.705 70.76 291.099 71.748 290.648 72.892C290.232 74.036 290.024 75.3013 290.024 76.688V77.52C290.024 78.976 290.232 80.276 290.648 81.42C291.099 82.564 291.705 83.552 292.468 84.384C293.265 85.1813 294.184 85.8053 295.224 86.256C296.264 86.672 297.408 86.88 298.656 86.88ZM351.208 53.6H374.296V57.656H364.936V85.944H374.296V90H351.208V85.944H360.568V57.656H351.208V53.6ZM387.26 90H383.204V64.208H387.26V68.576H387.884C389.478 65.1787 392.252 63.48 396.204 63.48C399.185 63.48 401.56 64.416 403.328 66.288C405.096 68.1253 405.98 70.8987 405.98 74.608V90H401.924V75.44C401.924 72.736 401.317 70.708 400.104 69.356C398.89 68.004 397.244 67.328 395.164 67.328C392.702 67.328 390.761 68.1773 389.34 69.876C387.953 71.54 387.26 73.776 387.26 76.584V90Z" fill="white"/>
</svg>
