<svg width="743" height="204" viewBox="0 0 743 204" fill="none" xmlns="http://www.w3.org/2000/svg">
<rect width="743" height="204" fill="#9E5A63"/>
<path d="M37.2009 93.872C37.2009 95.576 37.9109 96.8777 39.3309 97.777C40.7983 98.6763 43.4489 99.268 47.2829 99.552C51.4009 99.8833 54.5249 100.877 56.6549 102.534C58.8323 104.143 59.9209 106.51 59.9209 109.634V110.06C59.9209 111.764 59.5659 113.302 58.8559 114.675C58.1933 116 57.2466 117.136 56.0159 118.083C54.8326 119.03 53.3653 119.74 51.6139 120.213C49.9099 120.734 48.0403 120.994 46.0049 120.994C43.2596 120.994 40.8929 120.639 38.9049 119.929C36.9643 119.172 35.3313 118.201 34.0059 117.018C32.7279 115.787 31.7576 114.415 31.0949 112.9C30.4323 111.338 30.0536 109.776 29.9589 108.214L35.2129 106.936C35.4496 109.634 36.4909 111.811 38.3369 113.468C40.1829 115.077 42.6443 115.882 45.7209 115.882C48.3243 115.882 50.4069 115.385 51.9689 114.391C53.5783 113.35 54.3829 111.906 54.3829 110.06C54.3829 108.072 53.6019 106.652 52.0399 105.8C50.4779 104.948 47.9456 104.404 44.4429 104.167C40.3723 103.883 37.2483 102.936 35.0709 101.327C32.8936 99.7177 31.8049 97.3747 31.8049 94.298V93.872C31.8049 92.2153 32.1599 90.7717 32.8699 89.541C33.5799 88.263 34.5266 87.198 35.7099 86.346C36.9406 85.494 38.3133 84.855 39.8279 84.429C41.3426 84.003 42.9283 83.79 44.5849 83.79C46.9043 83.79 48.9396 84.1213 50.6909 84.784C52.4423 85.3993 53.9096 86.2277 55.0929 87.269C56.2763 88.263 57.1756 89.4227 57.7909 90.748C58.4536 92.0733 58.8796 93.3987 59.0689 94.724L53.8149 96.002C53.5783 93.73 52.6553 91.955 51.0459 90.677C49.4839 89.399 47.4249 88.76 44.8689 88.76C43.8749 88.76 42.9046 88.8783 41.9579 89.115C41.0586 89.3043 40.2539 89.612 39.5439 90.038C38.8339 90.464 38.2659 91.0083 37.8399 91.671C37.4139 92.2863 37.2009 93.02 37.2009 93.872ZM77.4086 104.096C77.5506 107.599 78.6392 110.415 80.6746 112.545C82.7099 114.675 85.5499 115.74 89.1946 115.74C90.8512 115.74 92.2949 115.551 93.5256 115.172C94.7562 114.793 95.7976 114.273 96.6496 113.61C97.5489 112.947 98.2589 112.19 98.7796 111.338C99.3476 110.439 99.7972 109.492 100.129 108.498L105.383 109.918C104.389 113.184 102.543 115.858 99.8446 117.941C97.1939 119.976 93.5966 120.994 89.0526 120.994C86.5439 120.994 84.2246 120.568 82.0946 119.716C80.0119 118.817 78.2132 117.562 76.6986 115.953C75.1839 114.344 74.0006 112.427 73.1486 110.202C72.2966 107.977 71.8706 105.516 71.8706 102.818V101.114C71.8706 98.6527 72.2966 96.357 73.1486 94.227C74.0479 92.097 75.2786 90.2747 76.8406 88.76C78.4026 87.198 80.2249 85.991 82.3076 85.139C84.4376 84.2397 86.7332 83.79 89.1946 83.79C92.0819 83.79 94.5669 84.3343 96.6496 85.423C98.7796 86.4643 100.507 87.766 101.833 89.328C103.205 90.89 104.199 92.594 104.815 94.44C105.477 96.286 105.809 97.99 105.809 99.552V104.096H77.4086ZM89.1946 89.044C87.6326 89.044 86.1652 89.3043 84.7926 89.825C83.4672 90.2983 82.2839 90.9847 81.2426 91.884C80.2486 92.7833 79.4202 93.8483 78.7576 95.079C78.1422 96.2623 77.7399 97.564 77.5506 98.984H100.271C100.176 97.4693 99.7972 96.0967 99.1346 94.866C98.5192 93.6353 97.6909 92.594 96.6496 91.742C95.6556 90.89 94.4959 90.2273 93.1706 89.754C91.8926 89.2807 90.5672 89.044 89.1946 89.044ZM142.395 114.036H141.543C140.407 116.403 138.822 118.154 136.786 119.29C134.798 120.426 132.692 120.994 130.467 120.994C128.148 120.994 125.994 120.615 124.006 119.858C122.018 119.053 120.267 117.894 118.752 116.379C117.285 114.817 116.125 112.924 115.273 110.699C114.421 108.474 113.995 105.895 113.995 102.96V101.824C113.995 98.9367 114.421 96.3807 115.273 94.156C116.125 91.9313 117.285 90.0617 118.752 88.547C120.267 86.985 122.018 85.8017 124.006 84.997C125.994 84.1923 128.101 83.79 130.325 83.79C132.739 83.79 134.917 84.3343 136.857 85.423C138.845 86.4643 140.407 88.0973 141.543 90.322H142.395V84.784H147.933V112.758C147.933 114.178 148.572 114.888 149.85 114.888H151.625V120H147.862C146.253 120 144.928 119.479 143.886 118.438C142.892 117.397 142.395 116.071 142.395 114.462V114.036ZM131.035 115.74C132.692 115.74 134.207 115.432 135.579 114.817C136.999 114.202 138.206 113.326 139.2 112.19C140.194 111.054 140.975 109.705 141.543 108.143C142.111 106.534 142.395 104.759 142.395 102.818V101.966C142.395 100.073 142.111 98.345 141.543 96.783C140.975 95.1737 140.171 93.801 139.129 92.665C138.135 91.529 136.928 90.6533 135.508 90.038C134.136 89.3753 132.645 89.044 131.035 89.044C129.379 89.044 127.864 89.3517 126.491 89.967C125.119 90.5823 123.912 91.458 122.87 92.594C121.876 93.6827 121.095 95.0317 120.527 96.641C119.959 98.203 119.675 99.9307 119.675 101.824V102.96C119.675 106.983 120.717 110.131 122.799 112.403C124.929 114.628 127.675 115.74 131.035 115.74ZM158.321 84.784H171.101V89.47H171.953C172.852 87.5293 174.13 86.1093 175.787 85.21C177.444 84.2633 179.337 83.79 181.467 83.79C185.017 83.79 187.881 84.9497 190.058 87.269C192.235 89.5883 193.395 92.9727 193.537 97.422L187.715 98.274C187.715 95.008 186.934 92.665 185.372 91.245C183.81 89.7777 181.893 89.044 179.621 89.044C178.154 89.044 176.876 89.328 175.787 89.896C174.746 90.464 173.87 91.245 173.16 92.239C172.45 93.233 171.929 94.3927 171.598 95.718C171.267 97.0433 171.101 98.4633 171.101 99.978V114.888H180.047V120H157.469V114.888H165.563V89.896H158.321V84.784ZM236.726 107.504C236.348 109.445 235.685 111.243 234.738 112.9C233.839 114.557 232.679 116 231.259 117.231C229.839 118.414 228.183 119.337 226.289 120C224.396 120.663 222.29 120.994 219.97 120.994C217.509 120.994 215.166 120.592 212.941 119.787C210.764 118.982 208.847 117.823 207.19 116.308C205.534 114.746 204.208 112.853 203.214 110.628C202.268 108.403 201.794 105.847 201.794 102.96V102.108C201.794 99.268 202.268 96.712 203.214 94.44C204.208 92.168 205.534 90.251 207.19 88.689C208.847 87.127 210.764 85.92 212.941 85.068C215.166 84.216 217.509 83.79 219.97 83.79C222.195 83.79 224.254 84.1213 226.147 84.784C228.041 85.4467 229.697 86.3933 231.117 87.624C232.585 88.8073 233.768 90.2273 234.667 91.884C235.614 93.5407 236.253 95.3393 236.584 97.28L231.046 98.558C230.904 97.3273 230.549 96.144 229.981 95.008C229.461 93.8247 228.727 92.807 227.78 91.955C226.881 91.0557 225.769 90.3457 224.443 89.825C223.118 89.3043 221.58 89.044 219.828 89.044C218.124 89.044 216.515 89.3753 215 90.038C213.533 90.6533 212.231 91.5527 211.095 92.736C209.959 93.872 209.06 95.2447 208.397 96.854C207.782 98.4633 207.474 100.215 207.474 102.108V102.96C207.474 104.948 207.782 106.747 208.397 108.356C209.06 109.918 209.959 111.243 211.095 112.332C212.231 113.421 213.557 114.273 215.071 114.888C216.586 115.456 218.219 115.74 219.97 115.74C221.722 115.74 223.236 115.48 224.514 114.959C225.84 114.391 226.952 113.681 227.851 112.829C228.798 111.93 229.532 110.912 230.052 109.776C230.62 108.64 230.999 107.457 231.188 106.226L236.726 107.504ZM252.794 120H247.256V70.3H252.794V91.174H253.646C254.735 88.902 256.249 87.1033 258.19 85.778C260.178 84.4527 262.592 83.79 265.432 83.79C269.266 83.79 272.366 85.068 274.733 87.624C277.147 90.1327 278.354 93.9193 278.354 98.984V120H272.816V100.12C272.816 96.428 271.988 93.659 270.331 91.813C268.674 89.967 266.426 89.044 263.586 89.044C260.225 89.044 257.575 90.2037 255.634 92.523C253.741 94.795 252.794 97.848 252.794 101.682V120ZM333.848 84.784H344.711V75.838C344.711 74.2287 345.208 72.9033 346.202 71.862C347.244 70.8207 348.569 70.3 350.178 70.3H364.094V75.412H352.166C350.888 75.412 350.249 76.122 350.249 77.542V84.784H364.946V89.896H350.249V120H344.711V89.896H333.848V84.784ZM410.905 102.818C410.905 105.753 410.408 108.356 409.414 110.628C408.467 112.853 407.189 114.746 405.58 116.308C403.971 117.823 402.077 118.982 399.9 119.787C397.77 120.592 395.545 120.994 393.226 120.994C390.859 120.994 388.611 120.592 386.481 119.787C384.351 118.982 382.481 117.823 380.872 116.308C379.263 114.746 377.961 112.853 376.967 110.628C376.02 108.356 375.547 105.753 375.547 102.818V101.966C375.547 99.0787 376.02 96.5227 376.967 94.298C377.961 92.026 379.263 90.109 380.872 88.547C382.529 86.985 384.422 85.8017 386.552 84.997C388.682 84.1923 390.907 83.79 393.226 83.79C395.545 83.79 397.77 84.1923 399.9 84.997C402.03 85.8017 403.9 86.985 405.509 88.547C407.166 90.109 408.467 92.026 409.414 94.298C410.408 96.5227 410.905 99.0787 410.905 101.966V102.818ZM393.226 115.74C394.93 115.74 396.492 115.456 397.912 114.888C399.379 114.273 400.657 113.397 401.746 112.261C402.835 111.125 403.687 109.776 404.302 108.214C404.917 106.605 405.225 104.806 405.225 102.818V101.966C405.225 100.073 404.917 98.345 404.302 96.783C403.687 95.1737 402.835 93.801 401.746 92.665C400.657 91.529 399.379 90.6533 397.912 90.038C396.445 89.3753 394.883 89.044 393.226 89.044C391.569 89.044 390.007 89.3753 388.54 90.038C387.073 90.6533 385.795 91.529 384.706 92.665C383.617 93.801 382.765 95.1737 382.15 96.783C381.535 98.345 381.227 100.073 381.227 101.966V102.818C381.227 104.806 381.535 106.605 382.15 108.214C382.765 109.776 383.617 111.125 384.706 112.261C385.795 113.397 387.049 114.273 388.469 114.888C389.936 115.456 391.522 115.74 393.226 115.74ZM419.163 84.784H431.943V89.47H432.795C433.694 87.5293 434.972 86.1093 436.629 85.21C438.285 84.2633 440.179 83.79 442.309 83.79C445.859 83.79 448.722 84.9497 450.9 87.269C453.077 89.5883 454.237 92.9727 454.379 97.422L448.557 98.274C448.557 95.008 447.776 92.665 446.214 91.245C444.652 89.7777 442.735 89.044 440.463 89.044C438.995 89.044 437.717 89.328 436.629 89.896C435.587 90.464 434.712 91.245 434.002 92.239C433.292 93.233 432.771 94.3927 432.44 95.718C432.108 97.0433 431.943 98.4633 431.943 99.978V114.888H440.889V120H418.311V114.888H426.405V89.896H419.163V84.784ZM506.891 84.784H517.967V70.3H523.505V84.784H537.137V89.896H523.505V112.758C523.505 114.178 524.144 114.888 525.422 114.888H535.433V120H523.434C521.825 120 520.499 119.479 519.458 118.438C518.464 117.397 517.967 116.071 517.967 114.462V89.896H506.891V84.784ZM562.506 74.276C562.506 72.9033 562.979 71.7437 563.926 70.797C564.92 69.803 566.103 69.306 567.476 69.306C568.848 69.306 570.008 69.803 570.955 70.797C571.949 71.7437 572.446 72.9033 572.446 74.276C572.446 75.6487 571.949 76.832 570.955 77.826C570.008 78.7727 568.848 79.246 567.476 79.246C566.103 79.246 564.92 78.7727 563.926 77.826C562.979 76.832 562.506 75.6487 562.506 74.276ZM552.424 114.888H564.778V89.896H553.702V84.784H570.316V114.888H581.818V120H552.424V114.888ZM628.912 120H623.374V94.724C623.374 93.0673 622.995 91.7183 622.238 90.677C621.481 89.5883 620.274 89.044 618.617 89.044C617.055 89.044 615.777 89.6357 614.783 90.819C613.836 91.955 613.363 93.73 613.363 96.144V120H607.825V94.44C607.825 92.878 607.399 91.6 606.547 90.606C605.695 89.5647 604.559 89.044 603.139 89.044C601.435 89.044 600.11 89.6593 599.163 90.89C598.264 92.1207 597.814 93.73 597.814 95.718V120H592.276V84.784H597.814V88.618H598.666C599.281 86.9613 600.181 85.7543 601.364 84.997C602.547 84.1923 603.944 83.79 605.553 83.79C607.257 83.79 608.653 84.2397 609.742 85.139C610.878 86.0383 611.659 87.198 612.085 88.618H612.937C614.546 85.3993 617.102 83.79 620.605 83.79C623.256 83.79 625.291 84.642 626.711 86.346C628.178 88.0027 628.912 90.18 628.912 92.878V120ZM642.566 104.096C642.708 107.599 643.796 110.415 645.832 112.545C647.867 114.675 650.707 115.74 654.352 115.74C656.008 115.74 657.452 115.551 658.683 115.172C659.913 114.793 660.955 114.273 661.807 113.61C662.706 112.947 663.416 112.19 663.937 111.338C664.505 110.439 664.954 109.492 665.286 108.498L670.54 109.918C669.546 113.184 667.7 115.858 665.002 117.941C662.351 119.976 658.754 120.994 654.21 120.994C651.701 120.994 649.382 120.568 647.252 119.716C645.169 118.817 643.37 117.562 641.856 115.953C640.341 114.344 639.158 112.427 638.306 110.202C637.454 107.977 637.028 105.516 637.028 102.818V101.114C637.028 98.6527 637.454 96.357 638.306 94.227C639.205 92.097 640.436 90.2747 641.998 88.76C643.56 87.198 645.382 85.991 647.465 85.139C649.595 84.2397 651.89 83.79 654.352 83.79C657.239 83.79 659.724 84.3343 661.807 85.423C663.937 86.4643 665.664 87.766 666.99 89.328C668.362 90.89 669.356 92.594 669.972 94.44C670.634 96.286 670.966 97.99 670.966 99.552V104.096H642.566ZM654.352 89.044C652.79 89.044 651.322 89.3043 649.95 89.825C648.624 90.2983 647.441 90.9847 646.4 91.884C645.406 92.7833 644.577 93.8483 643.915 95.079C643.299 96.2623 642.897 97.564 642.708 98.984H665.428C665.333 97.4693 664.954 96.0967 664.292 94.866C663.676 93.6353 662.848 92.594 661.807 91.742C660.813 90.89 659.653 90.2273 658.328 89.754C657.05 89.2807 655.724 89.044 654.352 89.044ZM689.305 93.872C689.305 95.576 690.015 96.8777 691.435 97.777C692.903 98.6763 695.553 99.268 699.387 99.552C703.505 99.8833 706.629 100.877 708.759 102.534C710.937 104.143 712.025 106.51 712.025 109.634V110.06C712.025 111.764 711.67 113.302 710.96 114.675C710.298 116 709.351 117.136 708.12 118.083C706.937 119.03 705.47 119.74 703.718 120.213C702.014 120.734 700.145 120.994 698.109 120.994C695.364 120.994 692.997 120.639 691.009 119.929C689.069 119.172 687.436 118.201 686.11 117.018C684.832 115.787 683.862 114.415 683.199 112.9C682.537 111.338 682.158 109.776 682.063 108.214L687.317 106.936C687.554 109.634 688.595 111.811 690.441 113.468C692.287 115.077 694.749 115.882 697.825 115.882C700.429 115.882 702.511 115.385 704.073 114.391C705.683 113.35 706.487 111.906 706.487 110.06C706.487 108.072 705.706 106.652 704.144 105.8C702.582 104.948 700.05 104.404 696.547 104.167C692.477 103.883 689.353 102.936 687.175 101.327C684.998 99.7177 683.909 97.3747 683.909 94.298V93.872C683.909 92.2153 684.264 90.7717 684.974 89.541C685.684 88.263 686.631 87.198 687.814 86.346C689.045 85.494 690.418 84.855 691.932 84.429C693.447 84.003 695.033 83.79 696.689 83.79C699.009 83.79 701.044 84.1213 702.795 84.784C704.547 85.3993 706.014 86.2277 707.197 87.269C708.381 88.263 709.28 89.4227 709.895 90.748C710.558 92.0733 710.984 93.3987 711.173 94.724L705.919 96.002C705.683 93.73 704.76 91.955 703.15 90.677C701.588 89.399 699.529 88.76 696.973 88.76C695.979 88.76 695.009 88.8783 694.062 89.115C693.163 89.3043 692.358 89.612 691.648 90.038C690.938 90.464 690.37 91.0083 689.944 91.671C689.518 92.2863 689.305 93.02 689.305 93.872Z" fill="white"/>
</svg>
