<svg width="647" height="150" viewBox="0 0 647 150" fill="none" xmlns="http://www.w3.org/2000/svg">
<rect width="630" height="150" fill="#9E5A63"/>
<path d="M245.053 64.104C245.053 62.9253 244.81 61.8853 244.325 60.984C243.874 60.0827 243.25 59.3373 242.453 58.748C241.655 58.1587 240.737 57.708 239.697 57.396C238.657 57.084 237.565 56.928 236.421 56.928C235.415 56.928 234.462 57.0667 233.561 57.344C232.659 57.5867 231.845 57.9507 231.117 58.436C230.423 58.9213 229.869 59.528 229.453 60.256C229.037 60.9493 228.829 61.764 228.829 62.7V63.012C228.829 64.0173 229.037 64.884 229.453 65.612C229.869 66.3053 230.475 66.912 231.273 67.432C232.105 67.9173 233.127 68.3333 234.341 68.68C235.554 68.992 236.975 69.2693 238.605 69.512C242.418 70.1013 245.226 71.228 247.029 72.892C248.831 74.5213 249.733 76.7227 249.733 79.496V80.12C249.733 81.68 249.455 83.1187 248.901 84.436C248.381 85.7187 247.583 86.828 246.509 87.764C245.469 88.7 244.169 89.428 242.609 89.948C241.049 90.468 239.246 90.728 237.201 90.728C234.878 90.728 232.815 90.3987 231.013 89.74C229.245 89.0467 227.754 88.1107 226.541 86.932C225.362 85.7187 224.461 84.3147 223.837 82.72C223.213 81.0907 222.901 79.3227 222.901 77.416V75.856H227.269V77.104C227.269 80.2933 228.135 82.6853 229.869 84.28C231.637 85.8747 234.081 86.672 237.201 86.672C239.905 86.672 241.933 86.0827 243.285 84.904C244.671 83.6907 245.365 82.096 245.365 80.12V79.808C245.365 77.9013 244.654 76.4453 243.233 75.44C241.846 74.4347 239.575 73.7067 236.421 73.256C234.583 73.0133 232.919 72.6493 231.429 72.164C229.973 71.644 228.725 70.9853 227.685 70.188C226.645 69.356 225.847 68.368 225.293 67.224C224.738 66.08 224.461 64.728 224.461 63.168V62.544C224.461 61.1227 224.755 59.8227 225.345 58.644C225.934 57.4653 226.749 56.4427 227.789 55.576C228.863 54.7093 230.129 54.0507 231.585 53.6C233.075 53.1147 234.705 52.872 236.473 52.872C238.518 52.872 240.338 53.1667 241.933 53.756C243.562 54.3453 244.931 55.1427 246.041 56.148C247.15 57.1187 247.982 58.28 248.537 59.632C249.126 60.9493 249.421 62.336 249.421 63.792V65.976H245.053V64.104ZM264.932 56.512C264.932 55.5067 265.279 54.6573 265.972 53.964C266.7 53.236 267.567 52.872 268.572 52.872C269.578 52.872 270.427 53.236 271.12 53.964C271.848 54.6573 272.212 55.5067 272.212 56.512C272.212 57.5173 271.848 58.384 271.12 59.112C270.427 59.8053 269.578 60.152 268.572 60.152C267.567 60.152 266.7 59.8053 265.972 59.112C265.279 58.384 264.932 57.5173 264.932 56.512ZM257.548 86.256H266.596V67.952H258.484V64.208H270.652V86.256H279.076V90H257.548V86.256ZM308.368 86.048H307.744C306.912 87.608 305.768 88.7867 304.312 89.584C302.891 90.3467 301.331 90.728 299.632 90.728C297.899 90.728 296.27 90.4333 294.744 89.844C293.219 89.2547 291.867 88.4053 290.688 87.296C289.544 86.1867 288.626 84.8173 287.932 83.188C287.274 81.524 286.944 79.6347 286.944 77.52V76.688C286.944 74.608 287.291 72.7533 287.984 71.124C288.678 69.46 289.596 68.0733 290.74 66.964C291.884 65.82 293.219 64.9533 294.744 64.364C296.27 63.7747 297.864 63.48 299.528 63.48C301.4 63.48 303.03 63.896 304.416 64.728C305.838 65.5253 306.947 66.704 307.744 68.264H308.368V64.208H312.424V96.344C312.424 97.5227 312.043 98.4933 311.28 99.256C310.552 100.019 309.599 100.4 308.42 100.4H291.624V96.656H306.964C307.9 96.656 308.368 96.136 308.368 95.096V86.048ZM299.736 86.88C300.95 86.88 302.076 86.6547 303.116 86.204C304.156 85.7533 305.058 85.112 305.82 84.28C306.618 83.448 307.242 82.46 307.692 81.316C308.143 80.1373 308.368 78.8373 308.368 77.416V76.792C308.368 75.4053 308.143 74.14 307.692 72.996C307.242 71.8173 306.618 70.812 305.82 69.98C305.058 69.148 304.139 68.5067 303.064 68.056C302.024 67.5707 300.915 67.328 299.736 67.328C298.523 67.328 297.379 67.5533 296.304 68.004C295.264 68.4547 294.346 69.096 293.548 69.928C292.786 70.76 292.179 71.748 291.728 72.892C291.312 74.036 291.104 75.3013 291.104 76.688V77.52C291.104 78.976 291.312 80.276 291.728 81.42C292.179 82.564 292.786 83.552 293.548 84.384C294.346 85.1813 295.264 85.8053 296.304 86.256C297.344 86.672 298.488 86.88 299.736 86.88ZM324.66 90H320.604V64.208H324.66V68.576H325.284C326.879 65.1787 329.652 63.48 333.604 63.48C336.585 63.48 338.96 64.416 340.728 66.288C342.496 68.1253 343.38 70.8987 343.38 74.608V90H339.324V75.44C339.324 72.736 338.717 70.708 337.504 69.356C336.291 68.004 334.644 67.328 332.564 67.328C330.103 67.328 328.161 68.1773 326.74 69.876C325.353 71.54 324.66 73.776 324.66 76.584V90ZM387.56 53.6V77.728C387.56 80.6747 388.236 82.9107 389.588 84.436C390.974 85.9267 393.002 86.672 395.672 86.672C398.341 86.672 400.352 85.9267 401.704 84.436C403.09 82.9107 403.784 80.6747 403.784 77.728V53.6H408.152V77.728C408.152 81.9573 407.042 85.1813 404.824 87.4C402.605 89.6187 399.554 90.728 395.672 90.728C391.789 90.728 388.738 89.6187 386.52 87.4C384.301 85.1813 383.192 81.9573 383.192 77.728V53.6H387.56ZM419.244 100.4H415.188V64.208H419.244V68.264H419.868C420.769 66.704 422.017 65.5253 423.612 64.728C425.206 63.896 426.94 63.48 428.812 63.48C430.406 63.48 431.914 63.7747 433.336 64.364C434.757 64.9533 436.005 65.8027 437.08 66.912C438.189 68.0213 439.056 69.3907 439.68 71.02C440.338 72.6493 440.668 74.504 440.668 76.584V77.624C440.668 79.7387 440.356 81.6107 439.732 83.24C439.108 84.8693 438.241 86.2387 437.132 87.348C436.057 88.4573 434.792 89.3067 433.336 89.896C431.88 90.4507 430.337 90.728 428.708 90.728C427.876 90.728 427.026 90.624 426.16 90.416C425.293 90.2427 424.461 89.9653 423.664 89.584C422.901 89.168 422.19 88.6827 421.532 88.128C420.873 87.5387 420.318 86.8453 419.868 86.048H419.244V100.4ZM427.876 86.88C429.124 86.88 430.268 86.672 431.308 86.256C432.348 85.8053 433.249 85.1813 434.012 84.384C434.809 83.5867 435.416 82.616 435.832 81.472C436.282 80.328 436.508 79.0453 436.508 77.624V76.584C436.508 75.1973 436.282 73.9493 435.832 72.84C435.416 71.696 434.809 70.7253 434.012 69.928C433.249 69.096 432.33 68.4547 431.256 68.004C430.216 67.5533 429.089 67.328 427.876 67.328C426.662 67.328 425.536 67.5707 424.496 68.056C423.456 68.5067 422.537 69.148 421.74 69.98C420.977 70.812 420.37 71.8173 419.92 72.996C419.469 74.14 419.244 75.4053 419.244 76.792V77.416C419.244 78.8373 419.469 80.1373 419.92 81.316C420.37 82.46 420.977 83.448 421.74 84.28C422.537 85.112 423.456 85.7533 424.496 86.204C425.536 86.6547 426.662 86.88 427.876 86.88Z" fill="white"/>
</svg>
