<svg width="630" height="150" viewBox="0 0 630 150" fill="none" xmlns="http://www.w3.org/2000/svg">
<rect width="630" height="150" fill="#9E5A63"/>
<path d="M243.972 64.104C243.972 62.9253 243.73 61.8853 243.244 60.984C242.794 60.0827 242.17 59.3373 241.372 58.748C240.575 58.1587 239.656 57.708 238.616 57.396C237.576 57.084 236.484 56.928 235.34 56.928C234.335 56.928 233.382 57.0667 232.48 57.344C231.579 57.5867 230.764 57.9507 230.036 58.436C229.343 58.9213 228.788 59.528 228.372 60.256C227.956 60.9493 227.748 61.764 227.748 62.7V63.012C227.748 64.0173 227.956 64.884 228.372 65.612C228.788 66.3053 229.395 66.912 230.192 67.432C231.024 67.9173 232.047 68.3333 233.26 68.68C234.474 68.992 235.895 69.2693 237.524 69.512C241.338 70.1013 244.146 71.228 245.948 72.892C247.751 74.5213 248.652 76.7227 248.652 79.496V80.12C248.652 81.68 248.375 83.1187 247.82 84.436C247.3 85.7187 246.503 86.828 245.428 87.764C244.388 88.7 243.088 89.428 241.528 89.948C239.968 90.468 238.166 90.728 236.12 90.728C233.798 90.728 231.735 90.3987 229.932 89.74C228.164 89.0467 226.674 88.1107 225.46 86.932C224.282 85.7187 223.38 84.3147 222.756 82.72C222.132 81.0907 221.82 79.3227 221.82 77.416V75.856H226.188V77.104C226.188 80.2933 227.055 82.6853 228.788 84.28C230.556 85.8747 233 86.672 236.12 86.672C238.824 86.672 240.852 86.0827 242.204 84.904C243.591 83.6907 244.284 82.096 244.284 80.12V79.808C244.284 77.9013 243.574 76.4453 242.152 75.44C240.766 74.4347 238.495 73.7067 235.34 73.256C233.503 73.0133 231.839 72.6493 230.348 72.164C228.892 71.644 227.644 70.9853 226.604 70.188C225.564 69.356 224.767 68.368 224.212 67.224C223.658 66.08 223.38 64.728 223.38 63.168V62.544C223.38 61.1227 223.675 59.8227 224.264 58.644C224.854 57.4653 225.668 56.4427 226.708 55.576C227.783 54.7093 229.048 54.0507 230.504 53.6C231.995 53.1147 233.624 52.872 235.392 52.872C237.438 52.872 239.258 53.1667 240.852 53.756C242.482 54.3453 243.851 55.1427 244.96 56.148C246.07 57.1187 246.902 58.28 247.456 59.632C248.046 60.9493 248.34 62.336 248.34 63.792V65.976H243.972V64.104ZM274.252 64.208H278.308V90H274.252V85.32H273.628C272.796 86.984 271.704 88.3013 270.352 89.272C269 90.2427 267.284 90.728 265.204 90.728C263.783 90.728 262.466 90.4853 261.252 90C260.074 89.5493 259.051 88.856 258.184 87.92C257.352 86.984 256.694 85.8227 256.208 84.436C255.758 83.0493 255.532 81.4373 255.532 79.6V64.208H259.588V79.08C259.588 81.784 260.143 83.76 261.252 85.008C262.362 86.256 264.06 86.88 266.348 86.88C268.81 86.88 270.734 86.048 272.12 84.384C273.542 82.6853 274.252 80.432 274.252 77.624V64.208ZM290.804 90H286.748V53.6H290.804V68.264H291.428C292.329 66.704 293.577 65.5253 295.172 64.728C296.767 63.896 298.5 63.48 300.372 63.48C301.967 63.48 303.475 63.7747 304.896 64.364C306.317 64.9533 307.565 65.8027 308.64 66.912C309.749 68.0213 310.616 69.3907 311.24 71.02C311.899 72.6493 312.228 74.504 312.228 76.584V77.624C312.228 79.7387 311.916 81.6107 311.292 83.24C310.668 84.8693 309.801 86.2387 308.692 87.348C307.617 88.4573 306.352 89.3067 304.896 89.896C303.44 90.4507 301.897 90.728 300.268 90.728C299.436 90.728 298.587 90.624 297.72 90.416C296.853 90.2427 296.021 89.9653 295.224 89.584C294.461 89.168 293.751 88.6827 293.092 88.128C292.433 87.5387 291.879 86.8453 291.428 86.048H290.804V90ZM299.436 86.88C300.684 86.88 301.828 86.672 302.868 86.256C303.908 85.8053 304.809 85.1813 305.572 84.384C306.369 83.5867 306.976 82.616 307.392 81.472C307.843 80.328 308.068 79.0453 308.068 77.624V76.584C308.068 75.1973 307.843 73.9493 307.392 72.84C306.976 71.696 306.369 70.7253 305.572 69.928C304.809 69.096 303.891 68.4547 302.816 68.004C301.776 67.5533 300.649 67.328 299.436 67.328C298.223 67.328 297.096 67.5707 296.056 68.056C295.016 68.5067 294.097 69.148 293.3 69.98C292.537 70.812 291.931 71.8173 291.48 72.996C291.029 74.14 290.804 75.4053 290.804 76.792V77.416C290.804 78.8373 291.029 80.1373 291.48 81.316C291.931 82.46 292.537 83.448 293.3 84.28C294.097 85.112 295.016 85.7533 296.056 86.204C297.096 86.6547 298.223 86.88 299.436 86.88ZM344.328 90H340.272V71.488C340.272 70.2747 339.995 69.2867 339.44 68.524C338.885 67.7267 338.001 67.328 336.788 67.328C335.644 67.328 334.708 67.7613 333.98 68.628C333.287 69.46 332.94 70.76 332.94 72.528V90H328.884V71.28C328.884 70.136 328.572 69.2 327.948 68.472C327.324 67.7093 326.492 67.328 325.452 67.328C324.204 67.328 323.233 67.7787 322.54 68.68C321.881 69.5813 321.552 70.76 321.552 72.216V90H317.496V64.208H321.552V67.016H322.176C322.627 65.8027 323.285 64.9187 324.152 64.364C325.019 63.7747 326.041 63.48 327.22 63.48C328.468 63.48 329.491 63.8093 330.288 64.468C331.12 65.1267 331.692 65.976 332.004 67.016H332.628C333.807 64.6587 335.679 63.48 338.244 63.48C340.185 63.48 341.676 64.104 342.716 65.352C343.791 66.5653 344.328 68.16 344.328 70.136V90ZM359.372 56.512C359.372 55.5067 359.719 54.6573 360.412 53.964C361.14 53.236 362.007 52.872 363.012 52.872C364.017 52.872 364.867 53.236 365.56 53.964C366.288 54.6573 366.652 55.5067 366.652 56.512C366.652 57.5173 366.288 58.384 365.56 59.112C364.867 59.8053 364.017 60.152 363.012 60.152C362.007 60.152 361.14 59.8053 360.412 59.112C359.719 58.384 359.372 57.5173 359.372 56.512ZM351.988 86.256H361.036V67.952H352.924V64.208H365.092V86.256H373.516V90H351.988V86.256ZM382.32 64.208H390.432V53.6H394.488V64.208H404.472V67.952H394.488V84.696C394.488 85.736 394.956 86.256 395.892 86.256H403.224V90H394.436C393.257 90 392.286 89.6187 391.524 88.856C390.796 88.0933 390.432 87.1227 390.432 85.944V67.952H382.32V64.208Z" fill="white"/>
</svg>
