<svg width="976" height="640" viewBox="0 0 976 640" fill="none" xmlns="http://www.w3.org/2000/svg">
<rect x="4.5" y="2.5" width="945" height="635" stroke="#314455" stroke-width="5"/>
<line x1="2" y1="319.5" x2="952" y2="319.5" stroke="black"/>
<line x1="2" y1="79.5" x2="952" y2="79.5" stroke="black"/>
<line x1="2" y1="159.5" x2="952" y2="159.5" stroke="black"/>
<line x1="2" y1="239.5" x2="952" y2="239.5" stroke="black"/>
<line x1="2" y1="399.5" x2="952" y2="399.5" stroke="black"/>
<line x1="2" y1="559.5" x2="952" y2="559.5" stroke="black"/>
<line x1="1" y1="480.5" x2="951" y2="480.5" stroke="black"/>
<line x1="321.5" y1="4" x2="321.5" y2="640" stroke="black"/>
<line x1="251.5" y1="4" x2="251.5" y2="640" stroke="black"/>
<line x1="181.5" y1="4" x2="181.5" y2="640" stroke="black"/>
<line x1="951.5" y1="2" x2="951.5" y2="638" stroke="black"/>
<line x1="533.5" y1="2" x2="533.5" y2="638" stroke="black"/>
<line x1="533.5" y1="2" x2="533.5" y2="638" stroke="black"/>
<line x1="741.5" y1="2" x2="741.5" y2="638" stroke="black"/>
<line opacity="0.9" x1="671.5" y1="2" x2="671.5" y2="638" stroke="black"/>
<line x1="601.5" y1="2" x2="601.5" y2="638" stroke="black"/>
<line x1="391.5" y1="4" x2="391.5" y2="640" stroke="black"/>
<line x1="461.5" y1="4" x2="461.5" y2="640" stroke="black"/>
<line x1="811.5" x2="811.5" y2="636" stroke="black"/>
<line x1="881.5" x2="881.5" y2="636" stroke="black"/>
<line x1="111.5" x2="111.5" y2="636" stroke="black"/>
<path d="M33.7963 117.48C33.7963 117.84 33.9463 118.115 34.2463 118.305C34.5563 118.495 35.1163 118.62 35.9263 118.68C36.7963 118.75 37.4563 118.96 37.9063 119.31C38.3663 119.65 38.5963 120.15 38.5963 120.81V120.9C38.5963 121.26 38.5213 121.585 38.3713 121.875C38.2313 122.155 38.0313 122.395 37.7713 122.595C37.5213 122.795 37.2113 122.945 36.8413 123.045C36.4813 123.155 36.0863 123.21 35.6563 123.21C35.0763 123.21 34.5763 123.135 34.1563 122.985C33.7463 122.825 33.4013 122.62 33.1213 122.37C32.8513 122.11 32.6463 121.82 32.5063 121.5C32.3663 121.17 32.2863 120.84 32.2663 120.51L33.3763 120.24C33.4263 120.81 33.6463 121.27 34.0363 121.62C34.4263 121.96 34.9463 122.13 35.5963 122.13C36.1463 122.13 36.5863 122.025 36.9163 121.815C37.2563 121.595 37.4263 121.29 37.4263 120.9C37.4263 120.48 37.2613 120.18 36.9313 120C36.6013 119.82 36.0663 119.705 35.3263 119.655C34.4663 119.595 33.8063 119.395 33.3463 119.055C32.8863 118.715 32.6563 118.22 32.6563 117.57V117.48C32.6563 117.13 32.7313 116.825 32.8813 116.565C33.0313 116.295 33.2313 116.07 33.4813 115.89C33.7413 115.71 34.0313 115.575 34.3513 115.485C34.6713 115.395 35.0063 115.35 35.3563 115.35C35.8463 115.35 36.2763 115.42 36.6463 115.56C37.0163 115.69 37.3263 115.865 37.5763 116.085C37.8263 116.295 38.0163 116.54 38.1463 116.82C38.2863 117.1 38.3763 117.38 38.4163 117.66L37.3063 117.93C37.2563 117.45 37.0613 117.075 36.7213 116.805C36.3913 116.535 35.9563 116.4 35.4163 116.4C35.2063 116.4 35.0013 116.425 34.8013 116.475C34.6113 116.515 34.4413 116.58 34.2913 116.67C34.1413 116.76 34.0213 116.875 33.9313 117.015C33.8413 117.145 33.7963 117.3 33.7963 117.48ZM46.7459 115.56H47.9159V123H46.7459V121.65H46.5659C46.3259 122.13 46.0109 122.51 45.6209 122.79C45.2309 123.07 44.7359 123.21 44.1359 123.21C43.7259 123.21 43.3459 123.14 42.9959 123C42.6559 122.87 42.3609 122.67 42.1109 122.4C41.8709 122.13 41.6809 121.795 41.5409 121.395C41.4109 120.995 41.3459 120.53 41.3459 120V115.56H42.5159V119.85C42.5159 120.63 42.6759 121.2 42.9959 121.56C43.3159 121.92 43.8059 122.1 44.4659 122.1C45.1759 122.1 45.7309 121.86 46.1309 121.38C46.5409 120.89 46.7459 120.24 46.7459 119.43V115.56ZM51.7904 123H50.6204V115.56H51.7904V116.82H51.9704C52.4304 115.84 53.2304 115.35 54.3704 115.35C55.2304 115.35 55.9154 115.62 56.4254 116.16C56.9354 116.69 57.1904 117.49 57.1904 118.56V123H56.0204V118.8C56.0204 118.02 55.8454 117.435 55.4954 117.045C55.1454 116.655 54.6704 116.46 54.0704 116.46C53.3604 116.46 52.8004 116.705 52.3904 117.195C51.9904 117.675 51.7904 118.32 51.7904 119.13V123ZM65.565 121.86H65.385C65.265 122.09 65.11 122.29 64.92 122.46C64.74 122.63 64.54 122.77 64.32 122.88C64.11 122.99 63.885 123.07 63.645 123.12C63.405 123.18 63.175 123.21 62.955 123.21C62.455 123.21 61.99 123.125 61.56 122.955C61.13 122.785 60.75 122.54 60.42 122.22C60.1 121.9 59.845 121.505 59.655 121.035C59.475 120.555 59.385 120.01 59.385 119.4V119.16C59.385 118.56 59.48 118.025 59.67 117.555C59.86 117.075 60.115 116.675 60.435 116.355C60.755 116.025 61.13 115.775 61.56 115.605C61.99 115.435 62.445 115.35 62.925 115.35C63.435 115.35 63.91 115.465 64.35 115.695C64.8 115.915 65.145 116.26 65.385 116.73H65.565V112.5H66.735V123H65.565V121.86ZM63.075 122.1C63.425 122.1 63.75 122.035 64.05 121.905C64.35 121.775 64.61 121.59 64.83 121.35C65.06 121.11 65.24 120.825 65.37 120.495C65.5 120.155 65.565 119.78 65.565 119.37V119.19C65.565 118.79 65.5 118.425 65.37 118.095C65.24 117.755 65.06 117.465 64.83 117.225C64.61 116.985 64.345 116.8 64.035 116.67C63.735 116.53 63.415 116.46 63.075 116.46C62.725 116.46 62.395 116.525 62.085 116.655C61.785 116.785 61.52 116.97 61.29 117.21C61.07 117.45 60.895 117.735 60.765 118.065C60.645 118.395 60.585 118.76 60.585 119.16V119.4C60.585 119.82 60.645 120.195 60.765 120.525C60.895 120.855 61.07 121.14 61.29 121.38C61.52 121.61 61.785 121.79 62.085 121.92C62.385 122.04 62.715 122.1 63.075 122.1ZM74.3896 121.74H74.2096C73.9696 122.24 73.6346 122.61 73.2046 122.85C72.7846 123.09 72.3396 123.21 71.8696 123.21C71.3796 123.21 70.9246 123.13 70.5046 122.97C70.0846 122.8 69.7146 122.555 69.3946 122.235C69.0846 121.905 68.8396 121.505 68.6596 121.035C68.4796 120.565 68.3896 120.02 68.3896 119.4V119.16C68.3896 118.55 68.4796 118.01 68.6596 117.54C68.8396 117.07 69.0846 116.675 69.3946 116.355C69.7146 116.025 70.0846 115.775 70.5046 115.605C70.9246 115.435 71.3696 115.35 71.8396 115.35C72.3496 115.35 72.8096 115.465 73.2196 115.695C73.6396 115.915 73.9696 116.26 74.2096 116.73H74.3896V115.56H75.5596V121.47C75.5596 121.77 75.6946 121.92 75.9646 121.92H76.3396V123H75.5446C75.2046 123 74.9246 122.89 74.7046 122.67C74.4946 122.45 74.3896 122.17 74.3896 121.83V121.74ZM71.9896 122.1C72.3396 122.1 72.6596 122.035 72.9496 121.905C73.2496 121.775 73.5046 121.59 73.7146 121.35C73.9246 121.11 74.0896 120.825 74.2096 120.495C74.3296 120.155 74.3896 119.78 74.3896 119.37V119.19C74.3896 118.79 74.3296 118.425 74.2096 118.095C74.0896 117.755 73.9196 117.465 73.6996 117.225C73.4896 116.985 73.2346 116.8 72.9346 116.67C72.6446 116.53 72.3296 116.46 71.9896 116.46C71.6396 116.46 71.3196 116.525 71.0296 116.655C70.7396 116.785 70.4846 116.97 70.2646 117.21C70.0546 117.44 69.8896 117.725 69.7696 118.065C69.6496 118.395 69.5896 118.76 69.5896 119.16V119.4C69.5896 120.25 69.8096 120.915 70.2496 121.395C70.6996 121.865 71.2796 122.1 71.9896 122.1ZM83.5741 121.65H83.3941C83.1541 122.13 82.8391 122.51 82.4491 122.79C82.0591 123.07 81.5641 123.21 80.9641 123.21C80.5541 123.21 80.1741 123.14 79.8241 123C79.4841 122.87 79.1891 122.67 78.9391 122.4C78.6991 122.13 78.5091 121.795 78.3691 121.395C78.2391 120.995 78.1741 120.53 78.1741 120V115.56H79.3441V119.85C79.3441 120.63 79.5041 121.2 79.8241 121.56C80.1441 121.92 80.6341 122.1 81.2941 122.1C82.0041 122.1 82.5591 121.86 82.9591 121.38C83.3691 120.89 83.5741 120.24 83.5741 119.43V115.56H84.7441V124.83C84.7441 125.17 84.6341 125.45 84.4141 125.67C84.2041 125.89 83.9291 126 83.5891 126H79.3441V124.92H83.1691C83.4391 124.92 83.5741 124.77 83.5741 124.47V121.65Z" fill="#314455"/>
<path d="M39.4063 205H38.2363V199.66C38.2363 199.31 38.1563 199.025 37.9963 198.805C37.8363 198.575 37.5813 198.46 37.2313 198.46C36.9013 198.46 36.6313 198.585 36.4213 198.835C36.2213 199.075 36.1213 199.45 36.1213 199.96V205H34.9513V199.6C34.9513 199.27 34.8613 199 34.6813 198.79C34.5013 198.57 34.2613 198.46 33.9613 198.46C33.6013 198.46 33.3213 198.59 33.1213 198.85C32.9313 199.11 32.8363 199.45 32.8363 199.87V205H31.6663V197.56H32.8363V198.37H33.0163C33.1463 198.02 33.3363 197.765 33.5863 197.605C33.8363 197.435 34.1313 197.35 34.4713 197.35C34.8313 197.35 35.1263 197.445 35.3563 197.635C35.5963 197.825 35.7613 198.07 35.8513 198.37H36.0313C36.3713 197.69 36.9113 197.35 37.6513 197.35C38.2113 197.35 38.6413 197.53 38.9413 197.89C39.2513 198.24 39.4063 198.7 39.4063 199.27V205ZM48.4559 201.37C48.4559 201.99 48.3509 202.54 48.1409 203.02C47.9409 203.49 47.6709 203.89 47.3309 204.22C46.9909 204.54 46.5909 204.785 46.1309 204.955C45.6809 205.125 45.2109 205.21 44.7209 205.21C44.2209 205.21 43.7459 205.125 43.2959 204.955C42.8459 204.785 42.4509 204.54 42.1109 204.22C41.7709 203.89 41.4959 203.49 41.2859 203.02C41.0859 202.54 40.9859 201.99 40.9859 201.37V201.19C40.9859 200.58 41.0859 200.04 41.2859 199.57C41.4959 199.09 41.7709 198.685 42.1109 198.355C42.4609 198.025 42.8609 197.775 43.3109 197.605C43.7609 197.435 44.2309 197.35 44.7209 197.35C45.2109 197.35 45.6809 197.435 46.1309 197.605C46.5809 197.775 46.9759 198.025 47.3159 198.355C47.6659 198.685 47.9409 199.09 48.1409 199.57C48.3509 200.04 48.4559 200.58 48.4559 201.19V201.37ZM44.7209 204.1C45.0809 204.1 45.4109 204.04 45.7109 203.92C46.0209 203.79 46.2909 203.605 46.5209 203.365C46.7509 203.125 46.9309 202.84 47.0609 202.51C47.1909 202.17 47.2559 201.79 47.2559 201.37V201.19C47.2559 200.79 47.1909 200.425 47.0609 200.095C46.9309 199.755 46.7509 199.465 46.5209 199.225C46.2909 198.985 46.0209 198.8 45.7109 198.67C45.4009 198.53 45.0709 198.46 44.7209 198.46C44.3709 198.46 44.0409 198.53 43.7309 198.67C43.4209 198.8 43.1509 198.985 42.9209 199.225C42.6909 199.465 42.5109 199.755 42.3809 200.095C42.2509 200.425 42.1859 200.79 42.1859 201.19V201.37C42.1859 201.79 42.2509 202.17 42.3809 202.51C42.5109 202.84 42.6909 203.125 42.9209 203.365C43.1509 203.605 43.4159 203.79 43.7159 203.92C44.0259 204.04 44.3609 204.1 44.7209 204.1ZM51.7904 205H50.6204V197.56H51.7904V198.82H51.9704C52.4304 197.84 53.2304 197.35 54.3704 197.35C55.2304 197.35 55.9154 197.62 56.4254 198.16C56.9354 198.69 57.1904 199.49 57.1904 200.56V205H56.0204V200.8C56.0204 200.02 55.8454 199.435 55.4954 199.045C55.1454 198.655 54.6704 198.46 54.0704 198.46C53.3604 198.46 52.8004 198.705 52.3904 199.195C51.9904 199.675 51.7904 200.32 51.7904 201.13V205ZM65.565 203.86H65.385C65.265 204.09 65.11 204.29 64.92 204.46C64.74 204.63 64.54 204.77 64.32 204.88C64.11 204.99 63.885 205.07 63.645 205.12C63.405 205.18 63.175 205.21 62.955 205.21C62.455 205.21 61.99 205.125 61.56 204.955C61.13 204.785 60.75 204.54 60.42 204.22C60.1 203.9 59.845 203.505 59.655 203.035C59.475 202.555 59.385 202.01 59.385 201.4V201.16C59.385 200.56 59.48 200.025 59.67 199.555C59.86 199.075 60.115 198.675 60.435 198.355C60.755 198.025 61.13 197.775 61.56 197.605C61.99 197.435 62.445 197.35 62.925 197.35C63.435 197.35 63.91 197.465 64.35 197.695C64.8 197.915 65.145 198.26 65.385 198.73H65.565V194.5H66.735V205H65.565V203.86ZM63.075 204.1C63.425 204.1 63.75 204.035 64.05 203.905C64.35 203.775 64.61 203.59 64.83 203.35C65.06 203.11 65.24 202.825 65.37 202.495C65.5 202.155 65.565 201.78 65.565 201.37V201.19C65.565 200.79 65.5 200.425 65.37 200.095C65.24 199.755 65.06 199.465 64.83 199.225C64.61 198.985 64.345 198.8 64.035 198.67C63.735 198.53 63.415 198.46 63.075 198.46C62.725 198.46 62.395 198.525 62.085 198.655C61.785 198.785 61.52 198.97 61.29 199.21C61.07 199.45 60.895 199.735 60.765 200.065C60.645 200.395 60.585 200.76 60.585 201.16V201.4C60.585 201.82 60.645 202.195 60.765 202.525C60.895 202.855 61.07 203.14 61.29 203.38C61.52 203.61 61.785 203.79 62.085 203.92C62.385 204.04 62.715 204.1 63.075 204.1ZM74.3896 203.74H74.2096C73.9696 204.24 73.6346 204.61 73.2046 204.85C72.7846 205.09 72.3396 205.21 71.8696 205.21C71.3796 205.21 70.9246 205.13 70.5046 204.97C70.0846 204.8 69.7146 204.555 69.3946 204.235C69.0846 203.905 68.8396 203.505 68.6596 203.035C68.4796 202.565 68.3896 202.02 68.3896 201.4V201.16C68.3896 200.55 68.4796 200.01 68.6596 199.54C68.8396 199.07 69.0846 198.675 69.3946 198.355C69.7146 198.025 70.0846 197.775 70.5046 197.605C70.9246 197.435 71.3696 197.35 71.8396 197.35C72.3496 197.35 72.8096 197.465 73.2196 197.695C73.6396 197.915 73.9696 198.26 74.2096 198.73H74.3896V197.56H75.5596V203.47C75.5596 203.77 75.6946 203.92 75.9646 203.92H76.3396V205H75.5446C75.2046 205 74.9246 204.89 74.7046 204.67C74.4946 204.45 74.3896 204.17 74.3896 203.83V203.74ZM71.9896 204.1C72.3396 204.1 72.6596 204.035 72.9496 203.905C73.2496 203.775 73.5046 203.59 73.7146 203.35C73.9246 203.11 74.0896 202.825 74.2096 202.495C74.3296 202.155 74.3896 201.78 74.3896 201.37V201.19C74.3896 200.79 74.3296 200.425 74.2096 200.095C74.0896 199.755 73.9196 199.465 73.6996 199.225C73.4896 198.985 73.2346 198.8 72.9346 198.67C72.6446 198.53 72.3296 198.46 71.9896 198.46C71.6396 198.46 71.3196 198.525 71.0296 198.655C70.7396 198.785 70.4846 198.97 70.2646 199.21C70.0546 199.44 69.8896 199.725 69.7696 200.065C69.6496 200.395 69.5896 200.76 69.5896 201.16V201.4C69.5896 202.25 69.8096 202.915 70.2496 203.395C70.6996 203.865 71.2796 204.1 71.9896 204.1ZM83.5741 203.65H83.3941C83.1541 204.13 82.8391 204.51 82.4491 204.79C82.0591 205.07 81.5641 205.21 80.9641 205.21C80.5541 205.21 80.1741 205.14 79.8241 205C79.4841 204.87 79.1891 204.67 78.9391 204.4C78.6991 204.13 78.5091 203.795 78.3691 203.395C78.2391 202.995 78.1741 202.53 78.1741 202V197.56H79.3441V201.85C79.3441 202.63 79.5041 203.2 79.8241 203.56C80.1441 203.92 80.6341 204.1 81.2941 204.1C82.0041 204.1 82.5591 203.86 82.9591 203.38C83.3691 202.89 83.5741 202.24 83.5741 201.43V197.56H84.7441V206.83C84.7441 207.17 84.6341 207.45 84.4141 207.67C84.2041 207.89 83.9291 208 83.5891 208H79.3441V206.92H83.1691C83.4391 206.92 83.5741 206.77 83.5741 206.47V203.65Z" fill="#314455"/>
<path d="M28.6909 41.056H30.8749V38.2H31.9669V41.056H34.6549V42.064H31.9669V46.572C31.9669 46.852 32.0929 46.992 32.3449 46.992H34.3189V48H31.9529C31.6356 48 31.3743 47.8973 31.1689 47.692C30.9729 47.4867 30.8749 47.2253 30.8749 46.908V42.064H28.6909V41.056ZM39.6572 38.984C39.6572 38.7133 39.7505 38.4847 39.9372 38.298C40.1332 38.102 40.3665 38.004 40.6372 38.004C40.9079 38.004 41.1365 38.102 41.3232 38.298C41.5192 38.4847 41.6172 38.7133 41.6172 38.984C41.6172 39.2547 41.5192 39.488 41.3232 39.684C41.1365 39.8707 40.9079 39.964 40.6372 39.964C40.3665 39.964 40.1332 39.8707 39.9372 39.684C39.7505 39.488 39.6572 39.2547 39.6572 38.984ZM37.6692 46.992H40.1052V42.064H37.9212V41.056H41.1972V46.992H43.4652V48H37.6692V46.992ZM52.7515 48H51.6595V43.016C51.6595 42.6893 51.5848 42.4233 51.4355 42.218C51.2861 42.0033 51.0481 41.896 50.7215 41.896C50.4135 41.896 50.1615 42.0127 49.9655 42.246C49.7788 42.47 49.6855 42.82 49.6855 43.296V48H48.5935V42.96C48.5935 42.652 48.5095 42.4 48.3415 42.204C48.1735 41.9987 47.9495 41.896 47.6695 41.896C47.3335 41.896 47.0721 42.0173 46.8855 42.26C46.7081 42.5027 46.6195 42.82 46.6195 43.212V48H45.5275V41.056H46.6195V41.812H46.7875C46.9088 41.4853 47.0861 41.2473 47.3195 41.098C47.5528 40.9393 47.8281 40.86 48.1455 40.86C48.4815 40.86 48.7568 40.9487 48.9715 41.126C49.1955 41.3033 49.3495 41.532 49.4335 41.812H49.6015C49.9188 41.1773 50.4228 40.86 51.1135 40.86C51.6361 40.86 52.0375 41.028 52.3175 41.364C52.6068 41.6907 52.7515 42.12 52.7515 42.652V48ZM55.4437 44.864C55.4717 45.5547 55.6864 46.11 56.0877 46.53C56.4891 46.95 57.0491 47.16 57.7677 47.16C58.0944 47.16 58.3791 47.1227 58.6217 47.048C58.8644 46.9733 59.0697 46.8707 59.2377 46.74C59.4151 46.6093 59.5551 46.46 59.6577 46.292C59.7697 46.1147 59.8584 45.928 59.9237 45.732L60.9597 46.012C60.7637 46.656 60.3997 47.1833 59.8677 47.594C59.3451 47.9953 58.6357 48.196 57.7397 48.196C57.2451 48.196 56.7877 48.112 56.3677 47.944C55.9571 47.7667 55.6024 47.5193 55.3037 47.202C55.0051 46.8847 54.7717 46.5067 54.6037 46.068C54.4357 45.6293 54.3517 45.144 54.3517 44.612V44.276C54.3517 43.7907 54.4357 43.338 54.6037 42.918C54.7811 42.498 55.0237 42.1387 55.3317 41.84C55.6397 41.532 55.9991 41.294 56.4097 41.126C56.8297 40.9487 57.2824 40.86 57.7677 40.86C58.3371 40.86 58.8271 40.9673 59.2377 41.182C59.6577 41.3873 59.9984 41.644 60.2597 41.952C60.5304 42.26 60.7264 42.596 60.8477 42.96C60.9784 43.324 61.0437 43.66 61.0437 43.968V44.864H55.4437ZM57.7677 41.896C57.4597 41.896 57.1704 41.9473 56.8997 42.05C56.6384 42.1433 56.4051 42.2787 56.1997 42.456C56.0037 42.6333 55.8404 42.8433 55.7097 43.086C55.5884 43.3193 55.5091 43.576 55.4717 43.856H59.9517C59.9331 43.5573 59.8584 43.2867 59.7277 43.044C59.6064 42.8013 59.4431 42.596 59.2377 42.428C59.0417 42.26 58.8131 42.1293 58.5517 42.036C58.2997 41.9427 58.0384 41.896 57.7677 41.896ZM68.818 49.176L67.824 49.484L63.75 37.024L64.73 36.716L68.818 49.176ZM77.1663 46.936H76.9983C76.8863 47.1507 76.7416 47.3373 76.5643 47.496C76.3963 47.6547 76.2096 47.7853 76.0043 47.888C75.8083 47.9907 75.5983 48.0653 75.3743 48.112C75.1503 48.168 74.9356 48.196 74.7303 48.196C74.2636 48.196 73.8296 48.1167 73.4283 47.958C73.0269 47.7993 72.6723 47.5707 72.3643 47.272C72.0656 46.9733 71.8276 46.6047 71.6503 46.166C71.4823 45.718 71.3983 45.2093 71.3983 44.64V44.416C71.3983 43.856 71.4869 43.3567 71.6643 42.918C71.8416 42.47 72.0796 42.0967 72.3783 41.798C72.6769 41.49 73.0269 41.2567 73.4283 41.098C73.8296 40.9393 74.2543 40.86 74.7023 40.86C75.1783 40.86 75.6216 40.9673 76.0323 41.182C76.4523 41.3873 76.7743 41.7093 76.9983 42.148H77.1663V38.2H78.2583V48H77.1663V46.936ZM74.8423 47.16C75.1689 47.16 75.4723 47.0993 75.7523 46.978C76.0323 46.8567 76.2749 46.684 76.4803 46.46C76.6949 46.236 76.8629 45.97 76.9843 45.662C77.1056 45.3447 77.1663 44.9947 77.1663 44.612V44.444C77.1663 44.0707 77.1056 43.73 76.9843 43.422C76.8629 43.1047 76.6949 42.834 76.4803 42.61C76.2749 42.386 76.0276 42.2133 75.7383 42.092C75.4583 41.9613 75.1596 41.896 74.8423 41.896C74.5156 41.896 74.2076 41.9567 73.9183 42.078C73.6383 42.1993 73.3909 42.372 73.1763 42.596C72.9709 42.82 72.8076 43.086 72.6863 43.394C72.5743 43.702 72.5183 44.0427 72.5183 44.416V44.64C72.5183 45.032 72.5743 45.382 72.6863 45.69C72.8076 45.998 72.9709 46.264 73.1763 46.488C73.3909 46.7027 73.6383 46.8707 73.9183 46.992C74.1983 47.104 74.5063 47.16 74.8423 47.16ZM85.4025 46.824H85.2345C85.0105 47.2907 84.6979 47.636 84.2965 47.86C83.9045 48.084 83.4892 48.196 83.0505 48.196C82.5932 48.196 82.1685 48.1213 81.7765 47.972C81.3845 47.8133 81.0392 47.5847 80.7405 47.286C80.4512 46.978 80.2225 46.6047 80.0545 46.166C79.8865 45.7273 79.8025 45.2187 79.8025 44.64V44.416C79.8025 43.8467 79.8865 43.3427 80.0545 42.904C80.2225 42.4653 80.4512 42.0967 80.7405 41.798C81.0392 41.49 81.3845 41.2567 81.7765 41.098C82.1685 40.9393 82.5839 40.86 83.0225 40.86C83.4985 40.86 83.9279 40.9673 84.3105 41.182C84.7025 41.3873 85.0105 41.7093 85.2345 42.148H85.4025V41.056H86.4945V46.572C86.4945 46.852 86.6205 46.992 86.8725 46.992H87.2225V48H86.4805C86.1632 48 85.9019 47.8973 85.6965 47.692C85.5005 47.4867 85.4025 47.2253 85.4025 46.908V46.824ZM83.1625 47.16C83.4892 47.16 83.7879 47.0993 84.0585 46.978C84.3385 46.8567 84.5765 46.684 84.7725 46.46C84.9685 46.236 85.1225 45.97 85.2345 45.662C85.3465 45.3447 85.4025 44.9947 85.4025 44.612V44.444C85.4025 44.0707 85.3465 43.73 85.2345 43.422C85.1225 43.1047 84.9639 42.834 84.7585 42.61C84.5625 42.386 84.3245 42.2133 84.0445 42.092C83.7739 41.9613 83.4799 41.896 83.1625 41.896C82.8359 41.896 82.5372 41.9567 82.2665 42.078C81.9959 42.1993 81.7579 42.372 81.5525 42.596C81.3565 42.8107 81.2025 43.0767 81.0905 43.394C80.9785 43.702 80.9225 44.0427 80.9225 44.416V44.64C80.9225 45.4333 81.1279 46.054 81.5385 46.502C81.9585 46.9407 82.4999 47.16 83.1625 47.16ZM93.9748 46.74H93.8068C93.5828 47.188 93.2888 47.5427 92.9248 47.804C92.5608 48.0653 92.0988 48.196 91.5388 48.196C91.1561 48.196 90.8015 48.1307 90.4748 48C90.1575 47.8787 89.8821 47.692 89.6488 47.44C89.4248 47.188 89.2475 46.8753 89.1168 46.502C88.9955 46.1287 88.9348 45.6947 88.9348 45.2V41.056H90.0268V45.06C90.0268 45.788 90.1761 46.32 90.4748 46.656C90.7735 46.992 91.2308 47.16 91.8468 47.16C92.5095 47.16 93.0275 46.936 93.4008 46.488C93.7835 46.0307 93.9748 45.424 93.9748 44.668V41.056H95.0668V49.708C95.0668 50.0253 94.9641 50.2867 94.7588 50.492C94.5628 50.6973 94.3061 50.8 93.9888 50.8H90.0268V49.792H93.5968C93.8488 49.792 93.9748 49.652 93.9748 49.372V46.74Z" fill="#314455"/>
<path d="M33.1763 518.56H35.4713V516.67C35.4713 516.33 35.5763 516.05 35.7863 515.83C36.0063 515.61 36.2863 515.5 36.6263 515.5H39.5663V516.58H37.0463C36.7763 516.58 36.6413 516.73 36.6413 517.03V518.56H39.7463V519.64H36.6413V526H35.4713V519.64H33.1763V518.56ZM42.0159 518.56H44.7159V519.55H44.8959C45.0859 519.14 45.3559 518.84 45.7059 518.65C46.0559 518.45 46.4559 518.35 46.9059 518.35C47.6559 518.35 48.2609 518.595 48.7209 519.085C49.1809 519.575 49.4259 520.29 49.4559 521.23L48.2259 521.41C48.2259 520.72 48.0609 520.225 47.7309 519.925C47.4009 519.615 46.9959 519.46 46.5159 519.46C46.2059 519.46 45.9359 519.52 45.7059 519.64C45.4859 519.76 45.3009 519.925 45.1509 520.135C45.0009 520.345 44.8909 520.59 44.8209 520.87C44.7509 521.15 44.7159 521.45 44.7159 521.77V524.92H46.6059V526H41.8359V524.92H43.5459V519.64H42.0159V518.56ZM53.9304 516.34C53.9304 516.05 54.0304 515.805 54.2304 515.605C54.4404 515.395 54.6904 515.29 54.9804 515.29C55.2704 515.29 55.5154 515.395 55.7154 515.605C55.9254 515.805 56.0304 516.05 56.0304 516.34C56.0304 516.63 55.9254 516.88 55.7154 517.09C55.5154 517.29 55.2704 517.39 54.9804 517.39C54.6904 517.39 54.4404 517.29 54.2304 517.09C54.0304 516.88 53.9304 516.63 53.9304 516.34ZM51.8004 524.92H54.4104V519.64H52.0704V518.56H55.5804V524.92H58.0104V526H51.8004V524.92ZM66.565 524.86H66.385C66.265 525.09 66.11 525.29 65.92 525.46C65.74 525.63 65.54 525.77 65.32 525.88C65.11 525.99 64.885 526.07 64.645 526.12C64.405 526.18 64.175 526.21 63.955 526.21C63.455 526.21 62.99 526.125 62.56 525.955C62.13 525.785 61.75 525.54 61.42 525.22C61.1 524.9 60.845 524.505 60.655 524.035C60.475 523.555 60.385 523.01 60.385 522.4V522.16C60.385 521.56 60.48 521.025 60.67 520.555C60.86 520.075 61.115 519.675 61.435 519.355C61.755 519.025 62.13 518.775 62.56 518.605C62.99 518.435 63.445 518.35 63.925 518.35C64.435 518.35 64.91 518.465 65.35 518.695C65.8 518.915 66.145 519.26 66.385 519.73H66.565V515.5H67.735V526H66.565V524.86ZM64.075 525.1C64.425 525.1 64.75 525.035 65.05 524.905C65.35 524.775 65.61 524.59 65.83 524.35C66.06 524.11 66.24 523.825 66.37 523.495C66.5 523.155 66.565 522.78 66.565 522.37V522.19C66.565 521.79 66.5 521.425 66.37 521.095C66.24 520.755 66.06 520.465 65.83 520.225C65.61 519.985 65.345 519.8 65.035 519.67C64.735 519.53 64.415 519.46 64.075 519.46C63.725 519.46 63.395 519.525 63.085 519.655C62.785 519.785 62.52 519.97 62.29 520.21C62.07 520.45 61.895 520.735 61.765 521.065C61.645 521.395 61.585 521.76 61.585 522.16V522.4C61.585 522.82 61.645 523.195 61.765 523.525C61.895 523.855 62.07 524.14 62.29 524.38C62.52 524.61 62.785 524.79 63.085 524.92C63.385 525.04 63.715 525.1 64.075 525.1ZM75.3896 524.74H75.2096C74.9696 525.24 74.6346 525.61 74.2046 525.85C73.7846 526.09 73.3396 526.21 72.8696 526.21C72.3796 526.21 71.9246 526.13 71.5046 525.97C71.0846 525.8 70.7146 525.555 70.3946 525.235C70.0846 524.905 69.8396 524.505 69.6596 524.035C69.4796 523.565 69.3896 523.02 69.3896 522.4V522.16C69.3896 521.55 69.4796 521.01 69.6596 520.54C69.8396 520.07 70.0846 519.675 70.3946 519.355C70.7146 519.025 71.0846 518.775 71.5046 518.605C71.9246 518.435 72.3696 518.35 72.8396 518.35C73.3496 518.35 73.8096 518.465 74.2196 518.695C74.6396 518.915 74.9696 519.26 75.2096 519.73H75.3896V518.56H76.5596V524.47C76.5596 524.77 76.6946 524.92 76.9646 524.92H77.3396V526H76.5446C76.2046 526 75.9246 525.89 75.7046 525.67C75.4946 525.45 75.3896 525.17 75.3896 524.83V524.74ZM72.9896 525.1C73.3396 525.1 73.6596 525.035 73.9496 524.905C74.2496 524.775 74.5046 524.59 74.7146 524.35C74.9246 524.11 75.0896 523.825 75.2096 523.495C75.3296 523.155 75.3896 522.78 75.3896 522.37V522.19C75.3896 521.79 75.3296 521.425 75.2096 521.095C75.0896 520.755 74.9196 520.465 74.6996 520.225C74.4896 519.985 74.2346 519.8 73.9346 519.67C73.6446 519.53 73.3296 519.46 72.9896 519.46C72.6396 519.46 72.3196 519.525 72.0296 519.655C71.7396 519.785 71.4846 519.97 71.2646 520.21C71.0546 520.44 70.8896 520.725 70.7696 521.065C70.6496 521.395 70.5896 521.76 70.5896 522.16V522.4C70.5896 523.25 70.8096 523.915 71.2496 524.395C71.6996 524.865 72.2796 525.1 72.9896 525.1ZM84.5741 524.65H84.3941C84.1541 525.13 83.8391 525.51 83.4491 525.79C83.0591 526.07 82.5641 526.21 81.9641 526.21C81.5541 526.21 81.1741 526.14 80.8241 526C80.4841 525.87 80.1891 525.67 79.9391 525.4C79.6991 525.13 79.5091 524.795 79.3691 524.395C79.2391 523.995 79.1741 523.53 79.1741 523V518.56H80.3441V522.85C80.3441 523.63 80.5041 524.2 80.8241 524.56C81.1441 524.92 81.6341 525.1 82.2941 525.1C83.0041 525.1 83.5591 524.86 83.9591 524.38C84.3691 523.89 84.5741 523.24 84.5741 522.43V518.56H85.7441V527.83C85.7441 528.17 85.6341 528.45 85.4141 528.67C85.2041 528.89 84.9291 529 84.5891 529H80.3441V527.92H84.1691C84.4391 527.92 84.5741 527.77 84.5741 527.47V524.65Z" fill="#314455"/>
<path d="M25.5702 433.552H27.5982V430.9H28.6122V433.552H31.1082V434.488H28.6122V438.674C28.6122 438.934 28.7292 439.064 28.9632 439.064H30.7962V440H28.5992C28.3045 440 28.0618 439.905 27.8712 439.714C27.6892 439.523 27.5982 439.281 27.5982 438.986V434.488H25.5702V433.552ZM34.7651 440H33.7511V430.9H34.7651V434.722H34.9211C35.1205 434.306 35.3978 433.977 35.7531 433.734C36.1171 433.491 36.5591 433.37 37.0791 433.37C37.7811 433.37 38.3488 433.604 38.7821 434.072C39.2241 434.531 39.4451 435.225 39.4451 436.152V440H38.4311V436.36C38.4311 435.684 38.2795 435.177 37.9761 434.839C37.6728 434.501 37.2611 434.332 36.7411 434.332C36.1258 434.332 35.6405 434.544 35.2851 434.969C34.9385 435.385 34.7651 435.944 34.7651 436.646V440ZM46.3131 433.552H47.3271V440H46.3131V438.83H46.1571C45.9491 439.246 45.6761 439.575 45.3381 439.818C45.0001 440.061 44.5711 440.182 44.0511 440.182C43.6957 440.182 43.3664 440.121 43.0631 440C42.7684 439.887 42.5127 439.714 42.2961 439.48C42.0881 439.246 41.9234 438.956 41.8021 438.609C41.6894 438.262 41.6331 437.859 41.6331 437.4V433.552H42.6471V437.27C42.6471 437.946 42.7857 438.44 43.0631 438.752C43.3404 439.064 43.7651 439.22 44.3371 439.22C44.9524 439.22 45.4334 439.012 45.7801 438.596C46.1354 438.171 46.3131 437.608 46.3131 436.906V433.552ZM49.307 433.552H51.647V434.41H51.803C51.9677 434.055 52.2017 433.795 52.505 433.63C52.8084 433.457 53.155 433.37 53.545 433.37C54.195 433.37 54.7194 433.582 55.118 434.007C55.5167 434.432 55.729 435.051 55.755 435.866L54.689 436.022C54.689 435.424 54.546 434.995 54.26 434.735C53.974 434.466 53.623 434.332 53.207 434.332C52.9384 434.332 52.7044 434.384 52.505 434.488C52.3144 434.592 52.154 434.735 52.024 434.917C51.894 435.099 51.7987 435.311 51.738 435.554C51.6774 435.797 51.647 436.057 51.647 436.334V439.064H53.285V440H49.151V439.064H50.633V434.488H49.307V433.552ZM58.97 435.216C58.97 435.528 59.1 435.766 59.36 435.931C59.6287 436.096 60.114 436.204 60.816 436.256C61.57 436.317 62.142 436.499 62.532 436.802C62.9307 437.097 63.13 437.53 63.13 438.102V438.18C63.13 438.492 63.065 438.774 62.935 439.025C62.8137 439.268 62.6403 439.476 62.415 439.649C62.1983 439.822 61.9297 439.952 61.609 440.039C61.297 440.134 60.9547 440.182 60.582 440.182C60.0793 440.182 59.646 440.117 59.282 439.987C58.9267 439.848 58.6277 439.671 58.385 439.454C58.151 439.229 57.9733 438.977 57.852 438.7C57.7307 438.414 57.6613 438.128 57.644 437.842L58.606 437.608C58.6493 438.102 58.84 438.501 59.178 438.804C59.516 439.099 59.9667 439.246 60.53 439.246C61.0067 439.246 61.388 439.155 61.674 438.973C61.9687 438.782 62.116 438.518 62.116 438.18C62.116 437.816 61.973 437.556 61.687 437.4C61.401 437.244 60.9373 437.144 60.296 437.101C59.5507 437.049 58.9787 436.876 58.58 436.581C58.1813 436.286 57.982 435.857 57.982 435.294V435.216C57.982 434.913 58.047 434.648 58.177 434.423C58.307 434.189 58.4803 433.994 58.697 433.838C58.9223 433.682 59.1737 433.565 59.451 433.487C59.7283 433.409 60.0187 433.37 60.322 433.37C60.7467 433.37 61.1193 433.431 61.44 433.552C61.7607 433.665 62.0293 433.816 62.246 434.007C62.4627 434.189 62.6273 434.401 62.74 434.644C62.8613 434.887 62.9393 435.129 62.974 435.372L62.012 435.606C61.9687 435.19 61.7997 434.865 61.505 434.631C61.219 434.397 60.842 434.28 60.374 434.28C60.192 434.28 60.0143 434.302 59.841 434.345C59.6763 434.38 59.529 434.436 59.399 434.514C59.269 434.592 59.165 434.692 59.087 434.813C59.009 434.926 58.97 435.06 58.97 435.216ZM70.583 439.012H70.427C70.323 439.211 70.1886 439.385 70.024 439.532C69.868 439.679 69.6946 439.801 69.504 439.896C69.322 439.991 69.127 440.061 68.919 440.104C68.711 440.156 68.5116 440.182 68.321 440.182C67.8876 440.182 67.4846 440.108 67.112 439.961C66.7393 439.814 66.41 439.601 66.124 439.324C65.8466 439.047 65.6256 438.704 65.461 438.297C65.305 437.881 65.227 437.409 65.227 436.88V436.672C65.227 436.152 65.3093 435.688 65.474 435.281C65.6386 434.865 65.8596 434.518 66.137 434.241C66.4143 433.955 66.7393 433.738 67.112 433.591C67.4846 433.444 67.879 433.37 68.295 433.37C68.737 433.37 69.1486 433.47 69.53 433.669C69.92 433.86 70.219 434.159 70.427 434.566H70.583V430.9H71.597V440H70.583V439.012ZM68.425 439.22C68.7283 439.22 69.01 439.164 69.27 439.051C69.53 438.938 69.7553 438.778 69.946 438.57C70.1453 438.362 70.3013 438.115 70.414 437.829C70.5266 437.534 70.583 437.209 70.583 436.854V436.698C70.583 436.351 70.5266 436.035 70.414 435.749C70.3013 435.454 70.1453 435.203 69.946 434.995C69.7553 434.787 69.5256 434.627 69.257 434.514C68.997 434.393 68.7196 434.332 68.425 434.332C68.1216 434.332 67.8356 434.388 67.567 434.501C67.307 434.614 67.0773 434.774 66.878 434.982C66.6873 435.19 66.5356 435.437 66.423 435.723C66.319 436.009 66.267 436.325 66.267 436.672V436.88C66.267 437.244 66.319 437.569 66.423 437.855C66.5356 438.141 66.6873 438.388 66.878 438.596C67.0773 438.795 67.307 438.951 67.567 439.064C67.827 439.168 68.113 439.22 68.425 439.22ZM78.2309 438.908H78.0749C77.8669 439.341 77.5766 439.662 77.2039 439.87C76.8399 440.078 76.4543 440.182 76.0469 440.182C75.6223 440.182 75.2279 440.113 74.8639 439.974C74.4999 439.827 74.1793 439.614 73.9019 439.337C73.6333 439.051 73.4209 438.704 73.2649 438.297C73.1089 437.89 73.0309 437.417 73.0309 436.88V436.672C73.0309 436.143 73.1089 435.675 73.2649 435.268C73.4209 434.861 73.6333 434.518 73.9019 434.241C74.1793 433.955 74.4999 433.738 74.8639 433.591C75.2279 433.444 75.6136 433.37 76.0209 433.37C76.4629 433.37 76.8616 433.47 77.2169 433.669C77.5809 433.86 77.8669 434.159 78.0749 434.566H78.2309V433.552H79.2449V438.674C79.2449 438.934 79.3619 439.064 79.5959 439.064H79.9209V440H79.2319C78.9373 440 78.6946 439.905 78.5039 439.714C78.3219 439.523 78.2309 439.281 78.2309 438.986V438.908ZM76.1509 439.22C76.4543 439.22 76.7316 439.164 76.9829 439.051C77.2429 438.938 77.4639 438.778 77.6459 438.57C77.8279 438.362 77.9709 438.115 78.0749 437.829C78.1789 437.534 78.2309 437.209 78.2309 436.854V436.698C78.2309 436.351 78.1789 436.035 78.0749 435.749C77.9709 435.454 77.8236 435.203 77.6329 434.995C77.4509 434.787 77.2299 434.627 76.9699 434.514C76.7186 434.393 76.4456 434.332 76.1509 434.332C75.8476 434.332 75.5703 434.388 75.3189 434.501C75.0676 434.614 74.8466 434.774 74.6559 434.982C74.4739 435.181 74.3309 435.428 74.2269 435.723C74.1229 436.009 74.0709 436.325 74.0709 436.672V436.88C74.0709 437.617 74.2616 438.193 74.6429 438.609C75.0329 439.016 75.5356 439.22 76.1509 439.22ZM86.1909 438.83H86.0349C85.8269 439.246 85.5539 439.575 85.2159 439.818C84.8779 440.061 84.4489 440.182 83.9289 440.182C83.5735 440.182 83.2442 440.121 82.9409 440C82.6462 439.887 82.3905 439.714 82.1739 439.48C81.9659 439.246 81.8012 438.956 81.6799 438.609C81.5672 438.262 81.5109 437.859 81.5109 437.4V433.552H82.5249V437.27C82.5249 437.946 82.6635 438.44 82.9409 438.752C83.2182 439.064 83.6429 439.22 84.2149 439.22C84.8302 439.22 85.3112 439.012 85.6579 438.596C86.0132 438.171 86.1909 437.608 86.1909 436.906V433.552H87.2049V441.586C87.2049 441.881 87.1095 442.123 86.9189 442.314C86.7369 442.505 86.4985 442.6 86.2039 442.6H82.5249V441.664H85.8399C86.0739 441.664 86.1909 441.534 86.1909 441.274V438.83Z" fill="#314455"/>
<path d="M33.1275 362H31.3995L30.6795 356.48H30.5355L29.8155 362H28.0875L27.1515 356.048H28.1115L28.9035 361.568H29.0475L29.7435 356.048H31.4715L32.1675 361.568H32.3115L33.1035 356.048H34.0635L33.1275 362ZM36.0112 359.312C36.0352 359.904 36.2192 360.38 36.5632 360.74C36.9072 361.1 37.3872 361.28 38.0032 361.28C38.2832 361.28 38.5272 361.248 38.7352 361.184C38.9432 361.12 39.1192 361.032 39.2632 360.92C39.4152 360.808 39.5352 360.68 39.6232 360.536C39.7192 360.384 39.7952 360.224 39.8512 360.056L40.7392 360.296C40.5712 360.848 40.2592 361.3 39.8032 361.652C39.3552 361.996 38.7472 362.168 37.9792 362.168C37.5552 362.168 37.1632 362.096 36.8032 361.952C36.4512 361.8 36.1472 361.588 35.8912 361.316C35.6352 361.044 35.4352 360.72 35.2912 360.344C35.1472 359.968 35.0752 359.552 35.0752 359.096V358.808C35.0752 358.392 35.1472 358.004 35.2912 357.644C35.4432 357.284 35.6512 356.976 35.9152 356.72C36.1792 356.456 36.4872 356.252 36.8392 356.108C37.1992 355.956 37.5872 355.88 38.0032 355.88C38.4912 355.88 38.9112 355.972 39.2632 356.156C39.6232 356.332 39.9152 356.552 40.1392 356.816C40.3712 357.08 40.5392 357.368 40.6432 357.68C40.7552 357.992 40.8112 358.28 40.8112 358.544V359.312H36.0112ZM38.0032 356.768C37.7392 356.768 37.4912 356.812 37.2592 356.9C37.0352 356.98 36.8352 357.096 36.6592 357.248C36.4912 357.4 36.3512 357.58 36.2392 357.788C36.1352 357.988 36.0672 358.208 36.0352 358.448H39.8752C39.8592 358.192 39.7952 357.96 39.6832 357.752C39.5792 357.544 39.4392 357.368 39.2632 357.224C39.0952 357.08 38.8992 356.968 38.6752 356.888C38.4592 356.808 38.2352 356.768 38.0032 356.768ZM47.2829 361.088H47.1389C47.0429 361.272 46.9189 361.432 46.7669 361.568C46.6229 361.704 46.4629 361.816 46.2869 361.904C46.1189 361.992 45.9389 362.056 45.7469 362.096C45.5549 362.144 45.3709 362.168 45.1949 362.168C44.7949 362.168 44.4229 362.1 44.0789 361.964C43.7349 361.828 43.4309 361.632 43.1669 361.376C42.9109 361.12 42.7069 360.804 42.5549 360.428C42.4109 360.044 42.3389 359.608 42.3389 359.12V358.928C42.3389 358.448 42.4149 358.02 42.5669 357.644C42.7189 357.26 42.9229 356.94 43.1789 356.684C43.4349 356.42 43.7349 356.22 44.0789 356.084C44.4229 355.948 44.7869 355.88 45.1709 355.88C45.5789 355.88 45.9589 355.972 46.3109 356.156C46.6709 356.332 46.9469 356.608 47.1389 356.984H47.2829V353.6H48.2189V362H47.2829V361.088ZM45.2909 361.28C45.5709 361.28 45.8309 361.228 46.0709 361.124C46.3109 361.02 46.5189 360.872 46.6949 360.68C46.8789 360.488 47.0229 360.26 47.1269 359.996C47.2309 359.724 47.2829 359.424 47.2829 359.096V358.952C47.2829 358.632 47.2309 358.34 47.1269 358.076C47.0229 357.804 46.8789 357.572 46.6949 357.38C46.5189 357.188 46.3069 357.04 46.0589 356.936C45.8189 356.824 45.5629 356.768 45.2909 356.768C45.0109 356.768 44.7469 356.82 44.4989 356.924C44.2589 357.028 44.0469 357.176 43.8629 357.368C43.6869 357.56 43.5469 357.788 43.4429 358.052C43.3469 358.316 43.2989 358.608 43.2989 358.928V359.12C43.2989 359.456 43.3469 359.756 43.4429 360.02C43.5469 360.284 43.6869 360.512 43.8629 360.704C44.0469 360.888 44.2589 361.032 44.4989 361.136C44.7389 361.232 45.0029 361.28 45.2909 361.28ZM50.9585 362H50.0225V356.048H50.9585V357.056H51.1025C51.4705 356.272 52.1105 355.88 53.0225 355.88C53.7105 355.88 54.2585 356.096 54.6665 356.528C55.0745 356.952 55.2785 357.592 55.2785 358.448V362H54.3425V358.64C54.3425 358.016 54.2025 357.548 53.9225 357.236C53.6425 356.924 53.2625 356.768 52.7825 356.768C52.2145 356.768 51.7665 356.964 51.4385 357.356C51.1185 357.74 50.9585 358.256 50.9585 358.904V362ZM58.0542 359.312C58.0782 359.904 58.2622 360.38 58.6062 360.74C58.9502 361.1 59.4302 361.28 60.0462 361.28C60.3262 361.28 60.5702 361.248 60.7782 361.184C60.9862 361.12 61.1622 361.032 61.3062 360.92C61.4582 360.808 61.5782 360.68 61.6662 360.536C61.7622 360.384 61.8382 360.224 61.8942 360.056L62.7822 360.296C62.6142 360.848 62.3022 361.3 61.8462 361.652C61.3982 361.996 60.7902 362.168 60.0222 362.168C59.5982 362.168 59.2062 362.096 58.8462 361.952C58.4942 361.8 58.1902 361.588 57.9342 361.316C57.6782 361.044 57.4782 360.72 57.3342 360.344C57.1902 359.968 57.1182 359.552 57.1182 359.096V358.808C57.1182 358.392 57.1902 358.004 57.3342 357.644C57.4862 357.284 57.6942 356.976 57.9582 356.72C58.2222 356.456 58.5302 356.252 58.8822 356.108C59.2422 355.956 59.6302 355.88 60.0462 355.88C60.5342 355.88 60.9542 355.972 61.3062 356.156C61.6662 356.332 61.9582 356.552 62.1822 356.816C62.4142 357.08 62.5822 357.368 62.6862 357.68C62.7982 357.992 62.8542 358.28 62.8542 358.544V359.312H58.0542ZM60.0462 356.768C59.7822 356.768 59.5342 356.812 59.3022 356.9C59.0782 356.98 58.8782 357.096 58.7022 357.248C58.5342 357.4 58.3942 357.58 58.2822 357.788C58.1782 357.988 58.1102 358.208 58.0782 358.448H61.9182C61.9022 358.192 61.8382 357.96 61.7262 357.752C61.6222 357.544 61.4822 357.368 61.3062 357.224C61.1382 357.08 60.9422 356.968 60.7182 356.888C60.5022 356.808 60.2782 356.768 60.0462 356.768ZM65.9538 357.584C65.9538 357.872 66.0738 358.092 66.3138 358.244C66.5618 358.396 67.0098 358.496 67.6578 358.544C68.3538 358.6 68.8818 358.768 69.2418 359.048C69.6098 359.32 69.7938 359.72 69.7938 360.248V360.32C69.7938 360.608 69.7338 360.868 69.6138 361.1C69.5018 361.324 69.3418 361.516 69.1338 361.676C68.9338 361.836 68.6858 361.956 68.3898 362.036C68.1018 362.124 67.7858 362.168 67.4418 362.168C66.9778 362.168 66.5778 362.108 66.2418 361.988C65.9138 361.86 65.6378 361.696 65.4138 361.496C65.1978 361.288 65.0338 361.056 64.9218 360.8C64.8098 360.536 64.7458 360.272 64.7298 360.008L65.6178 359.792C65.6578 360.248 65.8338 360.616 66.1458 360.896C66.4578 361.168 66.8738 361.304 67.3938 361.304C67.8338 361.304 68.1858 361.22 68.4498 361.052C68.7218 360.876 68.8578 360.632 68.8578 360.32C68.8578 359.984 68.7258 359.744 68.4618 359.6C68.1978 359.456 67.7698 359.364 67.1778 359.324C66.4898 359.276 65.9618 359.116 65.5938 358.844C65.2258 358.572 65.0418 358.176 65.0418 357.656V357.584C65.0418 357.304 65.1018 357.06 65.2218 356.852C65.3418 356.636 65.5018 356.456 65.7018 356.312C65.9098 356.168 66.1418 356.06 66.3978 355.988C66.6538 355.916 66.9218 355.88 67.2018 355.88C67.5938 355.88 67.9378 355.936 68.2338 356.048C68.5298 356.152 68.7778 356.292 68.9778 356.468C69.1778 356.636 69.3298 356.832 69.4338 357.056C69.5458 357.28 69.6178 357.504 69.6498 357.728L68.7618 357.944C68.7218 357.56 68.5658 357.26 68.2938 357.044C68.0298 356.828 67.6818 356.72 67.2498 356.72C67.0818 356.72 66.9178 356.74 66.7578 356.78C66.6058 356.812 66.4698 356.864 66.3498 356.936C66.2298 357.008 66.1338 357.1 66.0618 357.212C65.9898 357.316 65.9538 357.44 65.9538 357.584ZM76.6735 361.088H76.5295C76.4335 361.272 76.3095 361.432 76.1575 361.568C76.0135 361.704 75.8535 361.816 75.6775 361.904C75.5095 361.992 75.3295 362.056 75.1375 362.096C74.9455 362.144 74.7615 362.168 74.5855 362.168C74.1855 362.168 73.8135 362.1 73.4695 361.964C73.1255 361.828 72.8215 361.632 72.5575 361.376C72.3015 361.12 72.0975 360.804 71.9455 360.428C71.8015 360.044 71.7295 359.608 71.7295 359.12V358.928C71.7295 358.448 71.8055 358.02 71.9575 357.644C72.1095 357.26 72.3135 356.94 72.5695 356.684C72.8255 356.42 73.1255 356.22 73.4695 356.084C73.8135 355.948 74.1775 355.88 74.5615 355.88C74.9695 355.88 75.3495 355.972 75.7015 356.156C76.0615 356.332 76.3375 356.608 76.5295 356.984H76.6735V353.6H77.6095V362H76.6735V361.088ZM74.6815 361.28C74.9615 361.28 75.2215 361.228 75.4615 361.124C75.7015 361.02 75.9095 360.872 76.0855 360.68C76.2695 360.488 76.4135 360.26 76.5175 359.996C76.6215 359.724 76.6735 359.424 76.6735 359.096V358.952C76.6735 358.632 76.6215 358.34 76.5175 358.076C76.4135 357.804 76.2695 357.572 76.0855 357.38C75.9095 357.188 75.6975 357.04 75.4495 356.936C75.2095 356.824 74.9535 356.768 74.6815 356.768C74.4015 356.768 74.1375 356.82 73.8895 356.924C73.6495 357.028 73.4375 357.176 73.2535 357.368C73.0775 357.56 72.9375 357.788 72.8335 358.052C72.7375 358.316 72.6895 358.608 72.6895 358.928V359.12C72.6895 359.456 72.7375 359.756 72.8335 360.02C72.9375 360.284 73.0775 360.512 73.2535 360.704C73.4375 360.888 73.6495 361.032 73.8895 361.136C74.1295 361.232 74.3935 361.28 74.6815 361.28ZM83.7331 360.992H83.5891C83.3971 361.392 83.1291 361.688 82.7851 361.88C82.4491 362.072 82.0931 362.168 81.7171 362.168C81.3251 362.168 80.9611 362.104 80.6251 361.976C80.2891 361.84 79.9931 361.644 79.7371 361.388C79.4891 361.124 79.2931 360.804 79.1491 360.428C79.0051 360.052 78.9331 359.616 78.9331 359.12V358.928C78.9331 358.44 79.0051 358.008 79.1491 357.632C79.2931 357.256 79.4891 356.94 79.7371 356.684C79.9931 356.42 80.2891 356.22 80.6251 356.084C80.9611 355.948 81.3171 355.88 81.6931 355.88C82.1011 355.88 82.4691 355.972 82.7971 356.156C83.1331 356.332 83.3971 356.608 83.5891 356.984H83.7331V356.048H84.6691V360.776C84.6691 361.016 84.7771 361.136 84.9931 361.136H85.2931V362H84.6571C84.3851 362 84.1611 361.912 83.9851 361.736C83.8171 361.56 83.7331 361.336 83.7331 361.064V360.992ZM81.8131 361.28C82.0931 361.28 82.3491 361.228 82.5811 361.124C82.8211 361.02 83.0251 360.872 83.1931 360.68C83.3611 360.488 83.4931 360.26 83.5891 359.996C83.6851 359.724 83.7331 359.424 83.7331 359.096V358.952C83.7331 358.632 83.6851 358.34 83.5891 358.076C83.4931 357.804 83.3571 357.572 83.1811 357.38C83.0131 357.188 82.8091 357.04 82.5691 356.936C82.3371 356.824 82.0851 356.768 81.8131 356.768C81.5331 356.768 81.2771 356.82 81.0451 356.924C80.8131 357.028 80.6091 357.176 80.4331 357.368C80.2651 357.552 80.1331 357.78 80.0371 358.052C79.9411 358.316 79.8931 358.608 79.8931 358.928V359.12C79.8931 359.8 80.0691 360.332 80.4211 360.716C80.7811 361.092 81.2451 361.28 81.8131 361.28ZM91.0808 360.92H90.9368C90.7448 361.304 90.4928 361.608 90.1808 361.832C89.8688 362.056 89.4728 362.168 88.9928 362.168C88.6648 362.168 88.3608 362.112 88.0808 362C87.8088 361.896 87.5728 361.736 87.3728 361.52C87.1808 361.304 87.0288 361.036 86.9168 360.716C86.8128 360.396 86.7608 360.024 86.7608 359.6V356.048H87.6968V359.48C87.6968 360.104 87.8248 360.56 88.0808 360.848C88.3368 361.136 88.7288 361.28 89.2568 361.28C89.8248 361.28 90.2688 361.088 90.5888 360.704C90.9168 360.312 91.0808 359.792 91.0808 359.144V356.048H92.0168V363.464C92.0168 363.736 91.9288 363.96 91.7528 364.136C91.5848 364.312 91.3648 364.4 91.0928 364.4H87.6968V363.536H90.7568C90.9728 363.536 91.0808 363.416 91.0808 363.176V360.92Z" fill="#314455"/>
<path d="M30.404 277.56H32.744V274.5H33.914V277.56H36.794V278.64H33.914V283.47C33.914 283.77 34.049 283.92 34.319 283.92H36.434V285H33.899C33.559 285 33.279 284.89 33.059 284.67C32.849 284.45 32.744 284.17 32.744 283.83V278.64H30.404V277.56ZM45.1536 277.56H46.3236V285H45.1536V283.65H44.9736C44.7336 284.13 44.4186 284.51 44.0286 284.79C43.6386 285.07 43.1436 285.21 42.5436 285.21C42.1336 285.21 41.7536 285.14 41.4036 285C41.0636 284.87 40.7686 284.67 40.5186 284.4C40.2786 284.13 40.0886 283.795 39.9486 283.395C39.8186 282.995 39.7536 282.53 39.7536 282V277.56H40.9236V281.85C40.9236 282.63 41.0836 283.2 41.4036 283.56C41.7236 283.92 42.2136 284.1 42.8736 284.1C43.5836 284.1 44.1386 283.86 44.5386 283.38C44.9486 282.89 45.1536 282.24 45.1536 281.43V277.56ZM49.8831 281.64C49.9131 282.38 50.1431 282.975 50.5731 283.425C51.0031 283.875 51.6031 284.1 52.3731 284.1C52.7231 284.1 53.0281 284.06 53.2881 283.98C53.5481 283.9 53.7681 283.79 53.9481 283.65C54.1381 283.51 54.2881 283.35 54.3981 283.17C54.5181 282.98 54.6131 282.78 54.6831 282.57L55.7931 282.87C55.5831 283.56 55.1931 284.125 54.6231 284.565C54.0631 284.995 53.3031 285.21 52.3431 285.21C51.8131 285.21 51.3231 285.12 50.8731 284.94C50.4331 284.75 50.0531 284.485 49.7331 284.145C49.4131 283.805 49.1631 283.4 48.9831 282.93C48.8031 282.46 48.7131 281.94 48.7131 281.37V281.01C48.7131 280.49 48.8031 280.005 48.9831 279.555C49.1731 279.105 49.4331 278.72 49.7631 278.4C50.0931 278.07 50.4781 277.815 50.9181 277.635C51.3681 277.445 51.8531 277.35 52.3731 277.35C52.9831 277.35 53.5081 277.465 53.9481 277.695C54.3981 277.915 54.7631 278.19 55.0431 278.52C55.3331 278.85 55.5431 279.21 55.6731 279.6C55.8131 279.99 55.8831 280.35 55.8831 280.68V281.64H49.8831ZM52.3731 278.46C52.0431 278.46 51.7331 278.515 51.4431 278.625C51.1631 278.725 50.9131 278.87 50.6931 279.06C50.4831 279.25 50.3081 279.475 50.1681 279.735C50.0381 279.985 49.9531 280.26 49.9131 280.56H54.7131C54.6931 280.24 54.6131 279.95 54.4731 279.69C54.3431 279.43 54.1681 279.21 53.9481 279.03C53.7381 278.85 53.4931 278.71 53.2131 278.61C52.9431 278.51 52.6631 278.46 52.3731 278.46ZM59.7577 279.48C59.7577 279.84 59.9077 280.115 60.2077 280.305C60.5177 280.495 61.0777 280.62 61.8877 280.68C62.7577 280.75 63.4177 280.96 63.8677 281.31C64.3277 281.65 64.5577 282.15 64.5577 282.81V282.9C64.5577 283.26 64.4827 283.585 64.3327 283.875C64.1927 284.155 63.9927 284.395 63.7327 284.595C63.4827 284.795 63.1727 284.945 62.8027 285.045C62.4427 285.155 62.0477 285.21 61.6177 285.21C61.0377 285.21 60.5377 285.135 60.1177 284.985C59.7077 284.825 59.3627 284.62 59.0827 284.37C58.8127 284.11 58.6077 283.82 58.4677 283.5C58.3277 283.17 58.2477 282.84 58.2277 282.51L59.3377 282.24C59.3877 282.81 59.6077 283.27 59.9977 283.62C60.3877 283.96 60.9077 284.13 61.5577 284.13C62.1077 284.13 62.5477 284.025 62.8777 283.815C63.2177 283.595 63.3877 283.29 63.3877 282.9C63.3877 282.48 63.2227 282.18 62.8927 282C62.5627 281.82 62.0277 281.705 61.2877 281.655C60.4277 281.595 59.7677 281.395 59.3077 281.055C58.8477 280.715 58.6177 280.22 58.6177 279.57V279.48C58.6177 279.13 58.6927 278.825 58.8427 278.565C58.9927 278.295 59.1927 278.07 59.4427 277.89C59.7027 277.71 59.9927 277.575 60.3127 277.485C60.6327 277.395 60.9677 277.35 61.3177 277.35C61.8077 277.35 62.2377 277.42 62.6077 277.56C62.9777 277.69 63.2877 277.865 63.5377 278.085C63.7877 278.295 63.9777 278.54 64.1077 278.82C64.2477 279.1 64.3377 279.38 64.3777 279.66L63.2677 279.93C63.2177 279.45 63.0227 279.075 62.6827 278.805C62.3527 278.535 61.9177 278.4 61.3777 278.4C61.1677 278.4 60.9627 278.425 60.7627 278.475C60.5727 278.515 60.4027 278.58 60.2527 278.67C60.1027 278.76 59.9827 278.875 59.8927 279.015C59.8027 279.145 59.7577 279.3 59.7577 279.48ZM73.1573 283.86H72.9773C72.8573 284.09 72.7023 284.29 72.5123 284.46C72.3323 284.63 72.1323 284.77 71.9123 284.88C71.7023 284.99 71.4773 285.07 71.2373 285.12C70.9973 285.18 70.7673 285.21 70.5473 285.21C70.0473 285.21 69.5823 285.125 69.1523 284.955C68.7223 284.785 68.3423 284.54 68.0123 284.22C67.6923 283.9 67.4373 283.505 67.2473 283.035C67.0673 282.555 66.9773 282.01 66.9773 281.4V281.16C66.9773 280.56 67.0723 280.025 67.2623 279.555C67.4523 279.075 67.7073 278.675 68.0273 278.355C68.3473 278.025 68.7223 277.775 69.1523 277.605C69.5823 277.435 70.0373 277.35 70.5173 277.35C71.0273 277.35 71.5023 277.465 71.9423 277.695C72.3923 277.915 72.7373 278.26 72.9773 278.73H73.1573V274.5H74.3273V285H73.1573V283.86ZM70.6673 284.1C71.0173 284.1 71.3423 284.035 71.6423 283.905C71.9423 283.775 72.2023 283.59 72.4223 283.35C72.6523 283.11 72.8323 282.825 72.9623 282.495C73.0923 282.155 73.1573 281.78 73.1573 281.37V281.19C73.1573 280.79 73.0923 280.425 72.9623 280.095C72.8323 279.755 72.6523 279.465 72.4223 279.225C72.2023 278.985 71.9373 278.8 71.6273 278.67C71.3273 278.53 71.0073 278.46 70.6673 278.46C70.3173 278.46 69.9873 278.525 69.6773 278.655C69.3773 278.785 69.1123 278.97 68.8823 279.21C68.6623 279.45 68.4873 279.735 68.3573 280.065C68.2373 280.395 68.1773 280.76 68.1773 281.16V281.4C68.1773 281.82 68.2373 282.195 68.3573 282.525C68.4873 282.855 68.6623 283.14 68.8823 283.38C69.1123 283.61 69.3773 283.79 69.6773 283.92C69.9773 284.04 70.3073 284.1 70.6673 284.1ZM81.9819 283.74H81.8019C81.5619 284.24 81.2269 284.61 80.7969 284.85C80.3769 285.09 79.9319 285.21 79.4619 285.21C78.9719 285.21 78.5169 285.13 78.0969 284.97C77.6769 284.8 77.3069 284.555 76.9869 284.235C76.6769 283.905 76.4319 283.505 76.2519 283.035C76.0719 282.565 75.9819 282.02 75.9819 281.4V281.16C75.9819 280.55 76.0719 280.01 76.2519 279.54C76.4319 279.07 76.6769 278.675 76.9869 278.355C77.3069 278.025 77.6769 277.775 78.0969 277.605C78.5169 277.435 78.9619 277.35 79.4319 277.35C79.9419 277.35 80.4019 277.465 80.8119 277.695C81.2319 277.915 81.5619 278.26 81.8019 278.73H81.9819V277.56H83.1519V283.47C83.1519 283.77 83.2869 283.92 83.5569 283.92H83.9319V285H83.1369C82.7969 285 82.5169 284.89 82.2969 284.67C82.0869 284.45 81.9819 284.17 81.9819 283.83V283.74ZM79.5819 284.1C79.9319 284.1 80.2519 284.035 80.5419 283.905C80.8419 283.775 81.0969 283.59 81.3069 283.35C81.5169 283.11 81.6819 282.825 81.8019 282.495C81.9219 282.155 81.9819 281.78 81.9819 281.37V281.19C81.9819 280.79 81.9219 280.425 81.8019 280.095C81.6819 279.755 81.5119 279.465 81.2919 279.225C81.0819 278.985 80.8269 278.8 80.5269 278.67C80.2369 278.53 79.9219 278.46 79.5819 278.46C79.2319 278.46 78.9119 278.525 78.6219 278.655C78.3319 278.785 78.0769 278.97 77.8569 279.21C77.6469 279.44 77.4819 279.725 77.3619 280.065C77.2419 280.395 77.1819 280.76 77.1819 281.16V281.4C77.1819 282.25 77.4019 282.915 77.8419 283.395C78.2919 283.865 78.8719 284.1 79.5819 284.1ZM91.1664 283.65H90.9864C90.7464 284.13 90.4314 284.51 90.0414 284.79C89.6514 285.07 89.1564 285.21 88.5564 285.21C88.1464 285.21 87.7664 285.14 87.4164 285C87.0764 284.87 86.7814 284.67 86.5314 284.4C86.2914 284.13 86.1014 283.795 85.9614 283.395C85.8314 282.995 85.7664 282.53 85.7664 282V277.56H86.9364V281.85C86.9364 282.63 87.0964 283.2 87.4164 283.56C87.7364 283.92 88.2264 284.1 88.8864 284.1C89.5964 284.1 90.1514 283.86 90.5514 283.38C90.9614 282.89 91.1664 282.24 91.1664 281.43V277.56H92.3364V286.83C92.3364 287.17 92.2264 287.45 92.0064 287.67C91.7964 287.89 91.5214 288 91.1814 288H86.9364V286.92H90.7614C91.0314 286.92 91.1664 286.77 91.1664 286.47V283.65Z" fill="#314455"/>
<path d="M33.1302 595.216C33.1302 595.528 33.2602 595.766 33.5202 595.931C33.7888 596.096 34.2742 596.204 34.9762 596.256C35.7302 596.317 36.3022 596.499 36.6922 596.802C37.0908 597.097 37.2902 597.53 37.2902 598.102V598.18C37.2902 598.492 37.2252 598.774 37.0952 599.025C36.9738 599.268 36.8005 599.476 36.5752 599.649C36.3585 599.822 36.0898 599.952 35.7692 600.039C35.4572 600.134 35.1148 600.182 34.7422 600.182C34.2395 600.182 33.8062 600.117 33.4422 599.987C33.0868 599.848 32.7878 599.671 32.5452 599.454C32.3112 599.229 32.1335 598.977 32.0122 598.7C31.8908 598.414 31.8215 598.128 31.8042 597.842L32.7662 597.608C32.8095 598.102 33.0002 598.501 33.3382 598.804C33.6762 599.099 34.1268 599.246 34.6902 599.246C35.1668 599.246 35.5482 599.155 35.8342 598.973C36.1288 598.782 36.2762 598.518 36.2762 598.18C36.2762 597.816 36.1332 597.556 35.8472 597.4C35.5612 597.244 35.0975 597.144 34.4562 597.101C33.7108 597.049 33.1388 596.876 32.7402 596.581C32.3415 596.286 32.1422 595.857 32.1422 595.294V595.216C32.1422 594.913 32.2072 594.648 32.3372 594.423C32.4672 594.189 32.6405 593.994 32.8572 593.838C33.0825 593.682 33.3338 593.565 33.6112 593.487C33.8885 593.409 34.1788 593.37 34.4822 593.37C34.9068 593.37 35.2795 593.431 35.6002 593.552C35.9208 593.665 36.1895 593.816 36.4062 594.007C36.6228 594.189 36.7875 594.401 36.9002 594.644C37.0215 594.887 37.0995 595.129 37.1342 595.372L36.1722 595.606C36.1288 595.19 35.9598 594.865 35.6652 594.631C35.3792 594.397 35.0022 594.28 34.5342 594.28C34.3522 594.28 34.1745 594.302 34.0012 594.345C33.8365 594.38 33.6892 594.436 33.5592 594.514C33.4292 594.592 33.3252 594.692 33.2472 594.813C33.1692 594.926 33.1302 595.06 33.1302 595.216ZM44.4311 598.908H44.2751C44.0671 599.341 43.7768 599.662 43.4041 599.87C43.0401 600.078 42.6545 600.182 42.2471 600.182C41.8225 600.182 41.4281 600.113 41.0641 599.974C40.7001 599.827 40.3795 599.614 40.1021 599.337C39.8335 599.051 39.6211 598.704 39.4651 598.297C39.3091 597.89 39.2311 597.417 39.2311 596.88V596.672C39.2311 596.143 39.3091 595.675 39.4651 595.268C39.6211 594.861 39.8335 594.518 40.1021 594.241C40.3795 593.955 40.7001 593.738 41.0641 593.591C41.4281 593.444 41.8138 593.37 42.2211 593.37C42.6631 593.37 43.0618 593.47 43.4171 593.669C43.7811 593.86 44.0671 594.159 44.2751 594.566H44.4311V593.552H45.4451V598.674C45.4451 598.934 45.5621 599.064 45.7961 599.064H46.1211V600H45.4321C45.1375 600 44.8948 599.905 44.7041 599.714C44.5221 599.523 44.4311 599.281 44.4311 598.986V598.908ZM42.3511 599.22C42.6545 599.22 42.9318 599.164 43.1831 599.051C43.4431 598.938 43.6641 598.778 43.8461 598.57C44.0281 598.362 44.1711 598.115 44.2751 597.829C44.3791 597.534 44.4311 597.209 44.4311 596.854V596.698C44.4311 596.351 44.3791 596.035 44.2751 595.749C44.1711 595.454 44.0238 595.203 43.8331 594.995C43.6511 594.787 43.4301 594.627 43.1701 594.514C42.9188 594.393 42.6458 594.332 42.3511 594.332C42.0478 594.332 41.7705 594.388 41.5191 594.501C41.2678 594.614 41.0468 594.774 40.8561 594.982C40.6741 595.181 40.5311 595.428 40.4271 595.723C40.3231 596.009 40.2711 596.325 40.2711 596.672V596.88C40.2711 597.617 40.4618 598.193 40.8431 598.609C41.2331 599.016 41.7358 599.22 42.3511 599.22ZM47.4901 593.552H49.5181V590.9H50.5321V593.552H53.0281V594.488H50.5321V598.674C50.5321 598.934 50.6491 599.064 50.8831 599.064H52.7161V600H50.5191C50.2244 600 49.9817 599.905 49.7911 599.714C49.6091 599.523 49.5181 599.281 49.5181 598.986V594.488H47.4901V593.552ZM60.273 593.552H61.287V600H60.273V598.83H60.117C59.909 599.246 59.636 599.575 59.298 599.818C58.96 600.061 58.531 600.182 58.011 600.182C57.6557 600.182 57.3264 600.121 57.023 600C56.7284 599.887 56.4727 599.714 56.256 599.48C56.048 599.246 55.8834 598.956 55.762 598.609C55.6494 598.262 55.593 597.859 55.593 597.4V593.552H56.607V597.27C56.607 597.946 56.7457 598.44 57.023 598.752C57.3004 599.064 57.725 599.22 58.297 599.22C58.9124 599.22 59.3934 599.012 59.74 598.596C60.0954 598.171 60.273 597.608 60.273 596.906V593.552ZM63.267 593.552H65.607V594.41H65.763C65.9277 594.055 66.1617 593.795 66.465 593.63C66.7683 593.457 67.115 593.37 67.505 593.37C68.155 593.37 68.6793 593.582 69.078 594.007C69.4767 594.432 69.689 595.051 69.715 595.866L68.649 596.022C68.649 595.424 68.506 594.995 68.22 594.735C67.934 594.466 67.583 594.332 67.167 594.332C66.8983 594.332 66.6643 594.384 66.465 594.488C66.2743 594.592 66.114 594.735 65.984 594.917C65.854 595.099 65.7587 595.311 65.698 595.554C65.6373 595.797 65.607 596.057 65.607 596.334V599.064H67.245V600H63.111V599.064H64.593V594.488H63.267V593.552ZM76.583 599.012H76.427C76.323 599.211 76.1886 599.385 76.024 599.532C75.868 599.679 75.6946 599.801 75.504 599.896C75.322 599.991 75.127 600.061 74.919 600.104C74.711 600.156 74.5116 600.182 74.321 600.182C73.8876 600.182 73.4846 600.108 73.112 599.961C72.7393 599.814 72.41 599.601 72.124 599.324C71.8466 599.047 71.6256 598.704 71.461 598.297C71.305 597.881 71.227 597.409 71.227 596.88V596.672C71.227 596.152 71.3093 595.688 71.474 595.281C71.6386 594.865 71.8596 594.518 72.137 594.241C72.4143 593.955 72.7393 593.738 73.112 593.591C73.4846 593.444 73.879 593.37 74.295 593.37C74.737 593.37 75.1486 593.47 75.53 593.669C75.92 593.86 76.219 594.159 76.427 594.566H76.583V590.9H77.597V600H76.583V599.012ZM74.425 599.22C74.7283 599.22 75.01 599.164 75.27 599.051C75.53 598.938 75.7553 598.778 75.946 598.57C76.1453 598.362 76.3013 598.115 76.414 597.829C76.5266 597.534 76.583 597.209 76.583 596.854V596.698C76.583 596.351 76.5266 596.035 76.414 595.749C76.3013 595.454 76.1453 595.203 75.946 594.995C75.7553 594.787 75.5256 594.627 75.257 594.514C74.997 594.393 74.7196 594.332 74.425 594.332C74.1216 594.332 73.8356 594.388 73.567 594.501C73.307 594.614 73.0773 594.774 72.878 594.982C72.6873 595.19 72.5356 595.437 72.423 595.723C72.319 596.009 72.267 596.325 72.267 596.672V596.88C72.267 597.244 72.319 597.569 72.423 597.855C72.5356 598.141 72.6873 598.388 72.878 598.596C73.0773 598.795 73.307 598.951 73.567 599.064C73.827 599.168 74.113 599.22 74.425 599.22ZM84.2309 598.908H84.0749C83.8669 599.341 83.5766 599.662 83.2039 599.87C82.8399 600.078 82.4543 600.182 82.0469 600.182C81.6223 600.182 81.2279 600.113 80.8639 599.974C80.4999 599.827 80.1793 599.614 79.9019 599.337C79.6333 599.051 79.4209 598.704 79.2649 598.297C79.1089 597.89 79.0309 597.417 79.0309 596.88V596.672C79.0309 596.143 79.1089 595.675 79.2649 595.268C79.4209 594.861 79.6333 594.518 79.9019 594.241C80.1793 593.955 80.4999 593.738 80.8639 593.591C81.2279 593.444 81.6136 593.37 82.0209 593.37C82.4629 593.37 82.8616 593.47 83.2169 593.669C83.5809 593.86 83.8669 594.159 84.0749 594.566H84.2309V593.552H85.2449V598.674C85.2449 598.934 85.3619 599.064 85.5959 599.064H85.9209V600H85.2319C84.9373 600 84.6946 599.905 84.5039 599.714C84.3219 599.523 84.2309 599.281 84.2309 598.986V598.908ZM82.1509 599.22C82.4543 599.22 82.7316 599.164 82.9829 599.051C83.2429 598.938 83.4639 598.778 83.6459 598.57C83.8279 598.362 83.9709 598.115 84.0749 597.829C84.1789 597.534 84.2309 597.209 84.2309 596.854V596.698C84.2309 596.351 84.1789 596.035 84.0749 595.749C83.9709 595.454 83.8236 595.203 83.6329 594.995C83.4509 594.787 83.2299 594.627 82.9699 594.514C82.7186 594.393 82.4456 594.332 82.1509 594.332C81.8476 594.332 81.5703 594.388 81.3189 594.501C81.0676 594.614 80.8466 594.774 80.6559 594.982C80.4739 595.181 80.3309 595.428 80.2269 595.723C80.1229 596.009 80.0709 596.325 80.0709 596.672V596.88C80.0709 597.617 80.2616 598.193 80.6429 598.609C81.0329 599.016 81.5356 599.22 82.1509 599.22ZM92.1909 598.83H92.0349C91.8269 599.246 91.5539 599.575 91.2159 599.818C90.8779 600.061 90.4489 600.182 89.9289 600.182C89.5735 600.182 89.2442 600.121 88.9409 600C88.6462 599.887 88.3905 599.714 88.1739 599.48C87.9659 599.246 87.8012 598.956 87.6799 598.609C87.5672 598.262 87.5109 597.859 87.5109 597.4V593.552H88.5249V597.27C88.5249 597.946 88.6635 598.44 88.9409 598.752C89.2182 599.064 89.6429 599.22 90.2149 599.22C90.8302 599.22 91.3112 599.012 91.6579 598.596C92.0132 598.171 92.1909 597.608 92.1909 596.906V593.552H93.2049V601.586C93.2049 601.881 93.1095 602.123 92.9189 602.314C92.7369 602.505 92.4985 602.6 92.2039 602.6H88.5249V601.664H91.8399C92.0739 601.664 92.1909 601.534 92.1909 601.274V598.83Z" fill="#314455"/>
<path d="M267.835 47.908V39.718H267.667L266.057 43.4H264.895V43.316L266.729 39.2H269.011V47.908H271.783V49H265.063V47.908H267.835ZM273.482 43.008C273.482 41.7387 273.785 40.754 274.392 40.054C274.998 39.354 275.843 39.004 276.926 39.004C278.008 39.004 278.853 39.354 279.46 40.054C280.066 40.754 280.37 41.7387 280.37 43.008V45.192C280.37 46.4987 280.066 47.4927 279.46 48.174C278.853 48.8553 278.008 49.196 276.926 49.196C275.843 49.196 274.998 48.8553 274.392 48.174C273.785 47.4927 273.482 46.4987 273.482 45.192V43.008ZM276.926 48.132C277.682 48.132 278.246 47.8707 278.62 47.348C279.002 46.816 279.194 46.0693 279.194 45.108V43.092C279.194 42.644 279.147 42.238 279.054 41.874C278.96 41.5007 278.816 41.1833 278.62 40.922C278.433 40.6513 278.195 40.4413 277.906 40.292C277.626 40.1427 277.299 40.068 276.926 40.068C276.543 40.068 276.212 40.1427 275.932 40.292C275.652 40.4413 275.414 40.6513 275.218 40.922C275.031 41.1833 274.891 41.5007 274.798 41.874C274.704 42.238 274.658 42.644 274.658 43.092V45.108C274.658 46.0693 274.844 46.816 275.218 47.348C275.6 47.8707 276.17 48.132 276.926 48.132ZM276.03 44.1C276.03 43.8573 276.118 43.6473 276.296 43.47C276.473 43.2927 276.683 43.204 276.926 43.204C277.168 43.204 277.378 43.2927 277.556 43.47C277.733 43.6473 277.822 43.8573 277.822 44.1C277.822 44.3427 277.733 44.5527 277.556 44.73C277.378 44.9073 277.168 44.996 276.926 44.996C276.683 44.996 276.473 44.9073 276.296 44.73C276.118 44.5527 276.03 44.3427 276.03 44.1ZM296.044 47.824H295.876C295.652 48.2907 295.339 48.636 294.938 48.86C294.546 49.084 294.131 49.196 293.692 49.196C293.235 49.196 292.81 49.1213 292.418 48.972C292.026 48.8133 291.681 48.5847 291.382 48.286C291.093 47.978 290.864 47.6047 290.696 47.166C290.528 46.7273 290.444 46.2187 290.444 45.64V45.416C290.444 44.8467 290.528 44.3427 290.696 43.904C290.864 43.4653 291.093 43.0967 291.382 42.798C291.681 42.49 292.026 42.2567 292.418 42.098C292.81 41.9393 293.225 41.86 293.664 41.86C294.14 41.86 294.569 41.9673 294.952 42.182C295.344 42.3873 295.652 42.7093 295.876 43.148H296.044V42.056H297.136V47.572C297.136 47.852 297.262 47.992 297.514 47.992H297.864V49H297.122C296.805 49 296.543 48.8973 296.338 48.692C296.142 48.4867 296.044 48.2253 296.044 47.908V47.824ZM293.804 48.16C294.131 48.16 294.429 48.0993 294.7 47.978C294.98 47.8567 295.218 47.684 295.414 47.46C295.61 47.236 295.764 46.97 295.876 46.662C295.988 46.3447 296.044 45.9947 296.044 45.612V45.444C296.044 45.0707 295.988 44.73 295.876 44.422C295.764 44.1047 295.605 43.834 295.4 43.61C295.204 43.386 294.966 43.2133 294.686 43.092C294.415 42.9613 294.121 42.896 293.804 42.896C293.477 42.896 293.179 42.9567 292.908 43.078C292.637 43.1993 292.399 43.372 292.194 43.596C291.998 43.8107 291.844 44.0767 291.732 44.394C291.62 44.702 291.564 45.0427 291.564 45.416V45.64C291.564 46.4333 291.769 47.054 292.18 47.502C292.6 47.9407 293.141 48.16 293.804 48.16ZM306.254 49H305.162V44.016C305.162 43.6893 305.088 43.4233 304.938 43.218C304.789 43.0033 304.551 42.896 304.224 42.896C303.916 42.896 303.664 43.0127 303.468 43.246C303.282 43.47 303.188 43.82 303.188 44.296V49H302.096V43.96C302.096 43.652 302.012 43.4 301.844 43.204C301.676 42.9987 301.452 42.896 301.172 42.896C300.836 42.896 300.575 43.0173 300.388 43.26C300.211 43.5027 300.122 43.82 300.122 44.212V49H299.03V42.056H300.122V42.812H300.29C300.412 42.4853 300.589 42.2473 300.822 42.098C301.056 41.9393 301.331 41.86 301.648 41.86C301.984 41.86 302.26 41.9487 302.474 42.126C302.698 42.3033 302.852 42.532 302.936 42.812H303.104C303.422 42.1773 303.926 41.86 304.616 41.86C305.139 41.86 305.54 42.028 305.82 42.364C306.11 42.6907 306.254 43.12 306.254 43.652V49Z" fill="#314455"/>
<path d="M760.447 44.38V39.2H766.579V40.292H761.595V43.792H761.763C761.857 43.6053 761.978 43.428 762.127 43.26C762.277 43.0827 762.449 42.9287 762.645 42.798C762.851 42.6673 763.079 42.5647 763.331 42.49C763.583 42.406 763.863 42.364 764.171 42.364C764.619 42.364 765.03 42.4387 765.403 42.588C765.786 42.7373 766.113 42.9473 766.383 43.218C766.654 43.4887 766.864 43.8153 767.013 44.198C767.172 44.5807 767.251 45.0053 767.251 45.472V45.724C767.251 46.1907 767.177 46.634 767.027 47.054C766.878 47.4647 766.659 47.8333 766.369 48.16C766.08 48.4773 765.721 48.7293 765.291 48.916C764.862 49.1027 764.367 49.196 763.807 49.196C763.238 49.196 762.734 49.112 762.295 48.944C761.857 48.776 761.488 48.5427 761.189 48.244C760.891 47.9453 760.662 47.5953 760.503 47.194C760.354 46.7833 760.279 46.34 760.279 45.864V45.472H761.455V45.78C761.455 46.5547 761.67 47.138 762.099 47.53C762.538 47.9127 763.107 48.104 763.807 48.104C764.181 48.104 764.507 48.0387 764.787 47.908C765.077 47.768 765.315 47.586 765.501 47.362C765.697 47.1287 765.842 46.8627 765.935 46.564C766.029 46.256 766.075 45.9387 766.075 45.612V45.528C766.075 45.2387 766.024 44.968 765.921 44.716C765.828 44.464 765.693 44.2447 765.515 44.058C765.347 43.8713 765.137 43.7267 764.885 43.624C764.643 43.512 764.377 43.456 764.087 43.456C763.891 43.456 763.709 43.484 763.541 43.54C763.383 43.596 763.243 43.6707 763.121 43.764C763 43.848 762.897 43.946 762.813 44.058C762.739 44.17 762.687 44.2773 762.659 44.38H760.447ZM778.558 51.8H777.466V42.056H778.558V43.148H778.726C778.969 42.728 779.305 42.4107 779.734 42.196C780.163 41.972 780.63 41.86 781.134 41.86C781.563 41.86 781.969 41.9393 782.352 42.098C782.735 42.2567 783.071 42.4853 783.36 42.784C783.659 43.0827 783.892 43.4513 784.06 43.89C784.237 44.3287 784.326 44.828 784.326 45.388V45.668C784.326 46.2373 784.242 46.7413 784.074 47.18C783.906 47.6187 783.673 47.9873 783.374 48.286C783.085 48.5847 782.744 48.8133 782.352 48.972C781.96 49.1213 781.545 49.196 781.106 49.196C780.882 49.196 780.653 49.168 780.42 49.112C780.187 49.0653 779.963 48.9907 779.748 48.888C779.543 48.776 779.351 48.6453 779.174 48.496C778.997 48.3373 778.847 48.1507 778.726 47.936H778.558V51.8ZM780.882 48.16C781.218 48.16 781.526 48.104 781.806 47.992C782.086 47.8707 782.329 47.7027 782.534 47.488C782.749 47.2733 782.912 47.012 783.024 46.704C783.145 46.396 783.206 46.0507 783.206 45.668V45.388C783.206 45.0147 783.145 44.6787 783.024 44.38C782.912 44.072 782.749 43.8107 782.534 43.596C782.329 43.372 782.081 43.1993 781.792 43.078C781.512 42.9567 781.209 42.896 780.882 42.896C780.555 42.896 780.252 42.9613 779.972 43.092C779.692 43.2133 779.445 43.386 779.23 43.61C779.025 43.834 778.861 44.1047 778.74 44.422C778.619 44.73 778.558 45.0707 778.558 45.444V45.612C778.558 45.9947 778.619 46.3447 778.74 46.662C778.861 46.97 779.025 47.236 779.23 47.46C779.445 47.684 779.692 47.8567 779.972 47.978C780.252 48.0993 780.555 48.16 780.882 48.16ZM792.968 49H791.876V44.016C791.876 43.6893 791.802 43.4233 791.652 43.218C791.503 43.0033 791.265 42.896 790.938 42.896C790.63 42.896 790.378 43.0127 790.182 43.246C789.996 43.47 789.902 43.82 789.902 44.296V49H788.81V43.96C788.81 43.652 788.726 43.4 788.558 43.204C788.39 42.9987 788.166 42.896 787.886 42.896C787.55 42.896 787.289 43.0173 787.102 43.26C786.925 43.5027 786.836 43.82 786.836 44.212V49H785.744V42.056H786.836V42.812H787.004C787.126 42.4853 787.303 42.2473 787.536 42.098C787.77 41.9393 788.045 41.86 788.362 41.86C788.698 41.86 788.974 41.9487 789.188 42.126C789.412 42.3033 789.566 42.532 789.65 42.812H789.818C790.136 42.1773 790.64 41.86 791.33 41.86C791.853 41.86 792.254 42.028 792.534 42.364C792.824 42.6907 792.968 43.12 792.968 43.652V49Z" fill="#314455"/>
<path d="M836.697 43.056C836.697 42.4493 836.511 41.964 836.137 41.6C835.764 41.2267 835.246 41.04 834.583 41.04C834.266 41.04 833.972 41.096 833.701 41.208C833.44 41.32 833.211 41.4833 833.015 41.698C832.829 41.9033 832.679 42.1507 832.567 42.44C832.465 42.7293 832.413 43.0467 832.413 43.392V44.848H832.581C832.805 44.4373 833.123 44.1153 833.533 43.882C833.953 43.6487 834.42 43.532 834.933 43.532C835.381 43.532 835.797 43.6067 836.179 43.756C836.562 43.896 836.889 44.106 837.159 44.386C837.439 44.666 837.654 45.0067 837.803 45.408C837.962 45.8 838.041 46.248 838.041 46.752V46.92C838.041 47.4053 837.953 47.8487 837.775 48.25C837.607 48.6513 837.369 48.9967 837.061 49.286C836.763 49.5753 836.403 49.7993 835.983 49.958C835.573 50.1167 835.125 50.196 834.639 50.196C834.154 50.196 833.701 50.1167 833.281 49.958C832.871 49.7993 832.511 49.58 832.203 49.3C831.905 49.0107 831.667 48.67 831.489 48.278C831.321 47.8767 831.237 47.438 831.237 46.962V43.392C831.237 42.8787 831.326 42.412 831.503 41.992C831.681 41.572 831.923 41.2173 832.231 40.928C832.539 40.6293 832.894 40.4007 833.295 40.242C833.706 40.0833 834.145 40.004 834.611 40.004C835.078 40.004 835.512 40.074 835.913 40.214C836.315 40.354 836.66 40.5593 836.949 40.83C837.239 41.0913 837.463 41.4133 837.621 41.796C837.789 42.1693 837.873 42.5893 837.873 43.056H836.697ZM834.639 49.16C834.975 49.16 835.279 49.1087 835.549 49.006C835.829 48.894 836.067 48.74 836.263 48.544C836.459 48.348 836.609 48.1147 836.711 47.844C836.814 47.5733 836.865 47.2747 836.865 46.948V46.78C836.865 46.4533 836.809 46.1547 836.697 45.884C836.585 45.6133 836.431 45.38 836.235 45.184C836.039 44.988 835.801 44.8387 835.521 44.736C835.251 44.624 834.957 44.568 834.639 44.568C834.322 44.568 834.028 44.624 833.757 44.736C833.487 44.848 833.249 45.002 833.043 45.198C832.847 45.394 832.693 45.6227 832.581 45.884C832.469 46.1453 832.413 46.4253 832.413 46.724V46.99C832.413 47.298 832.465 47.5873 832.567 47.858C832.67 48.1193 832.819 48.348 833.015 48.544C833.211 48.74 833.445 48.894 833.715 49.006C833.995 49.1087 834.303 49.16 834.639 49.16ZM849.558 52.8H848.466V43.056H849.558V44.148H849.726C849.969 43.728 850.305 43.4107 850.734 43.196C851.163 42.972 851.63 42.86 852.134 42.86C852.563 42.86 852.969 42.9393 853.352 43.098C853.735 43.2567 854.071 43.4853 854.36 43.784C854.659 44.0827 854.892 44.4513 855.06 44.89C855.237 45.3287 855.326 45.828 855.326 46.388V46.668C855.326 47.2373 855.242 47.7413 855.074 48.18C854.906 48.6187 854.673 48.9873 854.374 49.286C854.085 49.5847 853.744 49.8133 853.352 49.972C852.96 50.1213 852.545 50.196 852.106 50.196C851.882 50.196 851.653 50.168 851.42 50.112C851.187 50.0653 850.963 49.9907 850.748 49.888C850.543 49.776 850.351 49.6453 850.174 49.496C849.997 49.3373 849.847 49.1507 849.726 48.936H849.558V52.8ZM851.882 49.16C852.218 49.16 852.526 49.104 852.806 48.992C853.086 48.8707 853.329 48.7027 853.534 48.488C853.749 48.2733 853.912 48.012 854.024 47.704C854.145 47.396 854.206 47.0507 854.206 46.668V46.388C854.206 46.0147 854.145 45.6787 854.024 45.38C853.912 45.072 853.749 44.8107 853.534 44.596C853.329 44.372 853.081 44.1993 852.792 44.078C852.512 43.9567 852.209 43.896 851.882 43.896C851.555 43.896 851.252 43.9613 850.972 44.092C850.692 44.2133 850.445 44.386 850.23 44.61C850.025 44.834 849.861 45.1047 849.74 45.422C849.619 45.73 849.558 46.0707 849.558 46.444V46.612C849.558 46.9947 849.619 47.3447 849.74 47.662C849.861 47.97 850.025 48.236 850.23 48.46C850.445 48.684 850.692 48.8567 850.972 48.978C851.252 49.0993 851.555 49.16 851.882 49.16ZM863.968 50H862.876V45.016C862.876 44.6893 862.802 44.4233 862.652 44.218C862.503 44.0033 862.265 43.896 861.938 43.896C861.63 43.896 861.378 44.0127 861.182 44.246C860.996 44.47 860.902 44.82 860.902 45.296V50H859.81V44.96C859.81 44.652 859.726 44.4 859.558 44.204C859.39 43.9987 859.166 43.896 858.886 43.896C858.55 43.896 858.289 44.0173 858.102 44.26C857.925 44.5027 857.836 44.82 857.836 45.212V50H856.744V43.056H857.836V43.812H858.004C858.126 43.4853 858.303 43.2473 858.536 43.098C858.77 42.9393 859.045 42.86 859.362 42.86C859.698 42.86 859.974 42.9487 860.188 43.126C860.412 43.3033 860.566 43.532 860.65 43.812H860.818C861.136 43.1773 861.64 42.86 862.33 42.86C862.853 42.86 863.254 43.028 863.534 43.364C863.824 43.6907 863.968 44.12 863.968 44.652V50Z" fill="#314455"/>
<path d="M555.971 48.908V50H549.335V48.32C549.335 47.872 549.41 47.4847 549.559 47.158C549.709 46.822 549.919 46.5373 550.189 46.304C550.469 46.0613 550.805 45.8607 551.197 45.702C551.589 45.5433 552.033 45.408 552.527 45.296C553.358 45.1093 553.955 44.8433 554.319 44.498C554.693 44.1527 554.879 43.728 554.879 43.224V43.14C554.879 42.888 554.837 42.6407 554.753 42.398C554.669 42.1553 554.539 41.936 554.361 41.74C554.184 41.544 553.955 41.39 553.675 41.278C553.405 41.1567 553.078 41.096 552.695 41.096C551.977 41.096 551.417 41.3153 551.015 41.754C550.623 42.1927 550.427 42.776 550.427 43.504V44.12H549.251V43.42C549.251 42.972 549.326 42.5427 549.475 42.132C549.625 41.7213 549.844 41.3573 550.133 41.04C550.423 40.7227 550.782 40.4707 551.211 40.284C551.641 40.0973 552.135 40.004 552.695 40.004C553.265 40.004 553.759 40.0927 554.179 40.27C554.599 40.438 554.949 40.6667 555.229 40.956C555.509 41.236 555.715 41.558 555.845 41.922C555.985 42.2767 556.055 42.6407 556.055 43.014V43.266C556.055 44.0127 555.822 44.652 555.355 45.184C554.889 45.7067 554.142 46.08 553.115 46.304C552.219 46.5 551.561 46.7613 551.141 47.088C550.721 47.4053 550.511 47.872 550.511 48.488V48.908H555.971ZM567.558 52.8H566.466V43.056H567.558V44.148H567.726C567.969 43.728 568.305 43.4107 568.734 43.196C569.163 42.972 569.63 42.86 570.134 42.86C570.563 42.86 570.969 42.9393 571.352 43.098C571.735 43.2567 572.071 43.4853 572.36 43.784C572.659 44.0827 572.892 44.4513 573.06 44.89C573.237 45.3287 573.326 45.828 573.326 46.388V46.668C573.326 47.2373 573.242 47.7413 573.074 48.18C572.906 48.6187 572.673 48.9873 572.374 49.286C572.085 49.5847 571.744 49.8133 571.352 49.972C570.96 50.1213 570.545 50.196 570.106 50.196C569.882 50.196 569.653 50.168 569.42 50.112C569.187 50.0653 568.963 49.9907 568.748 49.888C568.543 49.776 568.351 49.6453 568.174 49.496C567.997 49.3373 567.847 49.1507 567.726 48.936H567.558V52.8ZM569.882 49.16C570.218 49.16 570.526 49.104 570.806 48.992C571.086 48.8707 571.329 48.7027 571.534 48.488C571.749 48.2733 571.912 48.012 572.024 47.704C572.145 47.396 572.206 47.0507 572.206 46.668V46.388C572.206 46.0147 572.145 45.6787 572.024 45.38C571.912 45.072 571.749 44.8107 571.534 44.596C571.329 44.372 571.081 44.1993 570.792 44.078C570.512 43.9567 570.209 43.896 569.882 43.896C569.555 43.896 569.252 43.9613 568.972 44.092C568.692 44.2133 568.445 44.386 568.23 44.61C568.025 44.834 567.861 45.1047 567.74 45.422C567.619 45.73 567.558 46.0707 567.558 46.444V46.612C567.558 46.9947 567.619 47.3447 567.74 47.662C567.861 47.97 568.025 48.236 568.23 48.46C568.445 48.684 568.692 48.8567 568.972 48.978C569.252 49.0993 569.555 49.16 569.882 49.16ZM581.968 50H580.876V45.016C580.876 44.6893 580.802 44.4233 580.652 44.218C580.503 44.0033 580.265 43.896 579.938 43.896C579.63 43.896 579.378 44.0127 579.182 44.246C578.996 44.47 578.902 44.82 578.902 45.296V50H577.81V44.96C577.81 44.652 577.726 44.4 577.558 44.204C577.39 43.9987 577.166 43.896 576.886 43.896C576.55 43.896 576.289 44.0173 576.102 44.26C575.925 44.5027 575.836 44.82 575.836 45.212V50H574.744V43.056H575.836V43.812H576.004C576.126 43.4853 576.303 43.2473 576.536 43.098C576.77 42.9393 577.045 42.86 577.362 42.86C577.698 42.86 577.974 42.9487 578.188 43.126C578.412 43.3033 578.566 43.532 578.65 43.812H578.818C579.136 43.1773 579.64 42.86 580.33 42.86C580.853 42.86 581.254 43.028 581.534 43.364C581.824 43.6907 581.968 44.12 581.968 44.652V50Z" fill="#314455"/>
<path d="M622.673 44.128V42.504L625.865 40.46V40.292H620.321V39.2H626.873V40.992L623.681 43.036V43.204H624.241C624.615 43.204 624.974 43.2647 625.319 43.386C625.665 43.5073 625.968 43.6847 626.229 43.918C626.5 44.1513 626.715 44.4407 626.873 44.786C627.041 45.122 627.125 45.514 627.125 45.962V46.214C627.125 46.634 627.041 47.026 626.873 47.39C626.705 47.754 626.472 48.0713 626.173 48.342C625.875 48.6033 625.52 48.8133 625.109 48.972C624.708 49.1213 624.269 49.196 623.793 49.196C623.243 49.196 622.748 49.112 622.309 48.944C621.871 48.776 621.497 48.5473 621.189 48.258C620.881 47.9593 620.643 47.614 620.475 47.222C620.317 46.8207 620.237 46.396 620.237 45.948V45.192H621.413V45.864C621.413 46.2187 621.469 46.536 621.581 46.816C621.703 47.0867 621.866 47.32 622.071 47.516C622.286 47.7027 622.538 47.8473 622.827 47.95C623.117 48.0527 623.429 48.104 623.765 48.104C624.073 48.104 624.358 48.0527 624.619 47.95C624.89 47.8473 625.123 47.7073 625.319 47.53C625.515 47.3433 625.669 47.1287 625.781 46.886C625.893 46.634 625.949 46.368 625.949 46.088V46.004C625.949 45.416 625.763 44.9587 625.389 44.632C625.016 44.296 624.549 44.128 623.989 44.128H622.673ZM638.558 51.8H637.466V42.056H638.558V43.148H638.726C638.969 42.728 639.305 42.4107 639.734 42.196C640.163 41.972 640.63 41.86 641.134 41.86C641.563 41.86 641.969 41.9393 642.352 42.098C642.735 42.2567 643.071 42.4853 643.36 42.784C643.659 43.0827 643.892 43.4513 644.06 43.89C644.237 44.3287 644.326 44.828 644.326 45.388V45.668C644.326 46.2373 644.242 46.7413 644.074 47.18C643.906 47.6187 643.673 47.9873 643.374 48.286C643.085 48.5847 642.744 48.8133 642.352 48.972C641.96 49.1213 641.545 49.196 641.106 49.196C640.882 49.196 640.653 49.168 640.42 49.112C640.187 49.0653 639.963 48.9907 639.748 48.888C639.543 48.776 639.351 48.6453 639.174 48.496C638.997 48.3373 638.847 48.1507 638.726 47.936H638.558V51.8ZM640.882 48.16C641.218 48.16 641.526 48.104 641.806 47.992C642.086 47.8707 642.329 47.7027 642.534 47.488C642.749 47.2733 642.912 47.012 643.024 46.704C643.145 46.396 643.206 46.0507 643.206 45.668V45.388C643.206 45.0147 643.145 44.6787 643.024 44.38C642.912 44.072 642.749 43.8107 642.534 43.596C642.329 43.372 642.081 43.1993 641.792 43.078C641.512 42.9567 641.209 42.896 640.882 42.896C640.555 42.896 640.252 42.9613 639.972 43.092C639.692 43.2133 639.445 43.386 639.23 43.61C639.025 43.834 638.861 44.1047 638.74 44.422C638.619 44.73 638.558 45.0707 638.558 45.444V45.612C638.558 45.9947 638.619 46.3447 638.74 46.662C638.861 46.97 639.025 47.236 639.23 47.46C639.445 47.684 639.692 47.8567 639.972 47.978C640.252 48.0993 640.555 48.16 640.882 48.16ZM652.968 49H651.876V44.016C651.876 43.6893 651.802 43.4233 651.652 43.218C651.503 43.0033 651.265 42.896 650.938 42.896C650.63 42.896 650.378 43.0127 650.182 43.246C649.996 43.47 649.902 43.82 649.902 44.296V49H648.81V43.96C648.81 43.652 648.726 43.4 648.558 43.204C648.39 42.9987 648.166 42.896 647.886 42.896C647.55 42.896 647.289 43.0173 647.102 43.26C646.925 43.5027 646.836 43.82 646.836 44.212V49H645.744V42.056H646.836V42.812H647.004C647.126 42.4853 647.303 42.2473 647.536 42.098C647.77 41.9393 648.045 41.86 648.362 41.86C648.698 41.86 648.974 41.9487 649.188 42.126C649.412 42.3033 649.566 42.532 649.65 42.812H649.818C650.136 42.1773 650.64 41.86 651.33 41.86C651.853 41.86 652.254 42.028 652.534 42.364C652.824 42.6907 652.968 43.12 652.968 43.652V49Z" fill="#314455"/>
<path d="M196.581 47.144C196.581 47.7507 196.768 48.2407 197.141 48.614C197.515 48.978 198.033 49.16 198.695 49.16C199.013 49.16 199.302 49.104 199.563 48.992C199.834 48.88 200.063 48.7213 200.249 48.516C200.445 48.3013 200.595 48.054 200.697 47.774C200.809 47.4847 200.865 47.1627 200.865 46.808V45.352H200.697C200.483 45.7627 200.175 46.0847 199.773 46.318C199.372 46.5513 198.905 46.668 198.373 46.668C197.916 46.668 197.496 46.598 197.113 46.458C196.731 46.318 196.399 46.1127 196.119 45.842C195.839 45.562 195.62 45.226 195.461 44.834C195.312 44.442 195.237 43.994 195.237 43.49V43.322C195.237 42.8367 195.321 42.3933 195.489 41.992C195.657 41.5813 195.891 41.2313 196.189 40.942C196.497 40.6433 196.857 40.4147 197.267 40.256C197.687 40.088 198.145 40.004 198.639 40.004C199.134 40.004 199.587 40.088 199.997 40.256C200.417 40.4147 200.777 40.6387 201.075 40.928C201.383 41.2173 201.621 41.5627 201.789 41.964C201.957 42.3653 202.041 42.804 202.041 43.28V46.808C202.041 47.3307 201.953 47.802 201.775 48.222C201.607 48.6327 201.369 48.9873 201.061 49.286C200.763 49.5753 200.408 49.7993 199.997 49.958C199.587 50.1167 199.143 50.196 198.667 50.196C198.191 50.196 197.753 50.126 197.351 49.986C196.95 49.846 196.605 49.6453 196.315 49.384C196.026 49.1133 195.802 48.7913 195.643 48.418C195.485 48.0353 195.405 47.6107 195.405 47.144H196.581ZM198.639 41.04C198.303 41.04 197.995 41.096 197.715 41.208C197.445 41.32 197.211 41.4787 197.015 41.684C196.819 41.8893 196.67 42.132 196.567 42.412C196.465 42.6827 196.413 42.9767 196.413 43.294V43.462C196.413 43.7887 196.469 44.0873 196.581 44.358C196.693 44.6193 196.847 44.848 197.043 45.044C197.239 45.2307 197.473 45.3753 197.743 45.478C198.014 45.5807 198.313 45.632 198.639 45.632C198.957 45.632 199.251 45.5807 199.521 45.478C199.792 45.366 200.025 45.2167 200.221 45.03C200.427 44.8433 200.585 44.6193 200.697 44.358C200.809 44.0967 200.865 43.8167 200.865 43.518V43.252C200.865 42.944 200.814 42.6547 200.711 42.384C200.609 42.1133 200.459 41.88 200.263 41.684C200.067 41.4787 199.829 41.32 199.549 41.208C199.279 41.096 198.975 41.04 198.639 41.04ZM217.758 48.824H217.59C217.366 49.2907 217.053 49.636 216.652 49.86C216.26 50.084 215.845 50.196 215.406 50.196C214.949 50.196 214.524 50.1213 214.132 49.972C213.74 49.8133 213.395 49.5847 213.096 49.286C212.807 48.978 212.578 48.6047 212.41 48.166C212.242 47.7273 212.158 47.2187 212.158 46.64V46.416C212.158 45.8467 212.242 45.3427 212.41 44.904C212.578 44.4653 212.807 44.0967 213.096 43.798C213.395 43.49 213.74 43.2567 214.132 43.098C214.524 42.9393 214.939 42.86 215.378 42.86C215.854 42.86 216.283 42.9673 216.666 43.182C217.058 43.3873 217.366 43.7093 217.59 44.148H217.758V43.056H218.85V48.572C218.85 48.852 218.976 48.992 219.228 48.992H219.578V50H218.836C218.519 50 218.257 49.8973 218.052 49.692C217.856 49.4867 217.758 49.2253 217.758 48.908V48.824ZM215.518 49.16C215.845 49.16 216.143 49.0993 216.414 48.978C216.694 48.8567 216.932 48.684 217.128 48.46C217.324 48.236 217.478 47.97 217.59 47.662C217.702 47.3447 217.758 46.9947 217.758 46.612V46.444C217.758 46.0707 217.702 45.73 217.59 45.422C217.478 45.1047 217.319 44.834 217.114 44.61C216.918 44.386 216.68 44.2133 216.4 44.092C216.129 43.9613 215.835 43.896 215.518 43.896C215.191 43.896 214.893 43.9567 214.622 44.078C214.351 44.1993 214.113 44.372 213.908 44.596C213.712 44.8107 213.558 45.0767 213.446 45.394C213.334 45.702 213.278 46.0427 213.278 46.416V46.64C213.278 47.4333 213.483 48.054 213.894 48.502C214.314 48.9407 214.855 49.16 215.518 49.16ZM227.968 50H226.876V45.016C226.876 44.6893 226.802 44.4233 226.652 44.218C226.503 44.0033 226.265 43.896 225.938 43.896C225.63 43.896 225.378 44.0127 225.182 44.246C224.996 44.47 224.902 44.82 224.902 45.296V50H223.81V44.96C223.81 44.652 223.726 44.4 223.558 44.204C223.39 43.9987 223.166 43.896 222.886 43.896C222.55 43.896 222.289 44.0173 222.102 44.26C221.925 44.5027 221.836 44.82 221.836 45.212V50H220.744V43.056H221.836V43.812H222.004C222.126 43.4853 222.303 43.2473 222.536 43.098C222.77 42.9393 223.045 42.86 223.362 42.86C223.698 42.86 223.974 42.9487 224.188 43.126C224.412 43.3033 224.566 43.532 224.65 43.812H224.818C225.136 43.1773 225.64 42.86 226.33 42.86C226.853 42.86 227.254 43.028 227.534 43.364C227.824 43.6907 227.968 44.12 227.968 44.652V50Z" fill="#314455"/>
<path d="M137.513 50.196C137.019 50.196 136.571 50.1307 136.169 50C135.768 49.86 135.423 49.6733 135.133 49.44C134.844 49.1973 134.62 48.9173 134.461 48.6C134.312 48.2733 134.237 47.9187 134.237 47.536V47.368C134.237 47.032 134.289 46.7333 134.391 46.472C134.494 46.2107 134.629 45.982 134.797 45.786C134.965 45.59 135.157 45.4267 135.371 45.296C135.595 45.1653 135.824 45.0673 136.057 45.002V44.834C135.843 44.7687 135.642 44.6707 135.455 44.54C135.269 44.4093 135.101 44.2553 134.951 44.078C134.811 43.9007 134.699 43.7 134.615 43.476C134.531 43.2427 134.489 42.9907 134.489 42.72V42.552C134.489 42.1787 134.564 41.838 134.713 41.53C134.863 41.2127 135.073 40.942 135.343 40.718C135.623 40.494 135.95 40.3213 136.323 40.2C136.706 40.0693 137.131 40.004 137.597 40.004H137.681C138.139 40.004 138.559 40.0693 138.941 40.2C139.324 40.3213 139.651 40.494 139.921 40.718C140.201 40.942 140.416 41.2127 140.565 41.53C140.715 41.838 140.789 42.1787 140.789 42.552V42.72C140.789 42.9907 140.747 43.2427 140.663 43.476C140.579 43.7 140.463 43.9007 140.313 44.078C140.173 44.2553 140.005 44.4093 139.809 44.54C139.623 44.6707 139.427 44.7687 139.221 44.834V45.002C139.455 45.0673 139.679 45.1653 139.893 45.296C140.117 45.4267 140.313 45.59 140.481 45.786C140.649 45.982 140.785 46.2107 140.887 46.472C140.99 46.7333 141.041 47.032 141.041 47.368V47.536C141.041 47.9187 140.962 48.2733 140.803 48.6C140.654 48.9173 140.435 49.1973 140.145 49.44C139.856 49.6733 139.511 49.86 139.109 50C138.708 50.1307 138.26 50.196 137.765 50.196H137.513ZM137.723 49.132C138.358 49.132 138.871 48.9687 139.263 48.642C139.665 48.3153 139.865 47.8907 139.865 47.368V47.284C139.865 46.7053 139.66 46.2573 139.249 45.94C138.848 45.6227 138.325 45.464 137.681 45.464H137.597C136.953 45.464 136.426 45.6227 136.015 45.94C135.614 46.2573 135.413 46.7053 135.413 47.284V47.368C135.413 47.8907 135.609 48.3153 136.001 48.642C136.403 48.9687 136.921 49.132 137.555 49.132H137.723ZM137.639 44.372C138.227 44.372 138.703 44.218 139.067 43.91C139.431 43.602 139.613 43.2147 139.613 42.748V42.664C139.613 42.188 139.431 41.8053 139.067 41.516C138.713 41.2173 138.237 41.068 137.639 41.068C137.042 41.068 136.561 41.2173 136.197 41.516C135.843 41.8053 135.665 42.188 135.665 42.664V42.748C135.665 43.2147 135.847 43.602 136.211 43.91C136.575 44.218 137.051 44.372 137.639 44.372ZM156.758 48.824H156.59C156.366 49.2907 156.053 49.636 155.652 49.86C155.26 50.084 154.845 50.196 154.406 50.196C153.949 50.196 153.524 50.1213 153.132 49.972C152.74 49.8133 152.395 49.5847 152.096 49.286C151.807 48.978 151.578 48.6047 151.41 48.166C151.242 47.7273 151.158 47.2187 151.158 46.64V46.416C151.158 45.8467 151.242 45.3427 151.41 44.904C151.578 44.4653 151.807 44.0967 152.096 43.798C152.395 43.49 152.74 43.2567 153.132 43.098C153.524 42.9393 153.939 42.86 154.378 42.86C154.854 42.86 155.283 42.9673 155.666 43.182C156.058 43.3873 156.366 43.7093 156.59 44.148H156.758V43.056H157.85V48.572C157.85 48.852 157.976 48.992 158.228 48.992H158.578V50H157.836C157.519 50 157.257 49.8973 157.052 49.692C156.856 49.4867 156.758 49.2253 156.758 48.908V48.824ZM154.518 49.16C154.845 49.16 155.143 49.0993 155.414 48.978C155.694 48.8567 155.932 48.684 156.128 48.46C156.324 48.236 156.478 47.97 156.59 47.662C156.702 47.3447 156.758 46.9947 156.758 46.612V46.444C156.758 46.0707 156.702 45.73 156.59 45.422C156.478 45.1047 156.319 44.834 156.114 44.61C155.918 44.386 155.68 44.2133 155.4 44.092C155.129 43.9613 154.835 43.896 154.518 43.896C154.191 43.896 153.893 43.9567 153.622 44.078C153.351 44.1993 153.113 44.372 152.908 44.596C152.712 44.8107 152.558 45.0767 152.446 45.394C152.334 45.702 152.278 46.0427 152.278 46.416V46.64C152.278 47.4333 152.483 48.054 152.894 48.502C153.314 48.9407 153.855 49.16 154.518 49.16ZM166.968 50H165.876V45.016C165.876 44.6893 165.802 44.4233 165.652 44.218C165.503 44.0033 165.265 43.896 164.938 43.896C164.63 43.896 164.378 44.0127 164.182 44.246C163.996 44.47 163.902 44.82 163.902 45.296V50H162.81V44.96C162.81 44.652 162.726 44.4 162.558 44.204C162.39 43.9987 162.166 43.896 161.886 43.896C161.55 43.896 161.289 44.0173 161.102 44.26C160.925 44.5027 160.836 44.82 160.836 45.212V50H159.744V43.056H160.836V43.812H161.004C161.126 43.4853 161.303 43.2473 161.536 43.098C161.77 42.9393 162.045 42.86 162.362 42.86C162.698 42.86 162.974 42.9487 163.188 43.126C163.412 43.3033 163.566 43.532 163.65 43.812H163.818C164.136 43.1773 164.64 42.86 165.33 42.86C165.853 42.86 166.254 43.028 166.534 43.364C166.824 43.6907 166.968 44.12 166.968 44.652V50Z" fill="#314455"/>
<path d="M339.835 47.908V39.718H339.667L338.057 43.4H336.895V43.316L338.729 39.2H341.011V47.908H343.783V49H337.063V47.908H339.835ZM348.408 47.908V39.718H348.24L346.63 43.4H345.468V43.316L347.302 39.2H349.584V47.908H352.356V49H345.636V47.908H348.408ZM368.044 47.824H367.876C367.652 48.2907 367.339 48.636 366.938 48.86C366.546 49.084 366.131 49.196 365.692 49.196C365.235 49.196 364.81 49.1213 364.418 48.972C364.026 48.8133 363.681 48.5847 363.382 48.286C363.093 47.978 362.864 47.6047 362.696 47.166C362.528 46.7273 362.444 46.2187 362.444 45.64V45.416C362.444 44.8467 362.528 44.3427 362.696 43.904C362.864 43.4653 363.093 43.0967 363.382 42.798C363.681 42.49 364.026 42.2567 364.418 42.098C364.81 41.9393 365.225 41.86 365.664 41.86C366.14 41.86 366.569 41.9673 366.952 42.182C367.344 42.3873 367.652 42.7093 367.876 43.148H368.044V42.056H369.136V47.572C369.136 47.852 369.262 47.992 369.514 47.992H369.864V49H369.122C368.805 49 368.543 48.8973 368.338 48.692C368.142 48.4867 368.044 48.2253 368.044 47.908V47.824ZM365.804 48.16C366.131 48.16 366.429 48.0993 366.7 47.978C366.98 47.8567 367.218 47.684 367.414 47.46C367.61 47.236 367.764 46.97 367.876 46.662C367.988 46.3447 368.044 45.9947 368.044 45.612V45.444C368.044 45.0707 367.988 44.73 367.876 44.422C367.764 44.1047 367.605 43.834 367.4 43.61C367.204 43.386 366.966 43.2133 366.686 43.092C366.415 42.9613 366.121 42.896 365.804 42.896C365.477 42.896 365.179 42.9567 364.908 43.078C364.637 43.1993 364.399 43.372 364.194 43.596C363.998 43.8107 363.844 44.0767 363.732 44.394C363.62 44.702 363.564 45.0427 363.564 45.416V45.64C363.564 46.4333 363.769 47.054 364.18 47.502C364.6 47.9407 365.141 48.16 365.804 48.16ZM378.254 49H377.162V44.016C377.162 43.6893 377.088 43.4233 376.938 43.218C376.789 43.0033 376.551 42.896 376.224 42.896C375.916 42.896 375.664 43.0127 375.468 43.246C375.282 43.47 375.188 43.82 375.188 44.296V49H374.096V43.96C374.096 43.652 374.012 43.4 373.844 43.204C373.676 42.9987 373.452 42.896 373.172 42.896C372.836 42.896 372.575 43.0173 372.388 43.26C372.211 43.5027 372.122 43.82 372.122 44.212V49H371.03V42.056H372.122V42.812H372.29C372.412 42.4853 372.589 42.2473 372.822 42.098C373.056 41.9393 373.331 41.86 373.648 41.86C373.984 41.86 374.26 41.9487 374.474 42.126C374.698 42.3033 374.852 42.532 374.936 42.812H375.104C375.422 42.1773 375.926 41.86 376.616 41.86C377.139 41.86 377.54 42.028 377.82 42.364C378.11 42.6907 378.254 43.12 378.254 43.652V49Z" fill="#314455"/>
<path d="M899.363 39.2H905.915V40.908L901.785 47.152C901.589 47.4507 901.44 47.7073 901.337 47.922C901.235 48.1367 901.183 48.356 901.183 48.58V49H900.035V48.496C900.035 48.328 900.049 48.1693 900.077 48.02C900.115 47.8707 900.166 47.7213 900.231 47.572C900.306 47.4133 900.395 47.25 900.497 47.082C900.609 46.9047 900.74 46.704 900.889 46.48L904.907 40.46V40.292H899.363V39.2ZM917.558 51.8H916.466V42.056H917.558V43.148H917.726C917.969 42.728 918.305 42.4107 918.734 42.196C919.163 41.972 919.63 41.86 920.134 41.86C920.563 41.86 920.969 41.9393 921.352 42.098C921.735 42.2567 922.071 42.4853 922.36 42.784C922.659 43.0827 922.892 43.4513 923.06 43.89C923.237 44.3287 923.326 44.828 923.326 45.388V45.668C923.326 46.2373 923.242 46.7413 923.074 47.18C922.906 47.6187 922.673 47.9873 922.374 48.286C922.085 48.5847 921.744 48.8133 921.352 48.972C920.96 49.1213 920.545 49.196 920.106 49.196C919.882 49.196 919.653 49.168 919.42 49.112C919.187 49.0653 918.963 48.9907 918.748 48.888C918.543 48.776 918.351 48.6453 918.174 48.496C917.997 48.3373 917.847 48.1507 917.726 47.936H917.558V51.8ZM919.882 48.16C920.218 48.16 920.526 48.104 920.806 47.992C921.086 47.8707 921.329 47.7027 921.534 47.488C921.749 47.2733 921.912 47.012 922.024 46.704C922.145 46.396 922.206 46.0507 922.206 45.668V45.388C922.206 45.0147 922.145 44.6787 922.024 44.38C921.912 44.072 921.749 43.8107 921.534 43.596C921.329 43.372 921.081 43.1993 920.792 43.078C920.512 42.9567 920.209 42.896 919.882 42.896C919.555 42.896 919.252 42.9613 918.972 43.092C918.692 43.2133 918.445 43.386 918.23 43.61C918.025 43.834 917.861 44.1047 917.74 44.422C917.619 44.73 917.558 45.0707 917.558 45.444V45.612C917.558 45.9947 917.619 46.3447 917.74 46.662C917.861 46.97 918.025 47.236 918.23 47.46C918.445 47.684 918.692 47.8567 918.972 47.978C919.252 48.0993 919.555 48.16 919.882 48.16ZM931.968 49H930.876V44.016C930.876 43.6893 930.802 43.4233 930.652 43.218C930.503 43.0033 930.265 42.896 929.938 42.896C929.63 42.896 929.378 43.0127 929.182 43.246C928.996 43.47 928.902 43.82 928.902 44.296V49H927.81V43.96C927.81 43.652 927.726 43.4 927.558 43.204C927.39 42.9987 927.166 42.896 926.886 42.896C926.55 42.896 926.289 43.0173 926.102 43.26C925.925 43.5027 925.836 43.82 925.836 44.212V49H924.744V42.056H925.836V42.812H926.004C926.126 42.4853 926.303 42.2473 926.536 42.098C926.77 41.9393 927.045 41.86 927.362 41.86C927.698 41.86 927.974 41.9487 928.188 42.126C928.412 42.3033 928.566 42.532 928.65 42.812H928.818C929.136 42.1773 929.64 41.86 930.33 41.86C930.853 41.86 931.254 42.028 931.534 42.364C931.824 42.6907 931.968 43.12 931.968 43.652V49Z" fill="#314455"/>
<path d="M694.471 38.2H696.753V45.06H698.265V46.152H696.753V48H695.577V46.152H691.041V44.528L694.471 38.2ZM692.049 44.892V45.06H695.577V38.704H695.409L692.049 44.892ZM709.558 50.8H708.466V41.056H709.558V42.148H709.726C709.969 41.728 710.305 41.4107 710.734 41.196C711.163 40.972 711.63 40.86 712.134 40.86C712.563 40.86 712.969 40.9393 713.352 41.098C713.735 41.2567 714.071 41.4853 714.36 41.784C714.659 42.0827 714.892 42.4513 715.06 42.89C715.237 43.3287 715.326 43.828 715.326 44.388V44.668C715.326 45.2373 715.242 45.7413 715.074 46.18C714.906 46.6187 714.673 46.9873 714.374 47.286C714.085 47.5847 713.744 47.8133 713.352 47.972C712.96 48.1213 712.545 48.196 712.106 48.196C711.882 48.196 711.653 48.168 711.42 48.112C711.187 48.0653 710.963 47.9907 710.748 47.888C710.543 47.776 710.351 47.6453 710.174 47.496C709.997 47.3373 709.847 47.1507 709.726 46.936H709.558V50.8ZM711.882 47.16C712.218 47.16 712.526 47.104 712.806 46.992C713.086 46.8707 713.329 46.7027 713.534 46.488C713.749 46.2733 713.912 46.012 714.024 45.704C714.145 45.396 714.206 45.0507 714.206 44.668V44.388C714.206 44.0147 714.145 43.6787 714.024 43.38C713.912 43.072 713.749 42.8107 713.534 42.596C713.329 42.372 713.081 42.1993 712.792 42.078C712.512 41.9567 712.209 41.896 711.882 41.896C711.555 41.896 711.252 41.9613 710.972 42.092C710.692 42.2133 710.445 42.386 710.23 42.61C710.025 42.834 709.861 43.1047 709.74 43.422C709.619 43.73 709.558 44.0707 709.558 44.444V44.612C709.558 44.9947 709.619 45.3447 709.74 45.662C709.861 45.97 710.025 46.236 710.23 46.46C710.445 46.684 710.692 46.8567 710.972 46.978C711.252 47.0993 711.555 47.16 711.882 47.16ZM723.968 48H722.876V43.016C722.876 42.6893 722.802 42.4233 722.652 42.218C722.503 42.0033 722.265 41.896 721.938 41.896C721.63 41.896 721.378 42.0127 721.182 42.246C720.996 42.47 720.902 42.82 720.902 43.296V48H719.81V42.96C719.81 42.652 719.726 42.4 719.558 42.204C719.39 41.9987 719.166 41.896 718.886 41.896C718.55 41.896 718.289 42.0173 718.102 42.26C717.925 42.5027 717.836 42.82 717.836 43.212V48H716.744V41.056H717.836V41.812H718.004C718.126 41.4853 718.303 41.2473 718.536 41.098C718.77 40.9393 719.045 40.86 719.362 40.86C719.698 40.86 719.974 40.9487 720.188 41.126C720.412 41.3033 720.566 41.532 720.65 41.812H720.818C721.136 41.1773 721.64 40.86 722.33 40.86C722.853 40.86 723.254 41.028 723.534 41.364C723.824 41.6907 723.968 42.12 723.968 42.652V48Z" fill="#314455"/>
<path d="M484.121 48.908V40.718H483.953L482.343 44.4H481.181V44.316L483.015 40.2H485.297V48.908H488.069V50H481.349V48.908H484.121ZM499.558 52.8H498.466V43.056H499.558V44.148H499.726C499.969 43.728 500.305 43.4107 500.734 43.196C501.163 42.972 501.63 42.86 502.134 42.86C502.563 42.86 502.969 42.9393 503.352 43.098C503.735 43.2567 504.071 43.4853 504.36 43.784C504.659 44.0827 504.892 44.4513 505.06 44.89C505.237 45.3287 505.326 45.828 505.326 46.388V46.668C505.326 47.2373 505.242 47.7413 505.074 48.18C504.906 48.6187 504.673 48.9873 504.374 49.286C504.085 49.5847 503.744 49.8133 503.352 49.972C502.96 50.1213 502.545 50.196 502.106 50.196C501.882 50.196 501.653 50.168 501.42 50.112C501.187 50.0653 500.963 49.9907 500.748 49.888C500.543 49.776 500.351 49.6453 500.174 49.496C499.997 49.3373 499.847 49.1507 499.726 48.936H499.558V52.8ZM501.882 49.16C502.218 49.16 502.526 49.104 502.806 48.992C503.086 48.8707 503.329 48.7027 503.534 48.488C503.749 48.2733 503.912 48.012 504.024 47.704C504.145 47.396 504.206 47.0507 504.206 46.668V46.388C504.206 46.0147 504.145 45.6787 504.024 45.38C503.912 45.072 503.749 44.8107 503.534 44.596C503.329 44.372 503.081 44.1993 502.792 44.078C502.512 43.9567 502.209 43.896 501.882 43.896C501.555 43.896 501.252 43.9613 500.972 44.092C500.692 44.2133 500.445 44.386 500.23 44.61C500.025 44.834 499.861 45.1047 499.74 45.422C499.619 45.73 499.558 46.0707 499.558 46.444V46.612C499.558 46.9947 499.619 47.3447 499.74 47.662C499.861 47.97 500.025 48.236 500.23 48.46C500.445 48.684 500.692 48.8567 500.972 48.978C501.252 49.0993 501.555 49.16 501.882 49.16ZM513.968 50H512.876V45.016C512.876 44.6893 512.802 44.4233 512.652 44.218C512.503 44.0033 512.265 43.896 511.938 43.896C511.63 43.896 511.378 44.0127 511.182 44.246C510.996 44.47 510.902 44.82 510.902 45.296V50H509.81V44.96C509.81 44.652 509.726 44.4 509.558 44.204C509.39 43.9987 509.166 43.896 508.886 43.896C508.55 43.896 508.289 44.0173 508.102 44.26C507.925 44.5027 507.836 44.82 507.836 45.212V50H506.744V43.056H507.836V43.812H508.004C508.126 43.4853 508.303 43.2473 508.536 43.098C508.77 42.9393 509.045 42.86 509.362 42.86C509.698 42.86 509.974 42.9487 510.188 43.126C510.412 43.3033 510.566 43.532 510.65 43.812H510.818C511.136 43.1773 511.64 42.86 512.33 42.86C512.853 42.86 513.254 43.028 513.534 43.364C513.824 43.6907 513.968 44.12 513.968 44.652V50Z" fill="#314455"/>
<path d="M407.835 48.908V40.718H407.667L406.057 44.4H404.895V44.316L406.729 40.2H409.011V48.908H411.783V50H405.063V48.908H407.835ZM420.258 48.908V50H413.622V48.32C413.622 47.872 413.696 47.4847 413.846 47.158C413.995 46.822 414.205 46.5373 414.476 46.304C414.756 46.0613 415.092 45.8607 415.484 45.702C415.876 45.5433 416.319 45.408 416.814 45.296C417.644 45.1093 418.242 44.8433 418.606 44.498C418.979 44.1527 419.166 43.728 419.166 43.224V43.14C419.166 42.888 419.124 42.6407 419.04 42.398C418.956 42.1553 418.825 41.936 418.648 41.74C418.47 41.544 418.242 41.39 417.962 41.278C417.691 41.1567 417.364 41.096 416.982 41.096C416.263 41.096 415.703 41.3153 415.302 41.754C414.91 42.1927 414.714 42.776 414.714 43.504V44.12H413.538V43.42C413.538 42.972 413.612 42.5427 413.762 42.132C413.911 41.7213 414.13 41.3573 414.42 41.04C414.709 40.7227 415.068 40.4707 415.498 40.284C415.927 40.0973 416.422 40.004 416.982 40.004C417.551 40.004 418.046 40.0927 418.466 40.27C418.886 40.438 419.236 40.6667 419.516 40.956C419.796 41.236 420.001 41.558 420.132 41.922C420.272 42.2767 420.342 42.6407 420.342 43.014V43.266C420.342 44.0127 420.108 44.652 419.642 45.184C419.175 45.7067 418.428 46.08 417.402 46.304C416.506 46.5 415.848 46.7613 415.428 47.088C415.008 47.4053 414.798 47.872 414.798 48.488V48.908H420.258ZM431.844 52.8H430.752V43.056H431.844V44.148H432.012C432.255 43.728 432.591 43.4107 433.02 43.196C433.449 42.972 433.916 42.86 434.42 42.86C434.849 42.86 435.255 42.9393 435.638 43.098C436.021 43.2567 436.357 43.4853 436.646 43.784C436.945 44.0827 437.178 44.4513 437.346 44.89C437.523 45.3287 437.612 45.828 437.612 46.388V46.668C437.612 47.2373 437.528 47.7413 437.36 48.18C437.192 48.6187 436.959 48.9873 436.66 49.286C436.371 49.5847 436.03 49.8133 435.638 49.972C435.246 50.1213 434.831 50.196 434.392 50.196C434.168 50.196 433.939 50.168 433.706 50.112C433.473 50.0653 433.249 49.9907 433.034 49.888C432.829 49.776 432.637 49.6453 432.46 49.496C432.283 49.3373 432.133 49.1507 432.012 48.936H431.844V52.8ZM434.168 49.16C434.504 49.16 434.812 49.104 435.092 48.992C435.372 48.8707 435.615 48.7027 435.82 48.488C436.035 48.2733 436.198 48.012 436.31 47.704C436.431 47.396 436.492 47.0507 436.492 46.668V46.388C436.492 46.0147 436.431 45.6787 436.31 45.38C436.198 45.072 436.035 44.8107 435.82 44.596C435.615 44.372 435.367 44.1993 435.078 44.078C434.798 43.9567 434.495 43.896 434.168 43.896C433.841 43.896 433.538 43.9613 433.258 44.092C432.978 44.2133 432.731 44.386 432.516 44.61C432.311 44.834 432.147 45.1047 432.026 45.422C431.905 45.73 431.844 46.0707 431.844 46.444V46.612C431.844 46.9947 431.905 47.3447 432.026 47.662C432.147 47.97 432.311 48.236 432.516 48.46C432.731 48.684 432.978 48.8567 433.258 48.978C433.538 49.0993 433.841 49.16 434.168 49.16ZM446.254 50H445.162V45.016C445.162 44.6893 445.088 44.4233 444.938 44.218C444.789 44.0033 444.551 43.896 444.224 43.896C443.916 43.896 443.664 44.0127 443.468 44.246C443.282 44.47 443.188 44.82 443.188 45.296V50H442.096V44.96C442.096 44.652 442.012 44.4 441.844 44.204C441.676 43.9987 441.452 43.896 441.172 43.896C440.836 43.896 440.575 44.0173 440.388 44.26C440.211 44.5027 440.122 44.82 440.122 45.212V50H439.03V43.056H440.122V43.812H440.29C440.412 43.4853 440.589 43.2473 440.822 43.098C441.056 42.9393 441.331 42.86 441.648 42.86C441.984 42.86 442.26 42.9487 442.474 43.126C442.698 43.3033 442.852 43.532 442.936 43.812H443.104C443.422 43.1773 443.926 42.86 444.616 42.86C445.139 42.86 445.54 43.028 445.82 43.364C446.11 43.6907 446.254 44.12 446.254 44.652V50Z" fill="#314455"/>
</svg>
