<svg width="802" height="37" viewBox="0 0 802 37" fill="none" xmlns="http://www.w3.org/2000/svg">
<path d="M3.37891 0.999998V19.56C3.37891 21.8267 3.89891 23.5467 4.93891 24.72C6.00557 25.8667 7.56557 26.44 9.61891 26.44C11.6722 26.44 13.2189 25.8667 14.2589 24.72C15.3256 23.5467 15.8589 21.8267 15.8589 19.56V0.999998H19.2189V19.56C19.2189 22.8133 18.3656 25.2933 16.6589 27C14.9522 28.7067 12.6056 29.56 9.61891 29.56C6.63224 29.56 4.28557 28.7067 2.57891 27C0.87224 25.2933 0.0189062 22.8133 0.0189062 19.56V0.999998H3.37891ZM28.4711 29H25.3511V9.16H28.4711V12.52H28.9511C30.1778 9.90666 32.3111 8.6 35.3511 8.6C37.6444 8.6 39.4711 9.32 40.8311 10.76C42.1911 12.1733 42.8711 14.3067 42.8711 17.16V29H39.7511V17.8C39.7511 15.72 39.2844 14.16 38.3511 13.12C37.4178 12.08 36.1511 11.56 34.5511 11.56C32.6578 11.56 31.1644 12.2133 30.0711 13.52C29.0044 14.8 28.4711 16.52 28.4711 18.68V29ZM56.0033 3.24C56.0033 2.46666 56.2699 1.81333 56.8033 1.28C57.3633 0.719999 58.0299 0.439998 58.8033 0.439998C59.5766 0.439998 60.2299 0.719999 60.7633 1.28C61.3233 1.81333 61.6033 2.46666 61.6033 3.24C61.6033 4.01333 61.3233 4.68 60.7633 5.24C60.2299 5.77333 59.5766 6.04 58.8033 6.04C58.0299 6.04 57.3633 5.77333 56.8033 5.24C56.2699 4.68 56.0033 4.01333 56.0033 3.24ZM50.3233 26.12H57.2833V12.04H51.0433V9.16H60.4033V26.12H66.8833V29H50.3233V26.12ZM86.1355 29H79.9755L73.0555 9.16H76.7355L82.8155 27.56H83.2955L89.3755 9.16H93.0555L86.1355 29ZM101.108 20.04C101.188 22.0133 101.801 23.6 102.948 24.8C104.094 26 105.694 26.6 107.748 26.6C108.681 26.6 109.494 26.4933 110.188 26.28C110.881 26.0667 111.468 25.7733 111.948 25.4C112.454 25.0267 112.854 24.6 113.148 24.12C113.468 23.6133 113.721 23.08 113.908 22.52L116.868 23.32C116.308 25.16 115.268 26.6667 113.748 27.84C112.254 28.9867 110.228 29.56 107.668 29.56C106.254 29.56 104.948 29.32 103.748 28.84C102.574 28.3333 101.561 27.6267 100.708 26.72C99.8543 25.8133 99.1877 24.7333 98.7077 23.48C98.2277 22.2267 97.9877 20.84 97.9877 19.32V18.36C97.9877 16.9733 98.2277 15.68 98.7077 14.48C99.2143 13.28 99.9077 12.2533 100.788 11.4C101.668 10.52 102.694 9.84 103.868 9.36C105.068 8.85333 106.361 8.6 107.748 8.6C109.374 8.6 110.774 8.90667 111.948 9.52C113.148 10.1067 114.121 10.84 114.868 11.72C115.641 12.6 116.201 13.56 116.548 14.6C116.921 15.64 117.108 16.6 117.108 17.48V20.04H101.108ZM107.748 11.56C106.868 11.56 106.041 11.7067 105.268 12C104.521 12.2667 103.854 12.6533 103.268 13.16C102.708 13.6667 102.241 14.2667 101.868 14.96C101.521 15.6267 101.294 16.36 101.188 17.16H113.988C113.934 16.3067 113.721 15.5333 113.348 14.84C113.001 14.1467 112.534 13.56 111.948 13.08C111.388 12.6 110.734 12.2267 109.988 11.96C109.268 11.6933 108.521 11.56 107.748 11.56ZM122.2 9.16H129.4V11.8H129.88C130.387 10.7067 131.107 9.90667 132.04 9.4C132.973 8.86667 134.04 8.6 135.24 8.6C137.24 8.6 138.853 9.25333 140.08 10.56C141.307 11.8667 141.96 13.7733 142.04 16.28L138.76 16.76C138.76 14.92 138.32 13.6 137.44 12.8C136.56 11.9733 135.48 11.56 134.2 11.56C133.373 11.56 132.653 11.72 132.04 12.04C131.453 12.36 130.96 12.8 130.56 13.36C130.16 13.92 129.867 14.5733 129.68 15.32C129.493 16.0667 129.4 16.8667 129.4 17.72V26.12H134.44V29H121.72V26.12H126.28V12.04H122.2V9.16ZM151.932 14.28C151.932 15.24 152.332 15.9733 153.132 16.48C153.959 16.9867 155.452 17.32 157.612 17.48C159.932 17.6667 161.692 18.2267 162.892 19.16C164.119 20.0667 164.732 21.4 164.732 23.16V23.4C164.732 24.36 164.532 25.2267 164.132 26C163.759 26.7467 163.225 27.3867 162.532 27.92C161.865 28.4533 161.039 28.8533 160.052 29.12C159.092 29.4133 158.039 29.56 156.892 29.56C155.345 29.56 154.012 29.36 152.892 28.96C151.799 28.5333 150.879 27.9867 150.132 27.32C149.412 26.6267 148.865 25.8533 148.492 25C148.119 24.12 147.905 23.24 147.852 22.36L150.812 21.64C150.945 23.16 151.532 24.3867 152.572 25.32C153.612 26.2267 154.999 26.68 156.732 26.68C158.199 26.68 159.372 26.4 160.252 25.84C161.159 25.2533 161.612 24.44 161.612 23.4C161.612 22.28 161.172 21.48 160.292 21C159.412 20.52 157.985 20.2133 156.012 20.08C153.719 19.92 151.959 19.3867 150.732 18.48C149.505 17.5733 148.892 16.2533 148.892 14.52V14.28C148.892 13.3467 149.092 12.5333 149.492 11.84C149.892 11.12 150.425 10.52 151.092 10.04C151.785 9.56 152.559 9.2 153.412 8.96C154.265 8.72 155.159 8.6 156.092 8.6C157.399 8.6 158.545 8.78667 159.532 9.16C160.519 9.50667 161.345 9.97333 162.012 10.56C162.679 11.12 163.185 11.7733 163.532 12.52C163.905 13.2667 164.145 14.0133 164.252 14.76L161.292 15.48C161.159 14.2 160.639 13.2 159.732 12.48C158.852 11.76 157.692 11.4 156.252 11.4C155.692 11.4 155.145 11.4667 154.612 11.6C154.105 11.7067 153.652 11.88 153.252 12.12C152.852 12.36 152.532 12.6667 152.292 13.04C152.052 13.3867 151.932 13.8 151.932 14.28ZM178.464 3.24C178.464 2.46666 178.731 1.81333 179.264 1.28C179.824 0.719999 180.491 0.439998 181.264 0.439998C182.038 0.439998 182.691 0.719999 183.224 1.28C183.784 1.81333 184.064 2.46666 184.064 3.24C184.064 4.01333 183.784 4.68 183.224 5.24C182.691 5.77333 182.038 6.04 181.264 6.04C180.491 6.04 179.824 5.77333 179.264 5.24C178.731 4.68 178.464 4.01333 178.464 3.24ZM172.784 26.12H179.744V12.04H173.504V9.16H182.864V26.12H189.344V29H172.784V26.12ZM196.116 9.16H202.356V0.999998H205.476V9.16H213.156V12.04H205.476V24.92C205.476 25.72 205.836 26.12 206.556 26.12H212.196V29H205.436C204.53 29 203.783 28.7067 203.196 28.12C202.636 27.5333 202.356 26.7867 202.356 25.88V12.04H196.116V9.16ZM235.689 25.4H235.209C234.569 26.68 233.729 27.6933 232.689 28.44C231.649 29.1867 230.329 29.56 228.729 29.56C227.635 29.56 226.622 29.3733 225.689 29C224.782 28.6533 223.995 28.12 223.329 27.4C222.689 26.68 222.182 25.7867 221.809 24.72C221.462 23.6533 221.289 22.4133 221.289 21V9.16H224.409V20.6C224.409 22.68 224.835 24.2 225.689 25.16C226.542 26.12 227.849 26.6 229.609 26.6C231.502 26.6 232.982 25.96 234.049 24.68C235.142 23.3733 235.689 21.64 235.689 19.48V9.16H238.809V33.88C238.809 34.7867 238.515 35.5333 237.929 36.12C237.369 36.7067 236.635 37 235.729 37H224.409V34.12H234.609C235.329 34.12 235.689 33.72 235.689 32.92V25.4ZM288.993 19.32C288.993 20.9733 288.713 22.44 288.153 23.72C287.62 24.9733 286.9 26.04 285.993 26.92C285.086 27.7733 284.02 28.4267 282.793 28.88C281.593 29.3333 280.34 29.56 279.033 29.56C277.7 29.56 276.433 29.3333 275.233 28.88C274.033 28.4267 272.98 27.7733 272.073 26.92C271.166 26.04 270.433 24.9733 269.873 23.72C269.34 22.44 269.073 20.9733 269.073 19.32V18.84C269.073 17.2133 269.34 15.7733 269.873 14.52C270.433 13.24 271.166 12.16 272.073 11.28C273.006 10.4 274.073 9.73333 275.273 9.28C276.473 8.82666 277.726 8.6 279.033 8.6C280.34 8.6 281.593 8.82666 282.793 9.28C283.993 9.73333 285.046 10.4 285.953 11.28C286.886 12.16 287.62 13.24 288.153 14.52C288.713 15.7733 288.993 17.2133 288.993 18.84V19.32ZM279.033 26.6C279.993 26.6 280.873 26.44 281.673 26.12C282.5 25.7733 283.22 25.28 283.833 24.64C284.446 24 284.926 23.24 285.273 22.36C285.62 21.4533 285.793 20.44 285.793 19.32V18.84C285.793 17.7733 285.62 16.8 285.273 15.92C284.926 15.0133 284.446 14.24 283.833 13.6C283.22 12.96 282.5 12.4667 281.673 12.12C280.846 11.7467 279.966 11.56 279.033 11.56C278.1 11.56 277.22 11.7467 276.393 12.12C275.566 12.4667 274.846 12.96 274.233 13.6C273.62 14.24 273.14 15.0133 272.793 15.92C272.446 16.8 272.273 17.7733 272.273 18.84V19.32C272.273 20.44 272.446 21.4533 272.793 22.36C273.14 23.24 273.62 24 274.233 24.64C274.846 25.28 275.553 25.7733 276.353 26.12C277.18 26.44 278.073 26.6 279.033 26.6ZM294.565 9.16H300.685V4.12C300.685 3.21333 300.965 2.46667 301.525 1.88C302.112 1.29333 302.858 0.999998 303.765 0.999998H311.605V3.88H304.885C304.165 3.88 303.805 4.28 303.805 5.08V9.16H312.085V12.04H303.805V29H300.685V12.04H294.565V9.16ZM359.11 9.08C359.11 8.17333 358.923 7.37333 358.55 6.68C358.203 5.98666 357.723 5.41333 357.11 4.96C356.496 4.50667 355.79 4.16 354.99 3.92C354.19 3.68 353.35 3.56 352.47 3.56C351.696 3.56 350.963 3.66667 350.27 3.88C349.576 4.06667 348.95 4.34666 348.39 4.72C347.856 5.09333 347.43 5.56 347.11 6.12C346.79 6.65333 346.63 7.28 346.63 8V8.24C346.63 9.01333 346.79 9.68 347.11 10.24C347.43 10.7733 347.896 11.24 348.51 11.64C349.15 12.0133 349.936 12.3333 350.87 12.6C351.803 12.84 352.896 13.0533 354.15 13.24C357.083 13.6933 359.243 14.56 360.63 15.84C362.016 17.0933 362.71 18.7867 362.71 20.92V21.4C362.71 22.6 362.496 23.7067 362.07 24.72C361.67 25.7067 361.056 26.56 360.23 27.28C359.43 28 358.43 28.56 357.23 28.96C356.03 29.36 354.643 29.56 353.07 29.56C351.283 29.56 349.696 29.3067 348.31 28.8C346.95 28.2667 345.803 27.5467 344.87 26.64C343.963 25.7067 343.27 24.6267 342.79 23.4C342.31 22.1467 342.07 20.7867 342.07 19.32V18.12H345.43V19.08C345.43 21.5333 346.096 23.3733 347.43 24.6C348.79 25.8267 350.67 26.44 353.07 26.44C355.15 26.44 356.71 25.9867 357.75 25.08C358.816 24.1467 359.35 22.92 359.35 21.4V21.16C359.35 19.6933 358.803 18.5733 357.71 17.8C356.643 17.0267 354.896 16.4667 352.47 16.12C351.056 15.9333 349.776 15.6533 348.63 15.28C347.51 14.88 346.55 14.3733 345.75 13.76C344.95 13.12 344.336 12.36 343.91 11.48C343.483 10.6 343.27 9.56 343.27 8.36V7.88C343.27 6.78667 343.496 5.78667 343.95 4.88C344.403 3.97333 345.03 3.18667 345.83 2.52C346.656 1.85333 347.63 1.34667 348.75 0.999998C349.896 0.626665 351.15 0.439998 352.51 0.439998C354.083 0.439998 355.483 0.666665 356.71 1.12C357.963 1.57333 359.016 2.18667 359.87 2.96C360.723 3.70667 361.363 4.6 361.79 5.64C362.243 6.65333 362.47 7.72 362.47 8.84V10.52H359.11V9.08ZM386.802 21.96C386.588 23.0533 386.215 24.0667 385.682 25C385.175 25.9333 384.522 26.7467 383.722 27.44C382.922 28.1067 381.988 28.6267 380.922 29C379.855 29.3733 378.668 29.56 377.362 29.56C375.975 29.56 374.655 29.3333 373.402 28.88C372.175 28.4267 371.095 27.7733 370.162 26.92C369.228 26.04 368.482 24.9733 367.922 23.72C367.388 22.4667 367.122 21.0267 367.122 19.4V18.92C367.122 17.32 367.388 15.88 367.922 14.6C368.482 13.32 369.228 12.24 370.162 11.36C371.095 10.48 372.175 9.8 373.402 9.32C374.655 8.84 375.975 8.6 377.362 8.6C378.615 8.6 379.775 8.78667 380.842 9.16C381.908 9.53333 382.842 10.0667 383.642 10.76C384.468 11.4267 385.135 12.2267 385.642 13.16C386.175 14.0933 386.535 15.1067 386.722 16.2L383.602 16.92C383.522 16.2267 383.322 15.56 383.002 14.92C382.708 14.2533 382.295 13.68 381.762 13.2C381.255 12.6933 380.628 12.2933 379.882 12C379.135 11.7067 378.268 11.56 377.282 11.56C376.322 11.56 375.415 11.7467 374.562 12.12C373.735 12.4667 373.002 12.9733 372.362 13.64C371.722 14.28 371.215 15.0533 370.842 15.96C370.495 16.8667 370.322 17.8533 370.322 18.92V19.4C370.322 20.52 370.495 21.5333 370.842 22.44C371.215 23.32 371.722 24.0667 372.362 24.68C373.002 25.2933 373.748 25.7733 374.602 26.12C375.455 26.44 376.375 26.6 377.362 26.6C378.348 26.6 379.202 26.4533 379.922 26.16C380.668 25.84 381.295 25.44 381.802 24.96C382.335 24.4533 382.748 23.88 383.042 23.24C383.362 22.6 383.575 21.9333 383.682 21.24L386.802 21.96ZM395.854 29H392.734V0.999998H395.854V12.76H396.334C396.947 11.48 397.801 10.4667 398.894 9.72C400.014 8.97333 401.374 8.6 402.974 8.6C405.134 8.6 406.881 9.32 408.214 10.76C409.574 12.1733 410.254 14.3067 410.254 17.16V29H407.134V17.8C407.134 15.72 406.667 14.16 405.734 13.12C404.801 12.08 403.534 11.56 401.934 11.56C400.041 11.56 398.547 12.2133 397.454 13.52C396.387 14.8 395.854 16.52 395.854 18.68V29ZM419.506 20.04C419.586 22.0133 420.199 23.6 421.346 24.8C422.493 26 424.093 26.6 426.146 26.6C427.079 26.6 427.893 26.4933 428.586 26.28C429.279 26.0667 429.866 25.7733 430.346 25.4C430.853 25.0267 431.253 24.6 431.546 24.12C431.866 23.6133 432.119 23.08 432.306 22.52L435.266 23.32C434.706 25.16 433.666 26.6667 432.146 27.84C430.653 28.9867 428.626 29.56 426.066 29.56C424.653 29.56 423.346 29.32 422.146 28.84C420.973 28.3333 419.959 27.6267 419.106 26.72C418.253 25.8133 417.586 24.7333 417.106 23.48C416.626 22.2267 416.386 20.84 416.386 19.32V18.36C416.386 16.9733 416.626 15.68 417.106 14.48C417.613 13.28 418.306 12.2533 419.186 11.4C420.066 10.52 421.093 9.84 422.266 9.36C423.466 8.85333 424.759 8.6 426.146 8.6C427.773 8.6 429.173 8.90667 430.346 9.52C431.546 10.1067 432.519 10.84 433.266 11.72C434.039 12.6 434.599 13.56 434.946 14.6C435.319 15.64 435.506 16.6 435.506 17.48V20.04H419.506ZM426.146 11.56C425.266 11.56 424.439 11.7067 423.666 12C422.919 12.2667 422.253 12.6533 421.666 13.16C421.106 13.6667 420.639 14.2667 420.266 14.96C419.919 15.6267 419.693 16.36 419.586 17.16H432.386C432.333 16.3067 432.119 15.5333 431.746 14.84C431.399 14.1467 430.933 13.56 430.346 13.08C429.786 12.6 429.133 12.2267 428.386 11.96C427.666 11.6933 426.919 11.56 426.146 11.56ZM457.078 25.96H456.598C456.278 26.5733 455.865 27.1067 455.358 27.56C454.878 28.0133 454.345 28.3867 453.758 28.68C453.198 28.9733 452.598 29.1867 451.958 29.32C451.318 29.48 450.705 29.56 450.118 29.56C448.785 29.56 447.545 29.3333 446.398 28.88C445.252 28.4267 444.238 27.7733 443.358 26.92C442.505 26.0667 441.825 25.0133 441.318 23.76C440.838 22.48 440.598 21.0267 440.598 19.4V18.76C440.598 17.16 440.852 15.7333 441.358 14.48C441.865 13.2 442.545 12.1333 443.398 11.28C444.252 10.4 445.252 9.73333 446.398 9.28C447.545 8.82666 448.758 8.6 450.038 8.6C451.398 8.6 452.665 8.90667 453.838 9.52C455.038 10.1067 455.958 11.0267 456.598 12.28H457.078V0.999998H460.198V29H457.078V25.96ZM450.438 26.6C451.372 26.6 452.238 26.4267 453.038 26.08C453.838 25.7333 454.532 25.24 455.118 24.6C455.732 23.96 456.212 23.2 456.558 22.32C456.905 21.4133 457.078 20.4133 457.078 19.32V18.84C457.078 17.7733 456.905 16.8 456.558 15.92C456.212 15.0133 455.732 14.24 455.118 13.6C454.532 12.96 453.825 12.4667 452.998 12.12C452.198 11.7467 451.345 11.56 450.438 11.56C449.505 11.56 448.625 11.7333 447.798 12.08C446.998 12.4267 446.292 12.92 445.678 13.56C445.092 14.2 444.625 14.96 444.278 15.84C443.958 16.72 443.798 17.6933 443.798 18.76V19.4C443.798 20.52 443.958 21.52 444.278 22.4C444.625 23.28 445.092 24.04 445.678 24.68C446.292 25.2933 446.998 25.7733 447.798 26.12C448.598 26.44 449.478 26.6 450.438 26.6ZM480.37 9.16H483.49V29H480.37V25.4H479.89C479.25 26.68 478.41 27.6933 477.37 28.44C476.33 29.1867 475.01 29.56 473.41 29.56C472.317 29.56 471.304 29.3733 470.37 29C469.464 28.6533 468.677 28.12 468.01 27.4C467.37 26.68 466.864 25.7867 466.49 24.72C466.144 23.6533 465.97 22.4133 465.97 21V9.16H469.09V20.6C469.09 22.68 469.517 24.2 470.37 25.16C471.224 26.12 472.53 26.6 474.29 26.6C476.184 26.6 477.664 25.96 478.73 24.68C479.824 23.3733 480.37 21.64 480.37 19.48V9.16ZM490.703 26.12H497.903V3.88H490.943V0.999998H501.023V26.12H508.223V29H490.703V26.12ZM521.355 3.24C521.355 2.46666 521.622 1.81333 522.155 1.28C522.715 0.719999 523.382 0.439998 524.155 0.439998C524.928 0.439998 525.582 0.719999 526.115 1.28C526.675 1.81333 526.955 2.46666 526.955 3.24C526.955 4.01333 526.675 4.68 526.115 5.24C525.582 5.77333 524.928 6.04 524.155 6.04C523.382 6.04 522.715 5.77333 522.155 5.24C521.622 4.68 521.355 4.01333 521.355 3.24ZM515.675 26.12H522.635V12.04H516.395V9.16H525.755V26.12H532.235V29H515.675V26.12ZM542.807 29H539.687V9.16H542.807V12.52H543.287C544.514 9.90666 546.647 8.6 549.687 8.6C551.98 8.6 553.807 9.32 555.167 10.76C556.527 12.1733 557.207 14.3067 557.207 17.16V29H554.087V17.8C554.087 15.72 553.62 14.16 552.687 13.12C551.754 12.08 550.487 11.56 548.887 11.56C546.994 11.56 545.5 12.2133 544.407 13.52C543.34 14.8 542.807 16.52 542.807 18.68V29ZM579.259 25.96H578.779C578.139 27.16 577.259 28.0667 576.139 28.68C575.046 29.2667 573.846 29.56 572.539 29.56C571.206 29.56 569.953 29.3333 568.779 28.88C567.606 28.4267 566.566 27.7733 565.659 26.92C564.779 26.0667 564.073 25.0133 563.539 23.76C563.033 22.48 562.779 21.0267 562.779 19.4V18.76C562.779 17.16 563.046 15.7333 563.579 14.48C564.113 13.2 564.819 12.1333 565.699 11.28C566.579 10.4 567.606 9.73333 568.779 9.28C569.953 8.82666 571.179 8.6 572.459 8.6C573.899 8.6 575.153 8.92 576.219 9.56C577.313 10.1733 578.166 11.08 578.779 12.28H579.259V9.16H582.379V33.88C582.379 34.7867 582.086 35.5333 581.499 36.12C580.939 36.7067 580.206 37 579.299 37H566.379V34.12H578.179C578.899 34.12 579.259 33.72 579.259 32.92V25.96ZM572.619 26.6C573.553 26.6 574.419 26.4267 575.219 26.08C576.019 25.7333 576.713 25.24 577.299 24.6C577.913 23.96 578.393 23.2 578.739 22.32C579.086 21.4133 579.259 20.4133 579.259 19.32V18.84C579.259 17.7733 579.086 16.8 578.739 15.92C578.393 15.0133 577.913 14.24 577.299 13.6C576.713 12.96 576.006 12.4667 575.179 12.12C574.379 11.7467 573.526 11.56 572.619 11.56C571.686 11.56 570.806 11.7333 569.979 12.08C569.179 12.4267 568.473 12.92 567.859 13.56C567.273 14.2 566.806 14.96 566.459 15.84C566.139 16.72 565.979 17.6933 565.979 18.76V19.4C565.979 20.52 566.139 21.52 566.459 22.4C566.806 23.28 567.273 24.04 567.859 24.68C568.473 25.2933 569.179 25.7733 569.979 26.12C570.779 26.44 571.659 26.6 572.619 26.6ZM622.084 26.44C623.23 26.44 624.204 26.2533 625.004 25.88C625.83 25.48 626.497 24.96 627.004 24.32C627.537 23.6533 627.924 22.9067 628.164 22.08C628.43 21.2267 628.564 20.3333 628.564 19.4V18.92H631.924V19.4C631.924 20.8133 631.71 22.1467 631.284 23.4C630.857 24.6267 630.23 25.7067 629.404 26.64C628.577 27.5467 627.55 28.2667 626.324 28.8C625.097 29.3067 623.684 29.56 622.084 29.56C618.99 29.56 616.577 28.5867 614.844 26.64C613.11 24.6933 612.244 21.8533 612.244 18.12V11.88C612.244 8.25333 613.11 5.44 614.844 3.44C616.577 1.44 618.99 0.439998 622.084 0.439998C623.684 0.439998 625.097 0.706665 626.324 1.24C627.55 1.74667 628.577 2.46667 629.404 3.4C630.23 4.30667 630.857 5.38667 631.284 6.64C631.71 7.86667 631.924 9.18667 631.924 10.6V11.08H628.564V10.6C628.537 9.69333 628.39 8.81333 628.124 7.96C627.884 7.10667 627.497 6.36 626.964 5.72C626.457 5.05333 625.804 4.53333 625.004 4.16C624.204 3.76 623.23 3.56 622.084 3.56C619.924 3.56 618.297 4.34667 617.204 5.92C616.137 7.49333 615.604 9.56 615.604 12.12V17.88C615.604 20.6267 616.137 22.7467 617.204 24.24C618.297 25.7067 619.924 26.44 622.084 26.44ZM656.376 19.32C656.376 20.9733 656.096 22.44 655.536 23.72C655.002 24.9733 654.282 26.04 653.376 26.92C652.469 27.7733 651.402 28.4267 650.176 28.88C648.976 29.3333 647.722 29.56 646.416 29.56C645.082 29.56 643.816 29.3333 642.616 28.88C641.416 28.4267 640.362 27.7733 639.456 26.92C638.549 26.04 637.816 24.9733 637.256 23.72C636.722 22.44 636.456 20.9733 636.456 19.32V18.84C636.456 17.2133 636.722 15.7733 637.256 14.52C637.816 13.24 638.549 12.16 639.456 11.28C640.389 10.4 641.456 9.73333 642.656 9.28C643.856 8.82666 645.109 8.6 646.416 8.6C647.722 8.6 648.976 8.82666 650.176 9.28C651.376 9.73333 652.429 10.4 653.336 11.28C654.269 12.16 655.002 13.24 655.536 14.52C656.096 15.7733 656.376 17.2133 656.376 18.84V19.32ZM646.416 26.6C647.376 26.6 648.256 26.44 649.056 26.12C649.882 25.7733 650.602 25.28 651.216 24.64C651.829 24 652.309 23.24 652.656 22.36C653.002 21.4533 653.176 20.44 653.176 19.32V18.84C653.176 17.7733 653.002 16.8 652.656 15.92C652.309 15.0133 651.829 14.24 651.216 13.6C650.602 12.96 649.882 12.4667 649.056 12.12C648.229 11.7467 647.349 11.56 646.416 11.56C645.482 11.56 644.602 11.7467 643.776 12.12C642.949 12.4667 642.229 12.96 641.616 13.6C641.002 14.24 640.522 15.0133 640.176 15.92C639.829 16.8 639.656 17.7733 639.656 18.84V19.32C639.656 20.44 639.829 21.4533 640.176 22.36C640.522 23.24 641.002 24 641.616 24.64C642.229 25.28 642.936 25.7733 643.736 26.12C644.562 26.44 645.456 26.6 646.416 26.6ZM665.268 29H662.148V9.16H665.268V12.52H665.748C666.975 9.90666 669.108 8.6 672.148 8.6C674.441 8.6 676.268 9.32 677.628 10.76C678.988 12.1733 679.668 14.3067 679.668 17.16V29H676.548V17.8C676.548 15.72 676.081 14.16 675.148 13.12C674.215 12.08 672.948 11.56 671.348 11.56C669.455 11.56 667.961 12.2133 666.868 13.52C665.801 14.8 665.268 16.52 665.268 18.68V29ZM699.8 3.88H693.96C693.24 3.88 692.88 4.28 692.88 5.08V9.16H697.88V12.04H692.88V29H689.76V12.04H685.08V9.16H689.76V4.12C689.76 3.21333 690.04 2.46667 690.6 1.88C691.187 1.29333 691.933 0.999998 692.84 0.999998H702.92V29H699.8V3.88ZM717.292 3.24C717.292 2.46666 717.559 1.81333 718.092 1.28C718.652 0.719999 719.319 0.439998 720.092 0.439998C720.866 0.439998 721.519 0.719999 722.052 1.28C722.612 1.81333 722.892 2.46666 722.892 3.24C722.892 4.01333 722.612 4.68 722.052 5.24C721.519 5.77333 720.866 6.04 720.092 6.04C719.319 6.04 718.652 5.77333 718.092 5.24C717.559 4.68 717.292 4.01333 717.292 3.24ZM711.612 26.12H718.572V12.04H712.332V9.16H721.692V26.12H728.172V29H711.612V26.12ZM754.185 21.96C753.971 23.0533 753.598 24.0667 753.065 25C752.558 25.9333 751.905 26.7467 751.105 27.44C750.305 28.1067 749.371 28.6267 748.305 29C747.238 29.3733 746.051 29.56 744.745 29.56C743.358 29.56 742.038 29.3333 740.785 28.88C739.558 28.4267 738.478 27.7733 737.545 26.92C736.611 26.04 735.865 24.9733 735.305 23.72C734.771 22.4667 734.505 21.0267 734.505 19.4V18.92C734.505 17.32 734.771 15.88 735.305 14.6C735.865 13.32 736.611 12.24 737.545 11.36C738.478 10.48 739.558 9.8 740.785 9.32C742.038 8.84 743.358 8.6 744.745 8.6C745.998 8.6 747.158 8.78667 748.225 9.16C749.291 9.53333 750.225 10.0667 751.025 10.76C751.851 11.4267 752.518 12.2267 753.025 13.16C753.558 14.0933 753.918 15.1067 754.105 16.2L750.985 16.92C750.905 16.2267 750.705 15.56 750.385 14.92C750.091 14.2533 749.678 13.68 749.145 13.2C748.638 12.6933 748.011 12.2933 747.265 12C746.518 11.7067 745.651 11.56 744.665 11.56C743.705 11.56 742.798 11.7467 741.945 12.12C741.118 12.4667 740.385 12.9733 739.745 13.64C739.105 14.28 738.598 15.0533 738.225 15.96C737.878 16.8667 737.705 17.8533 737.705 18.92V19.4C737.705 20.52 737.878 21.5333 738.225 22.44C738.598 23.32 739.105 24.0667 739.745 24.68C740.385 25.2933 741.131 25.7733 741.985 26.12C742.838 26.44 743.758 26.6 744.745 26.6C745.731 26.6 746.585 26.4533 747.305 26.16C748.051 25.84 748.678 25.44 749.185 24.96C749.718 24.4533 750.131 23.88 750.425 23.24C750.745 22.6 750.958 21.9333 751.065 21.24L754.185 21.96ZM759.437 9.16H765.677V0.999998H768.797V9.16H776.477V12.04H768.797V24.92C768.797 25.72 769.157 26.12 769.877 26.12H775.517V29H768.757C767.85 29 767.103 28.7067 766.517 28.12C765.957 27.5333 765.677 26.7867 765.677 25.88V12.04H759.437V9.16ZM788.729 14.28C788.729 15.24 789.129 15.9733 789.929 16.48C790.756 16.9867 792.249 17.32 794.409 17.48C796.729 17.6667 798.489 18.2267 799.689 19.16C800.916 20.0667 801.529 21.4 801.529 23.16V23.4C801.529 24.36 801.329 25.2267 800.929 26C800.556 26.7467 800.022 27.3867 799.329 27.92C798.662 28.4533 797.836 28.8533 796.849 29.12C795.889 29.4133 794.836 29.56 793.689 29.56C792.142 29.56 790.809 29.36 789.689 28.96C788.596 28.5333 787.676 27.9867 786.929 27.32C786.209 26.6267 785.662 25.8533 785.289 25C784.916 24.12 784.702 23.24 784.649 22.36L787.609 21.64C787.742 23.16 788.329 24.3867 789.369 25.32C790.409 26.2267 791.796 26.68 793.529 26.68C794.996 26.68 796.169 26.4 797.049 25.84C797.956 25.2533 798.409 24.44 798.409 23.4C798.409 22.28 797.969 21.48 797.089 21C796.209 20.52 794.782 20.2133 792.809 20.08C790.516 19.92 788.756 19.3867 787.529 18.48C786.302 17.5733 785.689 16.2533 785.689 14.52V14.28C785.689 13.3467 785.889 12.5333 786.289 11.84C786.689 11.12 787.222 10.52 787.889 10.04C788.582 9.56 789.356 9.2 790.209 8.96C791.062 8.72 791.956 8.6 792.889 8.6C794.196 8.6 795.342 8.78667 796.329 9.16C797.316 9.50667 798.142 9.97333 798.809 10.56C799.476 11.12 799.982 11.7733 800.329 12.52C800.702 13.2667 800.942 14.0133 801.049 14.76L798.089 15.48C797.956 14.2 797.436 13.2 796.529 12.48C795.649 11.76 794.489 11.4 793.049 11.4C792.489 11.4 791.942 11.4667 791.409 11.6C790.902 11.7067 790.449 11.88 790.049 12.12C789.649 12.36 789.329 12.6667 789.089 13.04C788.849 13.3867 788.729 13.8 788.729 14.28Z" fill="#314455"/>
</svg>
