<svg width="743" height="204" viewBox="0 0 743 204" fill="none" xmlns="http://www.w3.org/2000/svg">
<rect width="743" height="204" fill="#9E5A63"/>
<path d="M64.3049 78.296H70.0769V115H64.3049V108.34H63.4169C62.2329 110.708 60.6789 112.583 58.7549 113.964C56.8309 115.345 54.3889 116.036 51.4289 116.036C49.4062 116.036 47.5316 115.691 45.8049 115C44.1276 114.359 42.6722 113.372 41.4389 112.04C40.2549 110.708 39.3176 109.055 38.6269 107.082C37.9856 105.109 37.6649 102.815 37.6649 100.2V78.296H43.4369V99.46C43.4369 103.308 44.2262 106.12 45.8049 107.896C47.3836 109.672 49.8009 110.56 53.0569 110.56C56.5596 110.56 59.2976 109.376 61.2709 107.008C63.2936 104.591 64.3049 101.384 64.3049 97.388V78.296ZM87.8594 129.8H82.0874V78.296H87.8594V84.068H88.7474C90.0301 81.848 91.8061 80.1707 94.0754 79.036C96.3448 77.852 98.8114 77.26 101.475 77.26C103.745 77.26 105.891 77.6793 107.913 78.518C109.936 79.3567 111.712 80.5653 113.241 82.144C114.82 83.7227 116.053 85.6713 116.941 87.99C117.879 90.3087 118.347 92.948 118.347 95.908V97.388C118.347 100.397 117.903 103.061 117.015 105.38C116.127 107.699 114.894 109.647 113.315 111.226C111.786 112.805 109.985 114.013 107.913 114.852C105.841 115.641 103.646 116.036 101.327 116.036C100.143 116.036 98.9348 115.888 97.7014 115.592C96.4681 115.345 95.2841 114.951 94.1494 114.408C93.0641 113.816 92.0528 113.125 91.1154 112.336C90.1781 111.497 89.3888 110.511 88.7474 109.376H87.8594V129.8ZM100.143 110.56C101.919 110.56 103.547 110.264 105.027 109.672C106.507 109.031 107.79 108.143 108.875 107.008C110.01 105.873 110.873 104.492 111.465 102.864C112.107 101.236 112.427 99.4107 112.427 97.388V95.908C112.427 93.9347 112.107 92.1587 111.465 90.58C110.873 88.952 110.01 87.5707 108.875 86.436C107.79 85.252 106.483 84.3393 104.953 83.698C103.473 83.0567 101.87 82.736 100.143 82.736C98.4168 82.736 96.8134 83.0813 95.3334 83.772C93.8534 84.4133 92.5461 85.326 91.4114 86.51C90.3261 87.694 89.4628 89.1247 88.8214 90.802C88.1801 92.43 87.8594 94.2307 87.8594 96.204V97.092C87.8594 99.1147 88.1801 100.965 88.8214 102.642C89.4628 104.27 90.3261 105.676 91.4114 106.86C92.5461 108.044 93.8534 108.957 95.3334 109.598C96.8134 110.239 98.4168 110.56 100.143 110.56ZM157.146 109.376H156.258C155.666 110.511 154.901 111.497 153.964 112.336C153.076 113.175 152.089 113.865 151.004 114.408C149.968 114.951 148.858 115.345 147.674 115.592C146.49 115.888 145.355 116.036 144.27 116.036C141.803 116.036 139.509 115.617 137.388 114.778C135.267 113.939 133.392 112.731 131.764 111.152C130.185 109.573 128.927 107.625 127.99 105.306C127.102 102.938 126.658 100.249 126.658 97.24V96.056C126.658 93.096 127.127 90.4567 128.064 88.138C129.001 85.77 130.259 83.7967 131.838 82.218C133.417 80.59 135.267 79.3567 137.388 78.518C139.509 77.6793 141.754 77.26 144.122 77.26C146.638 77.26 148.981 77.8273 151.152 78.962C153.372 80.0473 155.074 81.7493 156.258 84.068H157.146V63.2H162.918V115H157.146V109.376ZM144.862 110.56C146.589 110.56 148.192 110.239 149.672 109.598C151.152 108.957 152.435 108.044 153.52 106.86C154.655 105.676 155.543 104.27 156.184 102.642C156.825 100.965 157.146 99.1147 157.146 97.092V96.204C157.146 94.2307 156.825 92.43 156.184 90.802C155.543 89.1247 154.655 87.694 153.52 86.51C152.435 85.326 151.127 84.4133 149.598 83.772C148.118 83.0813 146.539 82.736 144.862 82.736C143.135 82.736 141.507 83.0567 139.978 83.698C138.498 84.3393 137.191 85.252 136.056 86.436C134.971 87.62 134.107 89.026 133.466 90.654C132.874 92.282 132.578 94.0827 132.578 96.056V97.24C132.578 99.312 132.874 101.162 133.466 102.79C134.107 104.418 134.971 105.824 136.056 107.008C137.191 108.143 138.498 109.031 139.978 109.672C141.458 110.264 143.086 110.56 144.862 110.56ZM200.681 108.784H199.793C198.609 111.251 196.956 113.076 194.835 114.26C192.763 115.444 190.567 116.036 188.249 116.036C185.831 116.036 183.587 115.641 181.515 114.852C179.443 114.013 177.617 112.805 176.039 111.226C174.509 109.598 173.301 107.625 172.413 105.306C171.525 102.987 171.081 100.299 171.081 97.24V96.056C171.081 93.0467 171.525 90.3827 172.413 88.064C173.301 85.7453 174.509 83.7967 176.039 82.218C177.617 80.59 179.443 79.3567 181.515 78.518C183.587 77.6793 185.782 77.26 188.101 77.26C190.617 77.26 192.886 77.8273 194.909 78.962C196.981 80.0473 198.609 81.7493 199.793 84.068H200.681V78.296H206.453V107.452C206.453 108.932 207.119 109.672 208.451 109.672H210.301V115H206.379C204.701 115 203.32 114.457 202.235 113.372C201.199 112.287 200.681 110.905 200.681 109.228V108.784ZM188.841 110.56C190.567 110.56 192.146 110.239 193.577 109.598C195.057 108.957 196.315 108.044 197.351 106.86C198.387 105.676 199.201 104.27 199.793 102.642C200.385 100.965 200.681 99.1147 200.681 97.092V96.204C200.681 94.2307 200.385 92.43 199.793 90.802C199.201 89.1247 198.362 87.694 197.277 86.51C196.241 85.326 194.983 84.4133 193.503 83.772C192.072 83.0813 190.518 82.736 188.841 82.736C187.114 82.736 185.535 83.0567 184.105 83.698C182.674 84.3393 181.416 85.252 180.331 86.436C179.295 87.5707 178.481 88.9767 177.889 90.654C177.297 92.282 177.001 94.0827 177.001 96.056V97.24C177.001 101.433 178.086 104.714 180.257 107.082C182.477 109.401 185.338 110.56 188.841 110.56ZM218.093 78.296H229.637V63.2H235.409V78.296H249.617V83.624H235.409V107.452C235.409 108.932 236.075 109.672 237.407 109.672H247.841V115H235.335C233.658 115 232.276 114.457 231.191 113.372C230.155 112.287 229.637 110.905 229.637 109.228V83.624H218.093V78.296ZM268.88 98.424C269.028 102.075 270.162 105.01 272.284 107.23C274.405 109.45 277.365 110.56 281.164 110.56C282.89 110.56 284.395 110.363 285.678 109.968C286.96 109.573 288.046 109.031 288.934 108.34C289.871 107.649 290.611 106.86 291.154 105.972C291.746 105.035 292.214 104.048 292.56 103.012L298.036 104.492C297 107.896 295.076 110.683 292.264 112.854C289.501 114.975 285.752 116.036 281.016 116.036C278.401 116.036 275.984 115.592 273.764 114.704C271.593 113.767 269.718 112.459 268.14 110.782C266.561 109.105 265.328 107.107 264.44 104.788C263.552 102.469 263.108 99.904 263.108 97.092V95.316C263.108 92.7507 263.552 90.358 264.44 88.138C265.377 85.918 266.66 84.0187 268.288 82.44C269.916 80.812 271.815 79.554 273.986 78.666C276.206 77.7287 278.598 77.26 281.164 77.26C284.173 77.26 286.763 77.8273 288.934 78.962C291.154 80.0473 292.954 81.404 294.336 83.032C295.766 84.66 296.802 86.436 297.444 88.36C298.134 90.284 298.48 92.06 298.48 93.688V98.424H268.88ZM281.164 82.736C279.536 82.736 278.006 83.0073 276.576 83.55C275.194 84.0433 273.961 84.7587 272.876 85.696C271.84 86.6333 270.976 87.7433 270.286 89.026C269.644 90.2593 269.225 91.616 269.028 93.096H292.708C292.609 91.5173 292.214 90.0867 291.524 88.804C290.882 87.5213 290.019 86.436 288.934 85.548C287.898 84.66 286.689 83.9693 285.308 83.476C283.976 82.9827 282.594 82.736 281.164 82.736ZM362.905 87.768C362.905 89.544 363.645 90.9007 365.125 91.838C366.654 92.7753 369.417 93.392 373.413 93.688C377.705 94.0333 380.961 95.0693 383.181 96.796C385.45 98.4733 386.585 100.94 386.585 104.196V104.64C386.585 106.416 386.215 108.019 385.475 109.45C384.784 110.831 383.797 112.015 382.515 113.002C381.281 113.989 379.752 114.729 377.927 115.222C376.151 115.765 374.202 116.036 372.081 116.036C369.219 116.036 366.753 115.666 364.681 114.926C362.658 114.137 360.956 113.125 359.575 111.892C358.243 110.609 357.231 109.179 356.541 107.6C355.85 105.972 355.455 104.344 355.357 102.716L360.833 101.384C361.079 104.196 362.165 106.465 364.089 108.192C366.013 109.869 368.578 110.708 371.785 110.708C374.498 110.708 376.669 110.19 378.297 109.154C379.974 108.069 380.813 106.564 380.813 104.64C380.813 102.568 379.999 101.088 378.371 100.2C376.743 99.312 374.103 98.7447 370.453 98.498C366.21 98.202 362.954 97.2153 360.685 95.538C358.415 93.8607 357.281 91.4187 357.281 88.212V87.768C357.281 86.0413 357.651 84.5367 358.391 83.254C359.131 81.922 360.117 80.812 361.351 79.924C362.633 79.036 364.064 78.37 365.643 77.926C367.221 77.482 368.874 77.26 370.601 77.26C373.018 77.26 375.139 77.6053 376.965 78.296C378.79 78.9373 380.319 79.8007 381.553 80.886C382.786 81.922 383.723 83.1307 384.365 84.512C385.055 85.8933 385.499 87.2747 385.697 88.656L380.221 89.988C379.974 87.62 379.012 85.77 377.335 84.438C375.707 83.106 373.561 82.44 370.897 82.44C369.861 82.44 368.849 82.5633 367.863 82.81C366.925 83.0073 366.087 83.328 365.347 83.772C364.607 84.216 364.015 84.7833 363.571 85.474C363.127 86.1153 362.905 86.88 362.905 87.768ZM434.929 101.976C434.535 103.999 433.844 105.873 432.857 107.6C431.92 109.327 430.711 110.831 429.231 112.114C427.751 113.347 426.025 114.309 424.051 115C422.078 115.691 419.883 116.036 417.465 116.036C414.9 116.036 412.458 115.617 410.139 114.778C407.87 113.939 405.872 112.731 404.145 111.152C402.419 109.524 401.037 107.551 400.001 105.232C399.015 102.913 398.521 100.249 398.521 97.24V96.352C398.521 93.392 399.015 90.728 400.001 88.36C401.037 85.992 402.419 83.994 404.145 82.366C405.872 80.738 407.87 79.48 410.139 78.592C412.458 77.704 414.9 77.26 417.465 77.26C419.784 77.26 421.93 77.6053 423.903 78.296C425.877 78.9867 427.603 79.9733 429.083 81.256C430.613 82.4893 431.846 83.9693 432.783 85.696C433.77 87.4227 434.436 89.2973 434.781 91.32L429.009 92.652C428.861 91.3693 428.491 90.136 427.899 88.952C427.357 87.7187 426.592 86.658 425.605 85.77C424.668 84.8327 423.509 84.0927 422.127 83.55C420.746 83.0073 419.143 82.736 417.317 82.736C415.541 82.736 413.864 83.0813 412.285 83.772C410.756 84.4133 409.399 85.3507 408.215 86.584C407.031 87.768 406.094 89.1987 405.403 90.876C404.762 92.5533 404.441 94.3787 404.441 96.352V97.24C404.441 99.312 404.762 101.187 405.403 102.864C406.094 104.492 407.031 105.873 408.215 107.008C409.399 108.143 410.781 109.031 412.359 109.672C413.938 110.264 415.64 110.56 417.465 110.56C419.291 110.56 420.869 110.289 422.201 109.746C423.583 109.154 424.742 108.414 425.679 107.526C426.666 106.589 427.431 105.528 427.973 104.344C428.565 103.16 428.96 101.927 429.157 100.644L434.929 101.976ZM451.676 115H445.904V63.2H451.676V84.956H452.564C453.698 82.588 455.277 80.7133 457.3 79.332C459.372 77.9507 461.888 77.26 464.848 77.26C468.844 77.26 472.075 78.592 474.542 81.256C477.058 83.8707 478.316 87.8173 478.316 93.096V115H472.544V94.28C472.544 90.432 471.68 87.546 469.954 85.622C468.227 83.698 465.884 82.736 462.924 82.736C459.421 82.736 456.658 83.9447 454.636 86.362C452.662 88.73 451.676 91.912 451.676 95.908V115ZM495.432 98.424C495.58 102.075 496.715 105.01 498.836 107.23C500.958 109.45 503.918 110.56 507.716 110.56C509.443 110.56 510.948 110.363 512.23 109.968C513.513 109.573 514.598 109.031 515.486 108.34C516.424 107.649 517.164 106.86 517.706 105.972C518.298 105.035 518.767 104.048 519.112 103.012L524.588 104.492C523.552 107.896 521.628 110.683 518.816 112.854C516.054 114.975 512.304 116.036 507.568 116.036C504.954 116.036 502.536 115.592 500.316 114.704C498.146 113.767 496.271 112.459 494.692 110.782C493.114 109.105 491.88 107.107 490.992 104.788C490.104 102.469 489.66 99.904 489.66 97.092V95.316C489.66 92.7507 490.104 90.358 490.992 88.138C491.93 85.918 493.212 84.0187 494.84 82.44C496.468 80.812 498.368 79.554 500.538 78.666C502.758 77.7287 505.151 77.26 507.716 77.26C510.726 77.26 513.316 77.8273 515.486 78.962C517.706 80.0473 519.507 81.404 520.888 83.032C522.319 84.66 523.355 86.436 523.996 88.36C524.687 90.284 525.032 92.06 525.032 93.688V98.424H495.432ZM507.716 82.736C506.088 82.736 504.559 83.0073 503.128 83.55C501.747 84.0433 500.514 84.7587 499.428 85.696C498.392 86.6333 497.529 87.7433 496.838 89.026C496.197 90.2593 495.778 91.616 495.58 93.096H519.26C519.162 91.5173 518.767 90.0867 518.076 88.804C517.435 87.5213 516.572 86.436 515.486 85.548C514.45 84.66 513.242 83.9693 511.86 83.476C510.528 82.9827 509.147 82.736 507.716 82.736ZM564.941 109.376H564.053C563.461 110.511 562.696 111.497 561.759 112.336C560.871 113.175 559.884 113.865 558.799 114.408C557.763 114.951 556.653 115.345 555.469 115.592C554.285 115.888 553.15 116.036 552.065 116.036C549.598 116.036 547.304 115.617 545.183 114.778C543.062 113.939 541.187 112.731 539.559 111.152C537.98 109.573 536.722 107.625 535.785 105.306C534.897 102.938 534.453 100.249 534.453 97.24V96.056C534.453 93.096 534.922 90.4567 535.859 88.138C536.796 85.77 538.054 83.7967 539.633 82.218C541.212 80.59 543.062 79.3567 545.183 78.518C547.304 77.6793 549.549 77.26 551.917 77.26C554.433 77.26 556.776 77.8273 558.947 78.962C561.167 80.0473 562.869 81.7493 564.053 84.068H564.941V63.2H570.713V115H564.941V109.376ZM552.657 110.56C554.384 110.56 555.987 110.239 557.467 109.598C558.947 108.957 560.23 108.044 561.315 106.86C562.45 105.676 563.338 104.27 563.979 102.642C564.62 100.965 564.941 99.1147 564.941 97.092V96.204C564.941 94.2307 564.62 92.43 563.979 90.802C563.338 89.1247 562.45 87.694 561.315 86.51C560.23 85.326 558.922 84.4133 557.393 83.772C555.913 83.0813 554.334 82.736 552.657 82.736C550.93 82.736 549.302 83.0567 547.773 83.698C546.293 84.3393 544.986 85.252 543.851 86.436C542.766 87.62 541.902 89.026 541.261 90.654C540.669 92.282 540.373 94.0827 540.373 96.056V97.24C540.373 99.312 540.669 101.162 541.261 102.79C541.902 104.418 542.766 105.824 543.851 107.008C544.986 108.143 546.293 109.031 547.773 109.672C549.253 110.264 550.881 110.56 552.657 110.56ZM608.031 78.296H613.803V115H608.031V108.34H607.143C605.959 110.708 604.405 112.583 602.481 113.964C600.557 115.345 598.115 116.036 595.155 116.036C593.133 116.036 591.258 115.691 589.531 115C587.854 114.359 586.399 113.372 585.165 112.04C583.981 110.708 583.044 109.055 582.353 107.082C581.712 105.109 581.391 102.815 581.391 100.2V78.296H587.163V99.46C587.163 103.308 587.953 106.12 589.531 107.896C591.11 109.672 593.527 110.56 596.783 110.56C600.286 110.56 603.024 109.376 604.997 107.008C607.02 104.591 608.031 101.384 608.031 97.388V78.296ZM627.146 109.672H640.466V68.528H627.59V63.2H646.238V109.672H659.558V115H627.146V109.672ZM676.675 98.424C676.823 102.075 677.957 105.01 680.079 107.23C682.2 109.45 685.16 110.56 688.959 110.56C690.685 110.56 692.19 110.363 693.473 109.968C694.755 109.573 695.841 109.031 696.729 108.34C697.666 107.649 698.406 106.86 698.949 105.972C699.541 105.035 700.009 104.048 700.355 103.012L705.831 104.492C704.795 107.896 702.871 110.683 700.059 112.854C697.296 114.975 693.547 116.036 688.811 116.036C686.196 116.036 683.779 115.592 681.559 114.704C679.388 113.767 677.513 112.459 675.935 110.782C674.356 109.105 673.123 107.107 672.235 104.788C671.347 102.469 670.903 99.904 670.903 97.092V95.316C670.903 92.7507 671.347 90.358 672.235 88.138C673.172 85.918 674.455 84.0187 676.083 82.44C677.711 80.812 679.61 79.554 681.781 78.666C684.001 77.7287 686.393 77.26 688.959 77.26C691.968 77.26 694.558 77.8273 696.729 78.962C698.949 80.0473 700.749 81.404 702.131 83.032C703.561 84.66 704.597 86.436 705.239 88.36C705.929 90.284 706.275 92.06 706.275 93.688V98.424H676.675ZM688.959 82.736C687.331 82.736 685.801 83.0073 684.371 83.55C682.989 84.0433 681.756 84.7587 680.671 85.696C679.635 86.6333 678.771 87.7433 678.081 89.026C677.439 90.2593 677.02 91.616 676.823 93.096H700.503C700.404 91.5173 700.009 90.0867 699.319 88.804C698.677 87.5213 697.814 86.436 696.729 85.548C695.693 84.66 694.484 83.9693 693.103 83.476C691.771 82.9827 690.389 82.736 688.959 82.736Z" fill="white"/>
</svg>
